StartChar: custom_3_5_0_0_0
Encoding: 30468 30468 10500
Width: 70
Flags: H
LayerCount: 2
Fore
SplineSet
23 43 m 1
 21 43 l 1
 21 41 l 1
 23 41 l 1
 23 43 l 1
26 43 m 1
 24 43 l 1
 24 41 l 1
 25 41 l 1
 25 42 l 1
 26 42 l 1
 26 43 l 1
28 43 m 1
 27 43 l 1
 27 42 l 1
 26 42 l 1
 26 41 l 1
 28 41 l 1
 28 43 l 1
31 43 m 1
 29 43 l 1
 29 41 l 1
 31 41 l 1
 31 43 l 1
31 39 m 1
 29 39 l 1
 29 37 l 1
 31 37 l 1
 31 39 l 1
41 43 m 1
 39 43 l 1
 39 41 l 1
 41 41 l 1
 41 43 l 1
36 37 m 1
 34 37 l 1
 34 35 l 1
 36 35 l 1
 36 37 l 1
31 35 m 1
 29 35 l 1
 29 33 l 1
 31 33 l 1
 31 35 l 1
31 31 m 1
 29 31 l 1
 29 29 l 1
 31 29 l 1
 31 31 l 1
36 33 m 1
 34 33 l 1
 34 31 l 1
 36 31 l 1
 36 33 l 1
41 35 m 1
 39 35 l 1
 39 33 l 1
 41 33 l 1
 41 35 l 1
31 27 m 1
 29 27 l 1
 29 25 l 1
 31 25 l 1
 31 27 l 1
41 27 m 1
 39 27 l 1
 39 25 l 1
 41 25 l 1
 41 27 l 1
44 43 m 1
 42 43 l 1
 42 41 l 1
 43 41 l 1
 43 42 l 1
 44 42 l 1
 44 43 l 1
46 43 m 1
 45 43 l 1
 45 42 l 1
 44 42 l 1
 44 41 l 1
 46 41 l 1
 46 43 l 1
49 43 m 1
 47 43 l 1
 47 41 l 1
 49 41 l 1
 49 43 l 1
49 39 m 1
 47 39 l 1
 47 37 l 1
 49 37 l 1
 49 39 l 1
55 43 m 1
 53 43 l 1
 53 41 l 1
 55 41 l 1
 55 43 l 1
55 39 m 1
 53 39 l 1
 53 37 l 1
 55 37 l 1
 55 39 l 1
58 43 m 1
 56 43 l 1
 56 41 l 1
 57 41 l 1
 57 42 l 1
 58 42 l 1
 58 43 l 1
60 43 m 1
 59 43 l 1
 59 42 l 1
 58 42 l 1
 58 41 l 1
 60 41 l 1
 60 43 l 1
63 43 m 1
 61 43 l 1
 61 41 l 1
 63 41 l 1
 63 43 l 1
43 35 m 1
 42 35 l 1
 42 33 l 1
 44 33 l 1
 44 34 l 1
 43 34 l 1
 43 35 l 1
46 35 m 1
 44 35 l 1
 44 34 l 1
 45 34 l 1
 45 33 l 1
 46 33 l 1
 46 35 l 1
49 35 m 1
 47 35 l 1
 47 33 l 1
 49 33 l 1
 49 35 l 1
49 31 m 1
 47 31 l 1
 47 29 l 1
 49 29 l 1
 49 31 l 1
55 35 m 1
 53 35 l 1
 53 33 l 1
 55 33 l 1
 55 35 l 1
44 27 m 1
 42 27 l 1
 42 25 l 1
 43 25 l 1
 43 26 l 1
 44 26 l 1
 44 27 l 1
46 27 m 1
 45 27 l 1
 45 26 l 1
 44 26 l 1
 44 25 l 1
 46 25 l 1
 46 27 l 1
49 27 m 1
 47 27 l 1
 47 25 l 1
 49 25 l 1
 49 27 l 1
55 27 m 1
 53 27 l 1
 53 25 l 1
 55 25 l 1
 55 27 l 1
57 35 m 1
 56 35 l 1
 56 33 l 1
 58 33 l 1
 58 34 l 1
 57 34 l 1
 57 35 l 1
60 35 m 1
 58 35 l 1
 58 34 l 1
 59 34 l 1
 59 33 l 1
 60 33 l 1
 60 35 l 1
63 35 m 1
 61 35 l 1
 61 33 l 1
 63 33 l 1
 63 35 l 1
63 31 m 1
 61 31 l 1
 61 29 l 1
 63 29 l 1
 63 31 l 1
58 27 m 1
 56 27 l 1
 56 25 l 1
 57 25 l 1
 57 26 l 1
 58 26 l 1
 58 27 l 1
60 27 m 1
 59 27 l 1
 59 26 l 1
 58 26 l 1
 58 25 l 1
 60 25 l 1
 60 27 l 1
63 27 m 1
 61 27 l 1
 61 25 l 1
 63 25 l 1
 63 27 l 1
EndSplineSet
EndChar

StartChar: custom_3_5_0_0_1
Encoding: 30469 30469 10501
Width: 70
Flags: H
LayerCount: 2
Fore
SplineSet
23 43 m 1
 21 43 l 1
 21 41 l 1
 23 41 l 1
 23 43 l 1
26 43 m 1
 24 43 l 1
 24 41 l 1
 25 41 l 1
 25 42 l 1
 26 42 l 1
 26 43 l 1
28 43 m 1
 27 43 l 1
 27 42 l 1
 26 42 l 1
 26 41 l 1
 28 41 l 1
 28 43 l 1
31 43 m 1
 29 43 l 1
 29 41 l 1
 31 41 l 1
 31 43 l 1
31 39 m 1
 29 39 l 1
 29 37 l 1
 31 37 l 1
 31 39 l 1
41 43 m 1
 39 43 l 1
 39 41 l 1
 41 41 l 1
 41 43 l 1
36 37 m 1
 34 37 l 1
 34 35 l 1
 36 35 l 1
 36 37 l 1
31 35 m 1
 29 35 l 1
 29 33 l 1
 31 33 l 1
 31 35 l 1
31 31 m 1
 29 31 l 1
 29 29 l 1
 31 29 l 1
 31 31 l 1
36 33 m 1
 34 33 l 1
 34 31 l 1
 36 31 l 1
 36 33 l 1
41 35 m 1
 39 35 l 1
 39 33 l 1
 41 33 l 1
 41 35 l 1
31 27 m 1
 29 27 l 1
 29 25 l 1
 31 25 l 1
 31 27 l 1
41 27 m 1
 39 27 l 1
 39 25 l 1
 41 25 l 1
 41 27 l 1
44 43 m 1
 42 43 l 1
 42 41 l 1
 43 41 l 1
 43 42 l 1
 44 42 l 1
 44 43 l 1
46 43 m 1
 45 43 l 1
 45 42 l 1
 44 42 l 1
 44 41 l 1
 46 41 l 1
 46 43 l 1
49 43 m 1
 47 43 l 1
 47 41 l 1
 49 41 l 1
 49 43 l 1
49 39 m 1
 47 39 l 1
 47 37 l 1
 49 37 l 1
 49 39 l 1
55 43 m 1
 53 43 l 1
 53 41 l 1
 55 41 l 1
 55 43 l 1
55 39 m 1
 53 39 l 1
 53 37 l 1
 55 37 l 1
 55 39 l 1
58 43 m 1
 56 43 l 1
 56 41 l 1
 57 41 l 1
 57 42 l 1
 58 42 l 1
 58 43 l 1
60 43 m 1
 59 43 l 1
 59 42 l 1
 58 42 l 1
 58 41 l 1
 60 41 l 1
 60 43 l 1
63 43 m 1
 61 43 l 1
 61 41 l 1
 63 41 l 1
 63 43 l 1
43 35 m 1
 42 35 l 1
 42 33 l 1
 44 33 l 1
 44 34 l 1
 43 34 l 1
 43 35 l 1
46 35 m 1
 44 35 l 1
 44 34 l 1
 45 34 l 1
 45 33 l 1
 46 33 l 1
 46 35 l 1
49 35 m 1
 47 35 l 1
 47 33 l 1
 49 33 l 1
 49 35 l 1
49 31 m 1
 47 31 l 1
 47 29 l 1
 49 29 l 1
 49 31 l 1
55 35 m 1
 53 35 l 1
 53 33 l 1
 55 33 l 1
 55 35 l 1
44 27 m 1
 42 27 l 1
 42 25 l 1
 43 25 l 1
 43 26 l 1
 44 26 l 1
 44 27 l 1
46 27 m 1
 45 27 l 1
 45 26 l 1
 44 26 l 1
 44 25 l 1
 46 25 l 1
 46 27 l 1
49 27 m 1
 47 27 l 1
 47 25 l 1
 49 25 l 1
 49 27 l 1
55 27 m 1
 53 27 l 1
 53 25 l 1
 55 25 l 1
 55 27 l 1
57 35 m 1
 56 35 l 1
 56 33 l 1
 58 33 l 1
 58 34 l 1
 57 34 l 1
 57 35 l 1
60 35 m 1
 58 35 l 1
 58 34 l 1
 59 34 l 1
 59 33 l 1
 60 33 l 1
 60 35 l 1
63 35 m 1
 61 35 l 1
 61 33 l 1
 63 33 l 1
 63 35 l 1
63 31 m 1
 61 31 l 1
 61 29 l 1
 63 29 l 1
 63 31 l 1
58 27 m 1
 56 27 l 1
 56 25 l 1
 57 25 l 1
 57 26 l 1
 58 26 l 1
 58 27 l 1
60 27 m 1
 59 27 l 1
 59 26 l 1
 58 26 l 1
 58 25 l 1
 60 25 l 1
 60 27 l 1
63 27 m 1
 61 27 l 1
 61 25 l 1
 63 25 l 1
 63 27 l 1
EndSplineSet
EndChar

StartChar: custom_3_5_0_0_2
Encoding: 30470 30470 10502
Width: 70
Flags: H
LayerCount: 2
Fore
SplineSet
23 43 m 1
 21 43 l 1
 21 41 l 1
 23 41 l 1
 23 43 l 1
26 43 m 1
 24 43 l 1
 24 41 l 1
 25 41 l 1
 25 42 l 1
 26 42 l 1
 26 43 l 1
28 43 m 1
 27 43 l 1
 27 42 l 1
 26 42 l 1
 26 41 l 1
 28 41 l 1
 28 43 l 1
31 43 m 1
 29 43 l 1
 29 41 l 1
 31 41 l 1
 31 43 l 1
31 39 m 1
 29 39 l 1
 29 37 l 1
 31 37 l 1
 31 39 l 1
41 43 m 1
 39 43 l 1
 39 41 l 1
 41 41 l 1
 41 43 l 1
36 37 m 1
 34 37 l 1
 34 35 l 1
 36 35 l 1
 36 37 l 1
31 35 m 1
 29 35 l 1
 29 33 l 1
 31 33 l 1
 31 35 l 1
31 31 m 1
 29 31 l 1
 29 29 l 1
 31 29 l 1
 31 31 l 1
36 33 m 1
 34 33 l 1
 34 31 l 1
 36 31 l 1
 36 33 l 1
41 35 m 1
 39 35 l 1
 39 33 l 1
 41 33 l 1
 41 35 l 1
31 27 m 1
 29 27 l 1
 29 25 l 1
 31 25 l 1
 31 27 l 1
41 27 m 1
 39 27 l 1
 39 25 l 1
 41 25 l 1
 41 27 l 1
44 43 m 1
 42 43 l 1
 42 41 l 1
 43 41 l 1
 43 42 l 1
 44 42 l 1
 44 43 l 1
46 43 m 1
 45 43 l 1
 45 42 l 1
 44 42 l 1
 44 41 l 1
 46 41 l 1
 46 43 l 1
49 43 m 1
 47 43 l 1
 47 41 l 1
 49 41 l 1
 49 43 l 1
49 39 m 1
 47 39 l 1
 47 37 l 1
 49 37 l 1
 49 39 l 1
55 43 m 1
 53 43 l 1
 53 41 l 1
 55 41 l 1
 55 43 l 1
55 39 m 1
 53 39 l 1
 53 37 l 1
 55 37 l 1
 55 39 l 1
58 43 m 1
 56 43 l 1
 56 41 l 1
 57 41 l 1
 57 42 l 1
 58 42 l 1
 58 43 l 1
60 43 m 1
 59 43 l 1
 59 42 l 1
 58 42 l 1
 58 41 l 1
 60 41 l 1
 60 43 l 1
63 43 m 1
 61 43 l 1
 61 41 l 1
 63 41 l 1
 63 43 l 1
43 35 m 1
 42 35 l 1
 42 33 l 1
 44 33 l 1
 44 34 l 1
 43 34 l 1
 43 35 l 1
46 35 m 1
 44 35 l 1
 44 34 l 1
 45 34 l 1
 45 33 l 1
 46 33 l 1
 46 35 l 1
49 35 m 1
 47 35 l 1
 47 33 l 1
 49 33 l 1
 49 35 l 1
49 31 m 1
 47 31 l 1
 47 29 l 1
 49 29 l 1
 49 31 l 1
55 35 m 1
 53 35 l 1
 53 33 l 1
 55 33 l 1
 55 35 l 1
44 27 m 1
 42 27 l 1
 42 25 l 1
 43 25 l 1
 43 26 l 1
 44 26 l 1
 44 27 l 1
46 27 m 1
 45 27 l 1
 45 26 l 1
 44 26 l 1
 44 25 l 1
 46 25 l 1
 46 27 l 1
49 27 m 1
 47 27 l 1
 47 25 l 1
 49 25 l 1
 49 27 l 1
55 27 m 1
 53 27 l 1
 53 25 l 1
 55 25 l 1
 55 27 l 1
57 35 m 1
 56 35 l 1
 56 33 l 1
 58 33 l 1
 58 34 l 1
 57 34 l 1
 57 35 l 1
60 35 m 1
 58 35 l 1
 58 34 l 1
 59 34 l 1
 59 33 l 1
 60 33 l 1
 60 35 l 1
63 35 m 1
 61 35 l 1
 61 33 l 1
 63 33 l 1
 63 35 l 1
63 31 m 1
 61 31 l 1
 61 29 l 1
 63 29 l 1
 63 31 l 1
58 27 m 1
 56 27 l 1
 56 25 l 1
 57 25 l 1
 57 26 l 1
 58 26 l 1
 58 27 l 1
60 27 m 1
 59 27 l 1
 59 26 l 1
 58 26 l 1
 58 25 l 1
 60 25 l 1
 60 27 l 1
63 27 m 1
 61 27 l 1
 61 25 l 1
 63 25 l 1
 63 27 l 1
EndSplineSet
EndChar

StartChar: custom_3_5_0_0_3
Encoding: 30471 30471 10503
Width: 70
Flags: H
LayerCount: 2
Fore
SplineSet
23 43 m 1
 21 43 l 1
 21 41 l 1
 23 41 l 1
 23 43 l 1
26 43 m 1
 24 43 l 1
 24 41 l 1
 25 41 l 1
 25 42 l 1
 26 42 l 1
 26 43 l 1
28 43 m 1
 27 43 l 1
 27 42 l 1
 26 42 l 1
 26 41 l 1
 28 41 l 1
 28 43 l 1
31 43 m 1
 29 43 l 1
 29 41 l 1
 31 41 l 1
 31 43 l 1
31 39 m 1
 29 39 l 1
 29 37 l 1
 31 37 l 1
 31 39 l 1
41 43 m 1
 39 43 l 1
 39 41 l 1
 41 41 l 1
 41 43 l 1
36 37 m 1
 34 37 l 1
 34 35 l 1
 36 35 l 1
 36 37 l 1
31 35 m 1
 29 35 l 1
 29 33 l 1
 31 33 l 1
 31 35 l 1
31 31 m 1
 29 31 l 1
 29 29 l 1
 31 29 l 1
 31 31 l 1
36 33 m 1
 34 33 l 1
 34 31 l 1
 36 31 l 1
 36 33 l 1
41 35 m 1
 39 35 l 1
 39 33 l 1
 41 33 l 1
 41 35 l 1
31 27 m 1
 29 27 l 1
 29 25 l 1
 31 25 l 1
 31 27 l 1
41 27 m 1
 39 27 l 1
 39 25 l 1
 41 25 l 1
 41 27 l 1
44 43 m 1
 42 43 l 1
 42 41 l 1
 43 41 l 1
 43 42 l 1
 44 42 l 1
 44 43 l 1
46 43 m 1
 45 43 l 1
 45 42 l 1
 44 42 l 1
 44 41 l 1
 46 41 l 1
 46 43 l 1
49 43 m 1
 47 43 l 1
 47 41 l 1
 49 41 l 1
 49 43 l 1
49 39 m 1
 47 39 l 1
 47 37 l 1
 49 37 l 1
 49 39 l 1
55 43 m 1
 53 43 l 1
 53 41 l 1
 55 41 l 1
 55 43 l 1
55 39 m 1
 53 39 l 1
 53 37 l 1
 55 37 l 1
 55 39 l 1
58 43 m 1
 56 43 l 1
 56 41 l 1
 57 41 l 1
 57 42 l 1
 58 42 l 1
 58 43 l 1
60 43 m 1
 59 43 l 1
 59 42 l 1
 58 42 l 1
 58 41 l 1
 60 41 l 1
 60 43 l 1
63 43 m 1
 61 43 l 1
 61 41 l 1
 63 41 l 1
 63 43 l 1
43 35 m 1
 42 35 l 1
 42 33 l 1
 44 33 l 1
 44 34 l 1
 43 34 l 1
 43 35 l 1
46 35 m 1
 44 35 l 1
 44 34 l 1
 45 34 l 1
 45 33 l 1
 46 33 l 1
 46 35 l 1
49 35 m 1
 47 35 l 1
 47 33 l 1
 49 33 l 1
 49 35 l 1
49 31 m 1
 47 31 l 1
 47 29 l 1
 49 29 l 1
 49 31 l 1
55 35 m 1
 53 35 l 1
 53 33 l 1
 55 33 l 1
 55 35 l 1
44 27 m 1
 42 27 l 1
 42 25 l 1
 43 25 l 1
 43 26 l 1
 44 26 l 1
 44 27 l 1
46 27 m 1
 45 27 l 1
 45 26 l 1
 44 26 l 1
 44 25 l 1
 46 25 l 1
 46 27 l 1
49 27 m 1
 47 27 l 1
 47 25 l 1
 49 25 l 1
 49 27 l 1
55 27 m 1
 53 27 l 1
 53 25 l 1
 55 25 l 1
 55 27 l 1
57 35 m 1
 56 35 l 1
 56 33 l 1
 58 33 l 1
 58 34 l 1
 57 34 l 1
 57 35 l 1
60 35 m 1
 58 35 l 1
 58 34 l 1
 59 34 l 1
 59 33 l 1
 60 33 l 1
 60 35 l 1
63 35 m 1
 61 35 l 1
 61 33 l 1
 63 33 l 1
 63 35 l 1
63 31 m 1
 61 31 l 1
 61 29 l 1
 63 29 l 1
 63 31 l 1
58 27 m 1
 56 27 l 1
 56 25 l 1
 57 25 l 1
 57 26 l 1
 58 26 l 1
 58 27 l 1
60 27 m 1
 59 27 l 1
 59 26 l 1
 58 26 l 1
 58 25 l 1
 60 25 l 1
 60 27 l 1
63 27 m 1
 61 27 l 1
 61 25 l 1
 63 25 l 1
 63 27 l 1
EndSplineSet
EndChar

StartChar: custom_3_5_0_0_4
Encoding: 30472 30472 10504
Width: 70
Flags: H
LayerCount: 2
Fore
SplineSet
23 43 m 1
 21 43 l 1
 21 41 l 1
 23 41 l 1
 23 43 l 1
26 43 m 1
 24 43 l 1
 24 41 l 1
 25 41 l 1
 25 42 l 1
 26 42 l 1
 26 43 l 1
28 43 m 1
 27 43 l 1
 27 42 l 1
 26 42 l 1
 26 41 l 1
 28 41 l 1
 28 43 l 1
31 43 m 1
 29 43 l 1
 29 41 l 1
 31 41 l 1
 31 43 l 1
31 39 m 1
 29 39 l 1
 29 37 l 1
 31 37 l 1
 31 39 l 1
41 43 m 1
 39 43 l 1
 39 41 l 1
 41 41 l 1
 41 43 l 1
36 37 m 1
 34 37 l 1
 34 35 l 1
 36 35 l 1
 36 37 l 1
31 35 m 1
 29 35 l 1
 29 33 l 1
 31 33 l 1
 31 35 l 1
31 31 m 1
 29 31 l 1
 29 29 l 1
 31 29 l 1
 31 31 l 1
36 33 m 1
 34 33 l 1
 34 31 l 1
 36 31 l 1
 36 33 l 1
41 35 m 1
 39 35 l 1
 39 33 l 1
 41 33 l 1
 41 35 l 1
31 27 m 1
 29 27 l 1
 29 25 l 1
 31 25 l 1
 31 27 l 1
41 27 m 1
 39 27 l 1
 39 25 l 1
 41 25 l 1
 41 27 l 1
44 43 m 1
 42 43 l 1
 42 41 l 1
 43 41 l 1
 43 42 l 1
 44 42 l 1
 44 43 l 1
46 43 m 1
 45 43 l 1
 45 42 l 1
 44 42 l 1
 44 41 l 1
 46 41 l 1
 46 43 l 1
49 43 m 1
 47 43 l 1
 47 41 l 1
 49 41 l 1
 49 43 l 1
49 39 m 1
 47 39 l 1
 47 37 l 1
 49 37 l 1
 49 39 l 1
55 43 m 1
 53 43 l 1
 53 41 l 1
 55 41 l 1
 55 43 l 1
55 39 m 1
 53 39 l 1
 53 37 l 1
 55 37 l 1
 55 39 l 1
58 43 m 1
 56 43 l 1
 56 41 l 1
 57 41 l 1
 57 42 l 1
 58 42 l 1
 58 43 l 1
60 43 m 1
 59 43 l 1
 59 42 l 1
 58 42 l 1
 58 41 l 1
 60 41 l 1
 60 43 l 1
63 43 m 1
 61 43 l 1
 61 41 l 1
 63 41 l 1
 63 43 l 1
43 35 m 1
 42 35 l 1
 42 33 l 1
 44 33 l 1
 44 34 l 1
 43 34 l 1
 43 35 l 1
46 35 m 1
 44 35 l 1
 44 34 l 1
 45 34 l 1
 45 33 l 1
 46 33 l 1
 46 35 l 1
49 35 m 1
 47 35 l 1
 47 33 l 1
 49 33 l 1
 49 35 l 1
49 31 m 1
 47 31 l 1
 47 29 l 1
 49 29 l 1
 49 31 l 1
55 35 m 1
 53 35 l 1
 53 33 l 1
 55 33 l 1
 55 35 l 1
44 27 m 1
 42 27 l 1
 42 25 l 1
 43 25 l 1
 43 26 l 1
 44 26 l 1
 44 27 l 1
46 27 m 1
 45 27 l 1
 45 26 l 1
 44 26 l 1
 44 25 l 1
 46 25 l 1
 46 27 l 1
49 27 m 1
 47 27 l 1
 47 25 l 1
 49 25 l 1
 49 27 l 1
55 27 m 1
 53 27 l 1
 53 25 l 1
 55 25 l 1
 55 27 l 1
57 35 m 1
 56 35 l 1
 56 33 l 1
 58 33 l 1
 58 34 l 1
 57 34 l 1
 57 35 l 1
60 35 m 1
 58 35 l 1
 58 34 l 1
 59 34 l 1
 59 33 l 1
 60 33 l 1
 60 35 l 1
63 35 m 1
 61 35 l 1
 61 33 l 1
 63 33 l 1
 63 35 l 1
63 31 m 1
 61 31 l 1
 61 29 l 1
 63 29 l 1
 63 31 l 1
58 27 m 1
 56 27 l 1
 56 25 l 1
 57 25 l 1
 57 26 l 1
 58 26 l 1
 58 27 l 1
60 27 m 1
 59 27 l 1
 59 26 l 1
 58 26 l 1
 58 25 l 1
 60 25 l 1
 60 27 l 1
63 27 m 1
 61 27 l 1
 61 25 l 1
 63 25 l 1
 63 27 l 1
EndSplineSet
EndChar

StartChar: custom_3_5_0_0_5
Encoding: 30473 30473 10505
Width: 70
Flags: H
LayerCount: 2
Fore
SplineSet
23 43 m 1
 21 43 l 1
 21 41 l 1
 23 41 l 1
 23 43 l 1
26 43 m 1
 24 43 l 1
 24 41 l 1
 25 41 l 1
 25 42 l 1
 26 42 l 1
 26 43 l 1
28 43 m 1
 27 43 l 1
 27 42 l 1
 26 42 l 1
 26 41 l 1
 28 41 l 1
 28 43 l 1
31 43 m 1
 29 43 l 1
 29 41 l 1
 31 41 l 1
 31 43 l 1
31 39 m 1
 29 39 l 1
 29 37 l 1
 31 37 l 1
 31 39 l 1
41 43 m 1
 39 43 l 1
 39 41 l 1
 41 41 l 1
 41 43 l 1
36 37 m 1
 34 37 l 1
 34 35 l 1
 36 35 l 1
 36 37 l 1
31 35 m 1
 29 35 l 1
 29 33 l 1
 31 33 l 1
 31 35 l 1
31 31 m 1
 29 31 l 1
 29 29 l 1
 31 29 l 1
 31 31 l 1
36 33 m 1
 34 33 l 1
 34 31 l 1
 36 31 l 1
 36 33 l 1
41 35 m 1
 39 35 l 1
 39 33 l 1
 41 33 l 1
 41 35 l 1
31 27 m 1
 29 27 l 1
 29 25 l 1
 31 25 l 1
 31 27 l 1
41 27 m 1
 39 27 l 1
 39 25 l 1
 41 25 l 1
 41 27 l 1
44 43 m 1
 42 43 l 1
 42 41 l 1
 43 41 l 1
 43 42 l 1
 44 42 l 1
 44 43 l 1
46 43 m 1
 45 43 l 1
 45 42 l 1
 44 42 l 1
 44 41 l 1
 46 41 l 1
 46 43 l 1
49 43 m 1
 47 43 l 1
 47 41 l 1
 49 41 l 1
 49 43 l 1
49 39 m 1
 47 39 l 1
 47 37 l 1
 49 37 l 1
 49 39 l 1
55 43 m 1
 53 43 l 1
 53 41 l 1
 55 41 l 1
 55 43 l 1
55 39 m 1
 53 39 l 1
 53 37 l 1
 55 37 l 1
 55 39 l 1
58 43 m 1
 56 43 l 1
 56 41 l 1
 57 41 l 1
 57 42 l 1
 58 42 l 1
 58 43 l 1
60 43 m 1
 59 43 l 1
 59 42 l 1
 58 42 l 1
 58 41 l 1
 60 41 l 1
 60 43 l 1
63 43 m 1
 61 43 l 1
 61 41 l 1
 63 41 l 1
 63 43 l 1
43 35 m 1
 42 35 l 1
 42 33 l 1
 44 33 l 1
 44 34 l 1
 43 34 l 1
 43 35 l 1
46 35 m 1
 44 35 l 1
 44 34 l 1
 45 34 l 1
 45 33 l 1
 46 33 l 1
 46 35 l 1
49 35 m 1
 47 35 l 1
 47 33 l 1
 49 33 l 1
 49 35 l 1
49 31 m 1
 47 31 l 1
 47 29 l 1
 49 29 l 1
 49 31 l 1
55 35 m 1
 53 35 l 1
 53 33 l 1
 55 33 l 1
 55 35 l 1
44 27 m 1
 42 27 l 1
 42 25 l 1
 43 25 l 1
 43 26 l 1
 44 26 l 1
 44 27 l 1
46 27 m 1
 45 27 l 1
 45 26 l 1
 44 26 l 1
 44 25 l 1
 46 25 l 1
 46 27 l 1
49 27 m 1
 47 27 l 1
 47 25 l 1
 49 25 l 1
 49 27 l 1
55 27 m 1
 53 27 l 1
 53 25 l 1
 55 25 l 1
 55 27 l 1
57 35 m 1
 56 35 l 1
 56 33 l 1
 58 33 l 1
 58 34 l 1
 57 34 l 1
 57 35 l 1
60 35 m 1
 58 35 l 1
 58 34 l 1
 59 34 l 1
 59 33 l 1
 60 33 l 1
 60 35 l 1
63 35 m 1
 61 35 l 1
 61 33 l 1
 63 33 l 1
 63 35 l 1
63 31 m 1
 61 31 l 1
 61 29 l 1
 63 29 l 1
 63 31 l 1
58 27 m 1
 56 27 l 1
 56 25 l 1
 57 25 l 1
 57 26 l 1
 58 26 l 1
 58 27 l 1
60 27 m 1
 59 27 l 1
 59 26 l 1
 58 26 l 1
 58 25 l 1
 60 25 l 1
 60 27 l 1
63 27 m 1
 61 27 l 1
 61 25 l 1
 63 25 l 1
 63 27 l 1
EndSplineSet
EndChar

StartChar: custom_3_5_0_0_6
Encoding: 30474 30474 10506
Width: 70
Flags: H
LayerCount: 2
Fore
SplineSet
23 43 m 1
 21 43 l 1
 21 41 l 1
 23 41 l 1
 23 43 l 1
26 43 m 1
 24 43 l 1
 24 41 l 1
 25 41 l 1
 25 42 l 1
 26 42 l 1
 26 43 l 1
28 43 m 1
 27 43 l 1
 27 42 l 1
 26 42 l 1
 26 41 l 1
 28 41 l 1
 28 43 l 1
31 43 m 1
 29 43 l 1
 29 41 l 1
 31 41 l 1
 31 43 l 1
31 39 m 1
 29 39 l 1
 29 37 l 1
 31 37 l 1
 31 39 l 1
41 43 m 1
 39 43 l 1
 39 41 l 1
 41 41 l 1
 41 43 l 1
36 37 m 1
 34 37 l 1
 34 35 l 1
 36 35 l 1
 36 37 l 1
31 35 m 1
 29 35 l 1
 29 33 l 1
 31 33 l 1
 31 35 l 1
31 31 m 1
 29 31 l 1
 29 29 l 1
 31 29 l 1
 31 31 l 1
36 33 m 1
 34 33 l 1
 34 31 l 1
 36 31 l 1
 36 33 l 1
41 35 m 1
 39 35 l 1
 39 33 l 1
 41 33 l 1
 41 35 l 1
31 27 m 1
 29 27 l 1
 29 25 l 1
 31 25 l 1
 31 27 l 1
41 27 m 1
 39 27 l 1
 39 25 l 1
 41 25 l 1
 41 27 l 1
44 43 m 1
 42 43 l 1
 42 41 l 1
 43 41 l 1
 43 42 l 1
 44 42 l 1
 44 43 l 1
46 43 m 1
 45 43 l 1
 45 42 l 1
 44 42 l 1
 44 41 l 1
 46 41 l 1
 46 43 l 1
49 43 m 1
 47 43 l 1
 47 41 l 1
 49 41 l 1
 49 43 l 1
49 39 m 1
 47 39 l 1
 47 37 l 1
 49 37 l 1
 49 39 l 1
55 43 m 1
 53 43 l 1
 53 41 l 1
 55 41 l 1
 55 43 l 1
55 39 m 1
 53 39 l 1
 53 37 l 1
 55 37 l 1
 55 39 l 1
58 43 m 1
 56 43 l 1
 56 41 l 1
 57 41 l 1
 57 42 l 1
 58 42 l 1
 58 43 l 1
60 43 m 1
 59 43 l 1
 59 42 l 1
 58 42 l 1
 58 41 l 1
 60 41 l 1
 60 43 l 1
63 43 m 1
 61 43 l 1
 61 41 l 1
 63 41 l 1
 63 43 l 1
43 35 m 1
 42 35 l 1
 42 33 l 1
 44 33 l 1
 44 34 l 1
 43 34 l 1
 43 35 l 1
46 35 m 1
 44 35 l 1
 44 34 l 1
 45 34 l 1
 45 33 l 1
 46 33 l 1
 46 35 l 1
49 35 m 1
 47 35 l 1
 47 33 l 1
 49 33 l 1
 49 35 l 1
49 31 m 1
 47 31 l 1
 47 29 l 1
 49 29 l 1
 49 31 l 1
55 35 m 1
 53 35 l 1
 53 33 l 1
 55 33 l 1
 55 35 l 1
44 27 m 1
 42 27 l 1
 42 25 l 1
 43 25 l 1
 43 26 l 1
 44 26 l 1
 44 27 l 1
46 27 m 1
 45 27 l 1
 45 26 l 1
 44 26 l 1
 44 25 l 1
 46 25 l 1
 46 27 l 1
49 27 m 1
 47 27 l 1
 47 25 l 1
 49 25 l 1
 49 27 l 1
55 27 m 1
 53 27 l 1
 53 25 l 1
 55 25 l 1
 55 27 l 1
57 35 m 1
 56 35 l 1
 56 33 l 1
 58 33 l 1
 58 34 l 1
 57 34 l 1
 57 35 l 1
60 35 m 1
 58 35 l 1
 58 34 l 1
 59 34 l 1
 59 33 l 1
 60 33 l 1
 60 35 l 1
63 35 m 1
 61 35 l 1
 61 33 l 1
 63 33 l 1
 63 35 l 1
63 31 m 1
 61 31 l 1
 61 29 l 1
 63 29 l 1
 63 31 l 1
58 27 m 1
 56 27 l 1
 56 25 l 1
 57 25 l 1
 57 26 l 1
 58 26 l 1
 58 27 l 1
60 27 m 1
 59 27 l 1
 59 26 l 1
 58 26 l 1
 58 25 l 1
 60 25 l 1
 60 27 l 1
63 27 m 1
 61 27 l 1
 61 25 l 1
 63 25 l 1
 63 27 l 1
EndSplineSet
EndChar

StartChar: custom_3_5_0_0_7
Encoding: 30475 30475 10507
Width: 70
Flags: H
LayerCount: 2
Fore
SplineSet
23 43 m 1
 21 43 l 1
 21 41 l 1
 23 41 l 1
 23 43 l 1
26 43 m 1
 24 43 l 1
 24 41 l 1
 25 41 l 1
 25 42 l 1
 26 42 l 1
 26 43 l 1
28 43 m 1
 27 43 l 1
 27 42 l 1
 26 42 l 1
 26 41 l 1
 28 41 l 1
 28 43 l 1
31 43 m 1
 29 43 l 1
 29 41 l 1
 31 41 l 1
 31 43 l 1
31 39 m 1
 29 39 l 1
 29 37 l 1
 31 37 l 1
 31 39 l 1
41 43 m 1
 39 43 l 1
 39 41 l 1
 41 41 l 1
 41 43 l 1
36 37 m 1
 34 37 l 1
 34 35 l 1
 36 35 l 1
 36 37 l 1
31 35 m 1
 29 35 l 1
 29 33 l 1
 31 33 l 1
 31 35 l 1
31 31 m 1
 29 31 l 1
 29 29 l 1
 31 29 l 1
 31 31 l 1
36 33 m 1
 34 33 l 1
 34 31 l 1
 36 31 l 1
 36 33 l 1
41 35 m 1
 39 35 l 1
 39 33 l 1
 41 33 l 1
 41 35 l 1
31 27 m 1
 29 27 l 1
 29 25 l 1
 31 25 l 1
 31 27 l 1
41 27 m 1
 39 27 l 1
 39 25 l 1
 41 25 l 1
 41 27 l 1
44 43 m 1
 42 43 l 1
 42 41 l 1
 43 41 l 1
 43 42 l 1
 44 42 l 1
 44 43 l 1
46 43 m 1
 45 43 l 1
 45 42 l 1
 44 42 l 1
 44 41 l 1
 46 41 l 1
 46 43 l 1
49 43 m 1
 47 43 l 1
 47 41 l 1
 49 41 l 1
 49 43 l 1
49 39 m 1
 47 39 l 1
 47 37 l 1
 49 37 l 1
 49 39 l 1
55 43 m 1
 53 43 l 1
 53 41 l 1
 55 41 l 1
 55 43 l 1
55 39 m 1
 53 39 l 1
 53 37 l 1
 55 37 l 1
 55 39 l 1
58 43 m 1
 56 43 l 1
 56 41 l 1
 57 41 l 1
 57 42 l 1
 58 42 l 1
 58 43 l 1
60 43 m 1
 59 43 l 1
 59 42 l 1
 58 42 l 1
 58 41 l 1
 60 41 l 1
 60 43 l 1
63 43 m 1
 61 43 l 1
 61 41 l 1
 63 41 l 1
 63 43 l 1
43 35 m 1
 42 35 l 1
 42 33 l 1
 44 33 l 1
 44 34 l 1
 43 34 l 1
 43 35 l 1
46 35 m 1
 44 35 l 1
 44 34 l 1
 45 34 l 1
 45 33 l 1
 46 33 l 1
 46 35 l 1
49 35 m 1
 47 35 l 1
 47 33 l 1
 49 33 l 1
 49 35 l 1
49 31 m 1
 47 31 l 1
 47 29 l 1
 49 29 l 1
 49 31 l 1
55 35 m 1
 53 35 l 1
 53 33 l 1
 55 33 l 1
 55 35 l 1
44 27 m 1
 42 27 l 1
 42 25 l 1
 43 25 l 1
 43 26 l 1
 44 26 l 1
 44 27 l 1
46 27 m 1
 45 27 l 1
 45 26 l 1
 44 26 l 1
 44 25 l 1
 46 25 l 1
 46 27 l 1
49 27 m 1
 47 27 l 1
 47 25 l 1
 49 25 l 1
 49 27 l 1
55 27 m 1
 53 27 l 1
 53 25 l 1
 55 25 l 1
 55 27 l 1
57 35 m 1
 56 35 l 1
 56 33 l 1
 58 33 l 1
 58 34 l 1
 57 34 l 1
 57 35 l 1
60 35 m 1
 58 35 l 1
 58 34 l 1
 59 34 l 1
 59 33 l 1
 60 33 l 1
 60 35 l 1
63 35 m 1
 61 35 l 1
 61 33 l 1
 63 33 l 1
 63 35 l 1
63 31 m 1
 61 31 l 1
 61 29 l 1
 63 29 l 1
 63 31 l 1
58 27 m 1
 56 27 l 1
 56 25 l 1
 57 25 l 1
 57 26 l 1
 58 26 l 1
 58 27 l 1
60 27 m 1
 59 27 l 1
 59 26 l 1
 58 26 l 1
 58 25 l 1
 60 25 l 1
 60 27 l 1
63 27 m 1
 61 27 l 1
 61 25 l 1
 63 25 l 1
 63 27 l 1
EndSplineSet
EndChar

StartChar: custom_3_5_0_0_8
Encoding: 30476 30476 10508
Width: 70
Flags: H
LayerCount: 2
Fore
SplineSet
23 43 m 1
 21 43 l 1
 21 41 l 1
 23 41 l 1
 23 43 l 1
26 43 m 1
 24 43 l 1
 24 41 l 1
 25 41 l 1
 25 42 l 1
 26 42 l 1
 26 43 l 1
28 43 m 1
 27 43 l 1
 27 42 l 1
 26 42 l 1
 26 41 l 1
 28 41 l 1
 28 43 l 1
31 43 m 1
 29 43 l 1
 29 41 l 1
 31 41 l 1
 31 43 l 1
31 39 m 1
 29 39 l 1
 29 37 l 1
 31 37 l 1
 31 39 l 1
41 43 m 1
 39 43 l 1
 39 41 l 1
 41 41 l 1
 41 43 l 1
36 37 m 1
 34 37 l 1
 34 35 l 1
 36 35 l 1
 36 37 l 1
31 35 m 1
 29 35 l 1
 29 33 l 1
 31 33 l 1
 31 35 l 1
31 31 m 1
 29 31 l 1
 29 29 l 1
 31 29 l 1
 31 31 l 1
36 33 m 1
 34 33 l 1
 34 31 l 1
 36 31 l 1
 36 33 l 1
41 35 m 1
 39 35 l 1
 39 33 l 1
 41 33 l 1
 41 35 l 1
31 27 m 1
 29 27 l 1
 29 25 l 1
 31 25 l 1
 31 27 l 1
41 27 m 1
 39 27 l 1
 39 25 l 1
 41 25 l 1
 41 27 l 1
44 43 m 1
 42 43 l 1
 42 41 l 1
 43 41 l 1
 43 42 l 1
 44 42 l 1
 44 43 l 1
46 43 m 1
 45 43 l 1
 45 42 l 1
 44 42 l 1
 44 41 l 1
 46 41 l 1
 46 43 l 1
49 43 m 1
 47 43 l 1
 47 41 l 1
 49 41 l 1
 49 43 l 1
49 39 m 1
 47 39 l 1
 47 37 l 1
 49 37 l 1
 49 39 l 1
55 43 m 1
 53 43 l 1
 53 41 l 1
 55 41 l 1
 55 43 l 1
55 39 m 1
 53 39 l 1
 53 37 l 1
 55 37 l 1
 55 39 l 1
58 43 m 1
 56 43 l 1
 56 41 l 1
 57 41 l 1
 57 42 l 1
 58 42 l 1
 58 43 l 1
60 43 m 1
 59 43 l 1
 59 42 l 1
 58 42 l 1
 58 41 l 1
 60 41 l 1
 60 43 l 1
63 43 m 1
 61 43 l 1
 61 41 l 1
 63 41 l 1
 63 43 l 1
43 35 m 1
 42 35 l 1
 42 33 l 1
 44 33 l 1
 44 34 l 1
 43 34 l 1
 43 35 l 1
46 35 m 1
 44 35 l 1
 44 34 l 1
 45 34 l 1
 45 33 l 1
 46 33 l 1
 46 35 l 1
49 35 m 1
 47 35 l 1
 47 33 l 1
 49 33 l 1
 49 35 l 1
49 31 m 1
 47 31 l 1
 47 29 l 1
 49 29 l 1
 49 31 l 1
55 35 m 1
 53 35 l 1
 53 33 l 1
 55 33 l 1
 55 35 l 1
44 27 m 1
 42 27 l 1
 42 25 l 1
 43 25 l 1
 43 26 l 1
 44 26 l 1
 44 27 l 1
46 27 m 1
 45 27 l 1
 45 26 l 1
 44 26 l 1
 44 25 l 1
 46 25 l 1
 46 27 l 1
49 27 m 1
 47 27 l 1
 47 25 l 1
 49 25 l 1
 49 27 l 1
55 27 m 1
 53 27 l 1
 53 25 l 1
 55 25 l 1
 55 27 l 1
57 35 m 1
 56 35 l 1
 56 33 l 1
 58 33 l 1
 58 34 l 1
 57 34 l 1
 57 35 l 1
60 35 m 1
 58 35 l 1
 58 34 l 1
 59 34 l 1
 59 33 l 1
 60 33 l 1
 60 35 l 1
63 35 m 1
 61 35 l 1
 61 33 l 1
 63 33 l 1
 63 35 l 1
63 31 m 1
 61 31 l 1
 61 29 l 1
 63 29 l 1
 63 31 l 1
58 27 m 1
 56 27 l 1
 56 25 l 1
 57 25 l 1
 57 26 l 1
 58 26 l 1
 58 27 l 1
60 27 m 1
 59 27 l 1
 59 26 l 1
 58 26 l 1
 58 25 l 1
 60 25 l 1
 60 27 l 1
63 27 m 1
 61 27 l 1
 61 25 l 1
 63 25 l 1
 63 27 l 1
EndSplineSet
EndChar

StartChar: custom_3_5_0_0_9
Encoding: 30477 30477 10509
Width: 70
Flags: H
LayerCount: 2
Fore
SplineSet
23 43 m 1
 21 43 l 1
 21 41 l 1
 23 41 l 1
 23 43 l 1
26 43 m 1
 24 43 l 1
 24 41 l 1
 25 41 l 1
 25 42 l 1
 26 42 l 1
 26 43 l 1
28 43 m 1
 27 43 l 1
 27 42 l 1
 26 42 l 1
 26 41 l 1
 28 41 l 1
 28 43 l 1
31 43 m 1
 29 43 l 1
 29 41 l 1
 31 41 l 1
 31 43 l 1
31 39 m 1
 29 39 l 1
 29 37 l 1
 31 37 l 1
 31 39 l 1
41 43 m 1
 39 43 l 1
 39 41 l 1
 41 41 l 1
 41 43 l 1
36 37 m 1
 34 37 l 1
 34 35 l 1
 36 35 l 1
 36 37 l 1
31 35 m 1
 29 35 l 1
 29 33 l 1
 31 33 l 1
 31 35 l 1
31 31 m 1
 29 31 l 1
 29 29 l 1
 31 29 l 1
 31 31 l 1
36 33 m 1
 34 33 l 1
 34 31 l 1
 36 31 l 1
 36 33 l 1
41 35 m 1
 39 35 l 1
 39 33 l 1
 41 33 l 1
 41 35 l 1
31 27 m 1
 29 27 l 1
 29 25 l 1
 31 25 l 1
 31 27 l 1
41 27 m 1
 39 27 l 1
 39 25 l 1
 41 25 l 1
 41 27 l 1
44 43 m 1
 42 43 l 1
 42 41 l 1
 43 41 l 1
 43 42 l 1
 44 42 l 1
 44 43 l 1
46 43 m 1
 45 43 l 1
 45 42 l 1
 44 42 l 1
 44 41 l 1
 46 41 l 1
 46 43 l 1
49 43 m 1
 47 43 l 1
 47 41 l 1
 49 41 l 1
 49 43 l 1
49 39 m 1
 47 39 l 1
 47 37 l 1
 49 37 l 1
 49 39 l 1
55 43 m 1
 53 43 l 1
 53 41 l 1
 55 41 l 1
 55 43 l 1
55 39 m 1
 53 39 l 1
 53 37 l 1
 55 37 l 1
 55 39 l 1
58 43 m 1
 56 43 l 1
 56 41 l 1
 57 41 l 1
 57 42 l 1
 58 42 l 1
 58 43 l 1
60 43 m 1
 59 43 l 1
 59 42 l 1
 58 42 l 1
 58 41 l 1
 60 41 l 1
 60 43 l 1
63 43 m 1
 61 43 l 1
 61 41 l 1
 63 41 l 1
 63 43 l 1
43 35 m 1
 42 35 l 1
 42 33 l 1
 44 33 l 1
 44 34 l 1
 43 34 l 1
 43 35 l 1
46 35 m 1
 44 35 l 1
 44 34 l 1
 45 34 l 1
 45 33 l 1
 46 33 l 1
 46 35 l 1
49 35 m 1
 47 35 l 1
 47 33 l 1
 49 33 l 1
 49 35 l 1
49 31 m 1
 47 31 l 1
 47 29 l 1
 49 29 l 1
 49 31 l 1
55 35 m 1
 53 35 l 1
 53 33 l 1
 55 33 l 1
 55 35 l 1
44 27 m 1
 42 27 l 1
 42 25 l 1
 43 25 l 1
 43 26 l 1
 44 26 l 1
 44 27 l 1
46 27 m 1
 45 27 l 1
 45 26 l 1
 44 26 l 1
 44 25 l 1
 46 25 l 1
 46 27 l 1
49 27 m 1
 47 27 l 1
 47 25 l 1
 49 25 l 1
 49 27 l 1
55 27 m 1
 53 27 l 1
 53 25 l 1
 55 25 l 1
 55 27 l 1
57 35 m 1
 56 35 l 1
 56 33 l 1
 58 33 l 1
 58 34 l 1
 57 34 l 1
 57 35 l 1
60 35 m 1
 58 35 l 1
 58 34 l 1
 59 34 l 1
 59 33 l 1
 60 33 l 1
 60 35 l 1
63 35 m 1
 61 35 l 1
 61 33 l 1
 63 33 l 1
 63 35 l 1
63 31 m 1
 61 31 l 1
 61 29 l 1
 63 29 l 1
 63 31 l 1
58 27 m 1
 56 27 l 1
 56 25 l 1
 57 25 l 1
 57 26 l 1
 58 26 l 1
 58 27 l 1
60 27 m 1
 59 27 l 1
 59 26 l 1
 58 26 l 1
 58 25 l 1
 60 25 l 1
 60 27 l 1
63 27 m 1
 61 27 l 1
 61 25 l 1
 63 25 l 1
 63 27 l 1
EndSplineSet
EndChar

StartChar: custom_3_5_0_1_0
Encoding: 30478 30478 10510
Width: 70
Flags: H
LayerCount: 2
Fore
SplineSet
23 43 m 1
 21 43 l 1
 21 41 l 1
 23 41 l 1
 23 43 l 1
26 43 m 1
 24 43 l 1
 24 41 l 1
 25 41 l 1
 25 42 l 1
 26 42 l 1
 26 43 l 1
28 43 m 1
 27 43 l 1
 27 42 l 1
 26 42 l 1
 26 41 l 1
 28 41 l 1
 28 43 l 1
31 43 m 1
 29 43 l 1
 29 41 l 1
 31 41 l 1
 31 43 l 1
31 39 m 1
 29 39 l 1
 29 37 l 1
 31 37 l 1
 31 39 l 1
41 43 m 1
 39 43 l 1
 39 41 l 1
 41 41 l 1
 41 43 l 1
36 37 m 1
 34 37 l 1
 34 35 l 1
 36 35 l 1
 36 37 l 1
31 35 m 1
 29 35 l 1
 29 33 l 1
 31 33 l 1
 31 35 l 1
31 31 m 1
 29 31 l 1
 29 29 l 1
 31 29 l 1
 31 31 l 1
36 33 m 1
 34 33 l 1
 34 31 l 1
 36 31 l 1
 36 33 l 1
41 35 m 1
 39 35 l 1
 39 33 l 1
 41 33 l 1
 41 35 l 1
31 27 m 1
 29 27 l 1
 29 25 l 1
 31 25 l 1
 31 27 l 1
41 27 m 1
 39 27 l 1
 39 25 l 1
 41 25 l 1
 41 27 l 1
44 43 m 1
 42 43 l 1
 42 41 l 1
 43 41 l 1
 43 42 l 1
 44 42 l 1
 44 43 l 1
46 43 m 1
 45 43 l 1
 45 42 l 1
 44 42 l 1
 44 41 l 1
 46 41 l 1
 46 43 l 1
49 43 m 1
 47 43 l 1
 47 41 l 1
 49 41 l 1
 49 43 l 1
49 39 m 1
 47 39 l 1
 47 37 l 1
 49 37 l 1
 49 39 l 1
55 43 m 1
 53 43 l 1
 53 41 l 1
 55 41 l 1
 55 43 l 1
55 39 m 1
 53 39 l 1
 53 37 l 1
 55 37 l 1
 55 39 l 1
58 43 m 1
 56 43 l 1
 56 41 l 1
 57 41 l 1
 57 42 l 1
 58 42 l 1
 58 43 l 1
60 43 m 1
 59 43 l 1
 59 42 l 1
 58 42 l 1
 58 41 l 1
 60 41 l 1
 60 43 l 1
63 43 m 1
 61 43 l 1
 61 41 l 1
 63 41 l 1
 63 43 l 1
43 35 m 1
 42 35 l 1
 42 33 l 1
 44 33 l 1
 44 34 l 1
 43 34 l 1
 43 35 l 1
46 35 m 1
 44 35 l 1
 44 34 l 1
 45 34 l 1
 45 33 l 1
 46 33 l 1
 46 35 l 1
49 35 m 1
 47 35 l 1
 47 33 l 1
 49 33 l 1
 49 35 l 1
49 31 m 1
 47 31 l 1
 47 29 l 1
 49 29 l 1
 49 31 l 1
55 35 m 1
 53 35 l 1
 53 33 l 1
 55 33 l 1
 55 35 l 1
44 27 m 1
 42 27 l 1
 42 25 l 1
 43 25 l 1
 43 26 l 1
 44 26 l 1
 44 27 l 1
46 27 m 1
 45 27 l 1
 45 26 l 1
 44 26 l 1
 44 25 l 1
 46 25 l 1
 46 27 l 1
49 27 m 1
 47 27 l 1
 47 25 l 1
 49 25 l 1
 49 27 l 1
55 27 m 1
 53 27 l 1
 53 25 l 1
 55 25 l 1
 55 27 l 1
57 35 m 1
 56 35 l 1
 56 33 l 1
 58 33 l 1
 58 34 l 1
 57 34 l 1
 57 35 l 1
60 35 m 1
 58 35 l 1
 58 34 l 1
 59 34 l 1
 59 33 l 1
 60 33 l 1
 60 35 l 1
63 35 m 1
 61 35 l 1
 61 33 l 1
 63 33 l 1
 63 35 l 1
63 31 m 1
 61 31 l 1
 61 29 l 1
 63 29 l 1
 63 31 l 1
58 27 m 1
 56 27 l 1
 56 25 l 1
 57 25 l 1
 57 26 l 1
 58 26 l 1
 58 27 l 1
60 27 m 1
 59 27 l 1
 59 26 l 1
 58 26 l 1
 58 25 l 1
 60 25 l 1
 60 27 l 1
63 27 m 1
 61 27 l 1
 61 25 l 1
 63 25 l 1
 63 27 l 1
EndSplineSet
EndChar

StartChar: custom_3_5_0_1_1
Encoding: 30479 30479 10511
Width: 70
Flags: H
LayerCount: 2
Fore
SplineSet
23 43 m 1
 21 43 l 1
 21 41 l 1
 23 41 l 1
 23 43 l 1
26 43 m 1
 24 43 l 1
 24 41 l 1
 25 41 l 1
 25 42 l 1
 26 42 l 1
 26 43 l 1
28 43 m 1
 27 43 l 1
 27 42 l 1
 26 42 l 1
 26 41 l 1
 28 41 l 1
 28 43 l 1
31 43 m 1
 29 43 l 1
 29 41 l 1
 31 41 l 1
 31 43 l 1
31 39 m 1
 29 39 l 1
 29 37 l 1
 31 37 l 1
 31 39 l 1
41 43 m 1
 39 43 l 1
 39 41 l 1
 41 41 l 1
 41 43 l 1
36 37 m 1
 34 37 l 1
 34 35 l 1
 36 35 l 1
 36 37 l 1
31 35 m 1
 29 35 l 1
 29 33 l 1
 31 33 l 1
 31 35 l 1
31 31 m 1
 29 31 l 1
 29 29 l 1
 31 29 l 1
 31 31 l 1
36 33 m 1
 34 33 l 1
 34 31 l 1
 36 31 l 1
 36 33 l 1
41 35 m 1
 39 35 l 1
 39 33 l 1
 41 33 l 1
 41 35 l 1
31 27 m 1
 29 27 l 1
 29 25 l 1
 31 25 l 1
 31 27 l 1
41 27 m 1
 39 27 l 1
 39 25 l 1
 41 25 l 1
 41 27 l 1
44 43 m 1
 42 43 l 1
 42 41 l 1
 43 41 l 1
 43 42 l 1
 44 42 l 1
 44 43 l 1
46 43 m 1
 45 43 l 1
 45 42 l 1
 44 42 l 1
 44 41 l 1
 46 41 l 1
 46 43 l 1
49 43 m 1
 47 43 l 1
 47 41 l 1
 49 41 l 1
 49 43 l 1
49 39 m 1
 47 39 l 1
 47 37 l 1
 49 37 l 1
 49 39 l 1
55 43 m 1
 53 43 l 1
 53 41 l 1
 55 41 l 1
 55 43 l 1
55 39 m 1
 53 39 l 1
 53 37 l 1
 55 37 l 1
 55 39 l 1
58 43 m 1
 56 43 l 1
 56 41 l 1
 57 41 l 1
 57 42 l 1
 58 42 l 1
 58 43 l 1
60 43 m 1
 59 43 l 1
 59 42 l 1
 58 42 l 1
 58 41 l 1
 60 41 l 1
 60 43 l 1
63 43 m 1
 61 43 l 1
 61 41 l 1
 63 41 l 1
 63 43 l 1
43 35 m 1
 42 35 l 1
 42 33 l 1
 44 33 l 1
 44 34 l 1
 43 34 l 1
 43 35 l 1
46 35 m 1
 44 35 l 1
 44 34 l 1
 45 34 l 1
 45 33 l 1
 46 33 l 1
 46 35 l 1
49 35 m 1
 47 35 l 1
 47 33 l 1
 49 33 l 1
 49 35 l 1
49 31 m 1
 47 31 l 1
 47 29 l 1
 49 29 l 1
 49 31 l 1
55 35 m 1
 53 35 l 1
 53 33 l 1
 55 33 l 1
 55 35 l 1
44 27 m 1
 42 27 l 1
 42 25 l 1
 43 25 l 1
 43 26 l 1
 44 26 l 1
 44 27 l 1
46 27 m 1
 45 27 l 1
 45 26 l 1
 44 26 l 1
 44 25 l 1
 46 25 l 1
 46 27 l 1
49 27 m 1
 47 27 l 1
 47 25 l 1
 49 25 l 1
 49 27 l 1
55 27 m 1
 53 27 l 1
 53 25 l 1
 55 25 l 1
 55 27 l 1
57 35 m 1
 56 35 l 1
 56 33 l 1
 58 33 l 1
 58 34 l 1
 57 34 l 1
 57 35 l 1
60 35 m 1
 58 35 l 1
 58 34 l 1
 59 34 l 1
 59 33 l 1
 60 33 l 1
 60 35 l 1
63 35 m 1
 61 35 l 1
 61 33 l 1
 63 33 l 1
 63 35 l 1
63 31 m 1
 61 31 l 1
 61 29 l 1
 63 29 l 1
 63 31 l 1
58 27 m 1
 56 27 l 1
 56 25 l 1
 57 25 l 1
 57 26 l 1
 58 26 l 1
 58 27 l 1
60 27 m 1
 59 27 l 1
 59 26 l 1
 58 26 l 1
 58 25 l 1
 60 25 l 1
 60 27 l 1
63 27 m 1
 61 27 l 1
 61 25 l 1
 63 25 l 1
 63 27 l 1
EndSplineSet
EndChar

StartChar: custom_3_5_0_1_2
Encoding: 30480 30480 10512
Width: 70
Flags: H
LayerCount: 2
Fore
SplineSet
23 43 m 1
 21 43 l 1
 21 41 l 1
 23 41 l 1
 23 43 l 1
26 43 m 1
 24 43 l 1
 24 41 l 1
 25 41 l 1
 25 42 l 1
 26 42 l 1
 26 43 l 1
28 43 m 1
 27 43 l 1
 27 42 l 1
 26 42 l 1
 26 41 l 1
 28 41 l 1
 28 43 l 1
31 43 m 1
 29 43 l 1
 29 41 l 1
 31 41 l 1
 31 43 l 1
31 39 m 1
 29 39 l 1
 29 37 l 1
 31 37 l 1
 31 39 l 1
41 43 m 1
 39 43 l 1
 39 41 l 1
 41 41 l 1
 41 43 l 1
36 37 m 1
 34 37 l 1
 34 35 l 1
 36 35 l 1
 36 37 l 1
31 35 m 1
 29 35 l 1
 29 33 l 1
 31 33 l 1
 31 35 l 1
31 31 m 1
 29 31 l 1
 29 29 l 1
 31 29 l 1
 31 31 l 1
36 33 m 1
 34 33 l 1
 34 31 l 1
 36 31 l 1
 36 33 l 1
41 35 m 1
 39 35 l 1
 39 33 l 1
 41 33 l 1
 41 35 l 1
31 27 m 1
 29 27 l 1
 29 25 l 1
 31 25 l 1
 31 27 l 1
41 27 m 1
 39 27 l 1
 39 25 l 1
 41 25 l 1
 41 27 l 1
44 43 m 1
 42 43 l 1
 42 41 l 1
 43 41 l 1
 43 42 l 1
 44 42 l 1
 44 43 l 1
46 43 m 1
 45 43 l 1
 45 42 l 1
 44 42 l 1
 44 41 l 1
 46 41 l 1
 46 43 l 1
49 43 m 1
 47 43 l 1
 47 41 l 1
 49 41 l 1
 49 43 l 1
49 39 m 1
 47 39 l 1
 47 37 l 1
 49 37 l 1
 49 39 l 1
55 43 m 1
 53 43 l 1
 53 41 l 1
 55 41 l 1
 55 43 l 1
55 39 m 1
 53 39 l 1
 53 37 l 1
 55 37 l 1
 55 39 l 1
58 43 m 1
 56 43 l 1
 56 41 l 1
 57 41 l 1
 57 42 l 1
 58 42 l 1
 58 43 l 1
60 43 m 1
 59 43 l 1
 59 42 l 1
 58 42 l 1
 58 41 l 1
 60 41 l 1
 60 43 l 1
63 43 m 1
 61 43 l 1
 61 41 l 1
 63 41 l 1
 63 43 l 1
43 35 m 1
 42 35 l 1
 42 33 l 1
 44 33 l 1
 44 34 l 1
 43 34 l 1
 43 35 l 1
46 35 m 1
 44 35 l 1
 44 34 l 1
 45 34 l 1
 45 33 l 1
 46 33 l 1
 46 35 l 1
49 35 m 1
 47 35 l 1
 47 33 l 1
 49 33 l 1
 49 35 l 1
49 31 m 1
 47 31 l 1
 47 29 l 1
 49 29 l 1
 49 31 l 1
55 35 m 1
 53 35 l 1
 53 33 l 1
 55 33 l 1
 55 35 l 1
44 27 m 1
 42 27 l 1
 42 25 l 1
 43 25 l 1
 43 26 l 1
 44 26 l 1
 44 27 l 1
46 27 m 1
 45 27 l 1
 45 26 l 1
 44 26 l 1
 44 25 l 1
 46 25 l 1
 46 27 l 1
49 27 m 1
 47 27 l 1
 47 25 l 1
 49 25 l 1
 49 27 l 1
55 27 m 1
 53 27 l 1
 53 25 l 1
 55 25 l 1
 55 27 l 1
57 35 m 1
 56 35 l 1
 56 33 l 1
 58 33 l 1
 58 34 l 1
 57 34 l 1
 57 35 l 1
60 35 m 1
 58 35 l 1
 58 34 l 1
 59 34 l 1
 59 33 l 1
 60 33 l 1
 60 35 l 1
63 35 m 1
 61 35 l 1
 61 33 l 1
 63 33 l 1
 63 35 l 1
63 31 m 1
 61 31 l 1
 61 29 l 1
 63 29 l 1
 63 31 l 1
58 27 m 1
 56 27 l 1
 56 25 l 1
 57 25 l 1
 57 26 l 1
 58 26 l 1
 58 27 l 1
60 27 m 1
 59 27 l 1
 59 26 l 1
 58 26 l 1
 58 25 l 1
 60 25 l 1
 60 27 l 1
63 27 m 1
 61 27 l 1
 61 25 l 1
 63 25 l 1
 63 27 l 1
EndSplineSet
EndChar

StartChar: custom_3_5_0_1_3
Encoding: 30481 30481 10513
Width: 70
Flags: H
LayerCount: 2
Fore
SplineSet
23 43 m 1
 21 43 l 1
 21 41 l 1
 23 41 l 1
 23 43 l 1
26 43 m 1
 24 43 l 1
 24 41 l 1
 25 41 l 1
 25 42 l 1
 26 42 l 1
 26 43 l 1
28 43 m 1
 27 43 l 1
 27 42 l 1
 26 42 l 1
 26 41 l 1
 28 41 l 1
 28 43 l 1
31 43 m 1
 29 43 l 1
 29 41 l 1
 31 41 l 1
 31 43 l 1
31 39 m 1
 29 39 l 1
 29 37 l 1
 31 37 l 1
 31 39 l 1
41 43 m 1
 39 43 l 1
 39 41 l 1
 41 41 l 1
 41 43 l 1
36 37 m 1
 34 37 l 1
 34 35 l 1
 36 35 l 1
 36 37 l 1
31 35 m 1
 29 35 l 1
 29 33 l 1
 31 33 l 1
 31 35 l 1
31 31 m 1
 29 31 l 1
 29 29 l 1
 31 29 l 1
 31 31 l 1
36 33 m 1
 34 33 l 1
 34 31 l 1
 36 31 l 1
 36 33 l 1
41 35 m 1
 39 35 l 1
 39 33 l 1
 41 33 l 1
 41 35 l 1
31 27 m 1
 29 27 l 1
 29 25 l 1
 31 25 l 1
 31 27 l 1
41 27 m 1
 39 27 l 1
 39 25 l 1
 41 25 l 1
 41 27 l 1
44 43 m 1
 42 43 l 1
 42 41 l 1
 43 41 l 1
 43 42 l 1
 44 42 l 1
 44 43 l 1
46 43 m 1
 45 43 l 1
 45 42 l 1
 44 42 l 1
 44 41 l 1
 46 41 l 1
 46 43 l 1
49 43 m 1
 47 43 l 1
 47 41 l 1
 49 41 l 1
 49 43 l 1
49 39 m 1
 47 39 l 1
 47 37 l 1
 49 37 l 1
 49 39 l 1
55 43 m 1
 53 43 l 1
 53 41 l 1
 55 41 l 1
 55 43 l 1
55 39 m 1
 53 39 l 1
 53 37 l 1
 55 37 l 1
 55 39 l 1
58 43 m 1
 56 43 l 1
 56 41 l 1
 57 41 l 1
 57 42 l 1
 58 42 l 1
 58 43 l 1
60 43 m 1
 59 43 l 1
 59 42 l 1
 58 42 l 1
 58 41 l 1
 60 41 l 1
 60 43 l 1
63 43 m 1
 61 43 l 1
 61 41 l 1
 63 41 l 1
 63 43 l 1
43 35 m 1
 42 35 l 1
 42 33 l 1
 44 33 l 1
 44 34 l 1
 43 34 l 1
 43 35 l 1
46 35 m 1
 44 35 l 1
 44 34 l 1
 45 34 l 1
 45 33 l 1
 46 33 l 1
 46 35 l 1
49 35 m 1
 47 35 l 1
 47 33 l 1
 49 33 l 1
 49 35 l 1
49 31 m 1
 47 31 l 1
 47 29 l 1
 49 29 l 1
 49 31 l 1
55 35 m 1
 53 35 l 1
 53 33 l 1
 55 33 l 1
 55 35 l 1
44 27 m 1
 42 27 l 1
 42 25 l 1
 43 25 l 1
 43 26 l 1
 44 26 l 1
 44 27 l 1
46 27 m 1
 45 27 l 1
 45 26 l 1
 44 26 l 1
 44 25 l 1
 46 25 l 1
 46 27 l 1
49 27 m 1
 47 27 l 1
 47 25 l 1
 49 25 l 1
 49 27 l 1
55 27 m 1
 53 27 l 1
 53 25 l 1
 55 25 l 1
 55 27 l 1
57 35 m 1
 56 35 l 1
 56 33 l 1
 58 33 l 1
 58 34 l 1
 57 34 l 1
 57 35 l 1
60 35 m 1
 58 35 l 1
 58 34 l 1
 59 34 l 1
 59 33 l 1
 60 33 l 1
 60 35 l 1
63 35 m 1
 61 35 l 1
 61 33 l 1
 63 33 l 1
 63 35 l 1
63 31 m 1
 61 31 l 1
 61 29 l 1
 63 29 l 1
 63 31 l 1
58 27 m 1
 56 27 l 1
 56 25 l 1
 57 25 l 1
 57 26 l 1
 58 26 l 1
 58 27 l 1
60 27 m 1
 59 27 l 1
 59 26 l 1
 58 26 l 1
 58 25 l 1
 60 25 l 1
 60 27 l 1
63 27 m 1
 61 27 l 1
 61 25 l 1
 63 25 l 1
 63 27 l 1
EndSplineSet
EndChar

StartChar: custom_3_5_0_1_4
Encoding: 30482 30482 10514
Width: 70
Flags: H
LayerCount: 2
Fore
SplineSet
23 43 m 1
 21 43 l 1
 21 41 l 1
 23 41 l 1
 23 43 l 1
26 43 m 1
 24 43 l 1
 24 41 l 1
 25 41 l 1
 25 42 l 1
 26 42 l 1
 26 43 l 1
28 43 m 1
 27 43 l 1
 27 42 l 1
 26 42 l 1
 26 41 l 1
 28 41 l 1
 28 43 l 1
31 43 m 1
 29 43 l 1
 29 41 l 1
 31 41 l 1
 31 43 l 1
31 39 m 1
 29 39 l 1
 29 37 l 1
 31 37 l 1
 31 39 l 1
41 43 m 1
 39 43 l 1
 39 41 l 1
 41 41 l 1
 41 43 l 1
36 37 m 1
 34 37 l 1
 34 35 l 1
 36 35 l 1
 36 37 l 1
31 35 m 1
 29 35 l 1
 29 33 l 1
 31 33 l 1
 31 35 l 1
31 31 m 1
 29 31 l 1
 29 29 l 1
 31 29 l 1
 31 31 l 1
36 33 m 1
 34 33 l 1
 34 31 l 1
 36 31 l 1
 36 33 l 1
41 35 m 1
 39 35 l 1
 39 33 l 1
 41 33 l 1
 41 35 l 1
31 27 m 1
 29 27 l 1
 29 25 l 1
 31 25 l 1
 31 27 l 1
41 27 m 1
 39 27 l 1
 39 25 l 1
 41 25 l 1
 41 27 l 1
44 43 m 1
 42 43 l 1
 42 41 l 1
 43 41 l 1
 43 42 l 1
 44 42 l 1
 44 43 l 1
46 43 m 1
 45 43 l 1
 45 42 l 1
 44 42 l 1
 44 41 l 1
 46 41 l 1
 46 43 l 1
49 43 m 1
 47 43 l 1
 47 41 l 1
 49 41 l 1
 49 43 l 1
49 39 m 1
 47 39 l 1
 47 37 l 1
 49 37 l 1
 49 39 l 1
55 43 m 1
 53 43 l 1
 53 41 l 1
 55 41 l 1
 55 43 l 1
55 39 m 1
 53 39 l 1
 53 37 l 1
 55 37 l 1
 55 39 l 1
58 43 m 1
 56 43 l 1
 56 41 l 1
 57 41 l 1
 57 42 l 1
 58 42 l 1
 58 43 l 1
60 43 m 1
 59 43 l 1
 59 42 l 1
 58 42 l 1
 58 41 l 1
 60 41 l 1
 60 43 l 1
63 43 m 1
 61 43 l 1
 61 41 l 1
 63 41 l 1
 63 43 l 1
43 35 m 1
 42 35 l 1
 42 33 l 1
 44 33 l 1
 44 34 l 1
 43 34 l 1
 43 35 l 1
46 35 m 1
 44 35 l 1
 44 34 l 1
 45 34 l 1
 45 33 l 1
 46 33 l 1
 46 35 l 1
49 35 m 1
 47 35 l 1
 47 33 l 1
 49 33 l 1
 49 35 l 1
49 31 m 1
 47 31 l 1
 47 29 l 1
 49 29 l 1
 49 31 l 1
55 35 m 1
 53 35 l 1
 53 33 l 1
 55 33 l 1
 55 35 l 1
44 27 m 1
 42 27 l 1
 42 25 l 1
 43 25 l 1
 43 26 l 1
 44 26 l 1
 44 27 l 1
46 27 m 1
 45 27 l 1
 45 26 l 1
 44 26 l 1
 44 25 l 1
 46 25 l 1
 46 27 l 1
49 27 m 1
 47 27 l 1
 47 25 l 1
 49 25 l 1
 49 27 l 1
55 27 m 1
 53 27 l 1
 53 25 l 1
 55 25 l 1
 55 27 l 1
57 35 m 1
 56 35 l 1
 56 33 l 1
 58 33 l 1
 58 34 l 1
 57 34 l 1
 57 35 l 1
60 35 m 1
 58 35 l 1
 58 34 l 1
 59 34 l 1
 59 33 l 1
 60 33 l 1
 60 35 l 1
63 35 m 1
 61 35 l 1
 61 33 l 1
 63 33 l 1
 63 35 l 1
63 31 m 1
 61 31 l 1
 61 29 l 1
 63 29 l 1
 63 31 l 1
58 27 m 1
 56 27 l 1
 56 25 l 1
 57 25 l 1
 57 26 l 1
 58 26 l 1
 58 27 l 1
60 27 m 1
 59 27 l 1
 59 26 l 1
 58 26 l 1
 58 25 l 1
 60 25 l 1
 60 27 l 1
63 27 m 1
 61 27 l 1
 61 25 l 1
 63 25 l 1
 63 27 l 1
EndSplineSet
EndChar

StartChar: custom_3_5_0_1_5
Encoding: 30483 30483 10515
Width: 70
Flags: H
LayerCount: 2
Fore
SplineSet
23 43 m 1
 21 43 l 1
 21 41 l 1
 23 41 l 1
 23 43 l 1
26 43 m 1
 24 43 l 1
 24 41 l 1
 25 41 l 1
 25 42 l 1
 26 42 l 1
 26 43 l 1
28 43 m 1
 27 43 l 1
 27 42 l 1
 26 42 l 1
 26 41 l 1
 28 41 l 1
 28 43 l 1
31 43 m 1
 29 43 l 1
 29 41 l 1
 31 41 l 1
 31 43 l 1
31 39 m 1
 29 39 l 1
 29 37 l 1
 31 37 l 1
 31 39 l 1
41 43 m 1
 39 43 l 1
 39 41 l 1
 41 41 l 1
 41 43 l 1
36 37 m 1
 34 37 l 1
 34 35 l 1
 36 35 l 1
 36 37 l 1
31 35 m 1
 29 35 l 1
 29 33 l 1
 31 33 l 1
 31 35 l 1
31 31 m 1
 29 31 l 1
 29 29 l 1
 31 29 l 1
 31 31 l 1
36 33 m 1
 34 33 l 1
 34 31 l 1
 36 31 l 1
 36 33 l 1
41 35 m 1
 39 35 l 1
 39 33 l 1
 41 33 l 1
 41 35 l 1
31 27 m 1
 29 27 l 1
 29 25 l 1
 31 25 l 1
 31 27 l 1
41 27 m 1
 39 27 l 1
 39 25 l 1
 41 25 l 1
 41 27 l 1
44 43 m 1
 42 43 l 1
 42 41 l 1
 43 41 l 1
 43 42 l 1
 44 42 l 1
 44 43 l 1
46 43 m 1
 45 43 l 1
 45 42 l 1
 44 42 l 1
 44 41 l 1
 46 41 l 1
 46 43 l 1
49 43 m 1
 47 43 l 1
 47 41 l 1
 49 41 l 1
 49 43 l 1
49 39 m 1
 47 39 l 1
 47 37 l 1
 49 37 l 1
 49 39 l 1
55 43 m 1
 53 43 l 1
 53 41 l 1
 55 41 l 1
 55 43 l 1
55 39 m 1
 53 39 l 1
 53 37 l 1
 55 37 l 1
 55 39 l 1
58 43 m 1
 56 43 l 1
 56 41 l 1
 57 41 l 1
 57 42 l 1
 58 42 l 1
 58 43 l 1
60 43 m 1
 59 43 l 1
 59 42 l 1
 58 42 l 1
 58 41 l 1
 60 41 l 1
 60 43 l 1
63 43 m 1
 61 43 l 1
 61 41 l 1
 63 41 l 1
 63 43 l 1
43 35 m 1
 42 35 l 1
 42 33 l 1
 44 33 l 1
 44 34 l 1
 43 34 l 1
 43 35 l 1
46 35 m 1
 44 35 l 1
 44 34 l 1
 45 34 l 1
 45 33 l 1
 46 33 l 1
 46 35 l 1
49 35 m 1
 47 35 l 1
 47 33 l 1
 49 33 l 1
 49 35 l 1
49 31 m 1
 47 31 l 1
 47 29 l 1
 49 29 l 1
 49 31 l 1
55 35 m 1
 53 35 l 1
 53 33 l 1
 55 33 l 1
 55 35 l 1
44 27 m 1
 42 27 l 1
 42 25 l 1
 43 25 l 1
 43 26 l 1
 44 26 l 1
 44 27 l 1
46 27 m 1
 45 27 l 1
 45 26 l 1
 44 26 l 1
 44 25 l 1
 46 25 l 1
 46 27 l 1
49 27 m 1
 47 27 l 1
 47 25 l 1
 49 25 l 1
 49 27 l 1
55 27 m 1
 53 27 l 1
 53 25 l 1
 55 25 l 1
 55 27 l 1
57 35 m 1
 56 35 l 1
 56 33 l 1
 58 33 l 1
 58 34 l 1
 57 34 l 1
 57 35 l 1
60 35 m 1
 58 35 l 1
 58 34 l 1
 59 34 l 1
 59 33 l 1
 60 33 l 1
 60 35 l 1
63 35 m 1
 61 35 l 1
 61 33 l 1
 63 33 l 1
 63 35 l 1
63 31 m 1
 61 31 l 1
 61 29 l 1
 63 29 l 1
 63 31 l 1
58 27 m 1
 56 27 l 1
 56 25 l 1
 57 25 l 1
 57 26 l 1
 58 26 l 1
 58 27 l 1
60 27 m 1
 59 27 l 1
 59 26 l 1
 58 26 l 1
 58 25 l 1
 60 25 l 1
 60 27 l 1
63 27 m 1
 61 27 l 1
 61 25 l 1
 63 25 l 1
 63 27 l 1
EndSplineSet
EndChar

StartChar: custom_3_5_0_1_6
Encoding: 30484 30484 10516
Width: 70
Flags: H
LayerCount: 2
Fore
SplineSet
23 43 m 1
 21 43 l 1
 21 41 l 1
 23 41 l 1
 23 43 l 1
26 43 m 1
 24 43 l 1
 24 41 l 1
 25 41 l 1
 25 42 l 1
 26 42 l 1
 26 43 l 1
28 43 m 1
 27 43 l 1
 27 42 l 1
 26 42 l 1
 26 41 l 1
 28 41 l 1
 28 43 l 1
31 43 m 1
 29 43 l 1
 29 41 l 1
 31 41 l 1
 31 43 l 1
31 39 m 1
 29 39 l 1
 29 37 l 1
 31 37 l 1
 31 39 l 1
41 43 m 1
 39 43 l 1
 39 41 l 1
 41 41 l 1
 41 43 l 1
36 37 m 1
 34 37 l 1
 34 35 l 1
 36 35 l 1
 36 37 l 1
31 35 m 1
 29 35 l 1
 29 33 l 1
 31 33 l 1
 31 35 l 1
31 31 m 1
 29 31 l 1
 29 29 l 1
 31 29 l 1
 31 31 l 1
36 33 m 1
 34 33 l 1
 34 31 l 1
 36 31 l 1
 36 33 l 1
41 35 m 1
 39 35 l 1
 39 33 l 1
 41 33 l 1
 41 35 l 1
31 27 m 1
 29 27 l 1
 29 25 l 1
 31 25 l 1
 31 27 l 1
41 27 m 1
 39 27 l 1
 39 25 l 1
 41 25 l 1
 41 27 l 1
44 43 m 1
 42 43 l 1
 42 41 l 1
 43 41 l 1
 43 42 l 1
 44 42 l 1
 44 43 l 1
46 43 m 1
 45 43 l 1
 45 42 l 1
 44 42 l 1
 44 41 l 1
 46 41 l 1
 46 43 l 1
49 43 m 1
 47 43 l 1
 47 41 l 1
 49 41 l 1
 49 43 l 1
49 39 m 1
 47 39 l 1
 47 37 l 1
 49 37 l 1
 49 39 l 1
55 43 m 1
 53 43 l 1
 53 41 l 1
 55 41 l 1
 55 43 l 1
55 39 m 1
 53 39 l 1
 53 37 l 1
 55 37 l 1
 55 39 l 1
58 43 m 1
 56 43 l 1
 56 41 l 1
 57 41 l 1
 57 42 l 1
 58 42 l 1
 58 43 l 1
60 43 m 1
 59 43 l 1
 59 42 l 1
 58 42 l 1
 58 41 l 1
 60 41 l 1
 60 43 l 1
63 43 m 1
 61 43 l 1
 61 41 l 1
 63 41 l 1
 63 43 l 1
43 35 m 1
 42 35 l 1
 42 33 l 1
 44 33 l 1
 44 34 l 1
 43 34 l 1
 43 35 l 1
46 35 m 1
 44 35 l 1
 44 34 l 1
 45 34 l 1
 45 33 l 1
 46 33 l 1
 46 35 l 1
49 35 m 1
 47 35 l 1
 47 33 l 1
 49 33 l 1
 49 35 l 1
49 31 m 1
 47 31 l 1
 47 29 l 1
 49 29 l 1
 49 31 l 1
55 35 m 1
 53 35 l 1
 53 33 l 1
 55 33 l 1
 55 35 l 1
44 27 m 1
 42 27 l 1
 42 25 l 1
 43 25 l 1
 43 26 l 1
 44 26 l 1
 44 27 l 1
46 27 m 1
 45 27 l 1
 45 26 l 1
 44 26 l 1
 44 25 l 1
 46 25 l 1
 46 27 l 1
49 27 m 1
 47 27 l 1
 47 25 l 1
 49 25 l 1
 49 27 l 1
55 27 m 1
 53 27 l 1
 53 25 l 1
 55 25 l 1
 55 27 l 1
57 35 m 1
 56 35 l 1
 56 33 l 1
 58 33 l 1
 58 34 l 1
 57 34 l 1
 57 35 l 1
60 35 m 1
 58 35 l 1
 58 34 l 1
 59 34 l 1
 59 33 l 1
 60 33 l 1
 60 35 l 1
63 35 m 1
 61 35 l 1
 61 33 l 1
 63 33 l 1
 63 35 l 1
63 31 m 1
 61 31 l 1
 61 29 l 1
 63 29 l 1
 63 31 l 1
58 27 m 1
 56 27 l 1
 56 25 l 1
 57 25 l 1
 57 26 l 1
 58 26 l 1
 58 27 l 1
60 27 m 1
 59 27 l 1
 59 26 l 1
 58 26 l 1
 58 25 l 1
 60 25 l 1
 60 27 l 1
63 27 m 1
 61 27 l 1
 61 25 l 1
 63 25 l 1
 63 27 l 1
EndSplineSet
EndChar

StartChar: custom_3_5_0_1_7
Encoding: 30485 30485 10517
Width: 70
Flags: H
LayerCount: 2
Fore
SplineSet
23 43 m 1
 21 43 l 1
 21 41 l 1
 23 41 l 1
 23 43 l 1
26 43 m 1
 24 43 l 1
 24 41 l 1
 25 41 l 1
 25 42 l 1
 26 42 l 1
 26 43 l 1
28 43 m 1
 27 43 l 1
 27 42 l 1
 26 42 l 1
 26 41 l 1
 28 41 l 1
 28 43 l 1
31 43 m 1
 29 43 l 1
 29 41 l 1
 31 41 l 1
 31 43 l 1
31 39 m 1
 29 39 l 1
 29 37 l 1
 31 37 l 1
 31 39 l 1
41 43 m 1
 39 43 l 1
 39 41 l 1
 41 41 l 1
 41 43 l 1
36 37 m 1
 34 37 l 1
 34 35 l 1
 36 35 l 1
 36 37 l 1
31 35 m 1
 29 35 l 1
 29 33 l 1
 31 33 l 1
 31 35 l 1
31 31 m 1
 29 31 l 1
 29 29 l 1
 31 29 l 1
 31 31 l 1
36 33 m 1
 34 33 l 1
 34 31 l 1
 36 31 l 1
 36 33 l 1
41 35 m 1
 39 35 l 1
 39 33 l 1
 41 33 l 1
 41 35 l 1
31 27 m 1
 29 27 l 1
 29 25 l 1
 31 25 l 1
 31 27 l 1
41 27 m 1
 39 27 l 1
 39 25 l 1
 41 25 l 1
 41 27 l 1
44 43 m 1
 42 43 l 1
 42 41 l 1
 43 41 l 1
 43 42 l 1
 44 42 l 1
 44 43 l 1
46 43 m 1
 45 43 l 1
 45 42 l 1
 44 42 l 1
 44 41 l 1
 46 41 l 1
 46 43 l 1
49 43 m 1
 47 43 l 1
 47 41 l 1
 49 41 l 1
 49 43 l 1
49 39 m 1
 47 39 l 1
 47 37 l 1
 49 37 l 1
 49 39 l 1
55 43 m 1
 53 43 l 1
 53 41 l 1
 55 41 l 1
 55 43 l 1
55 39 m 1
 53 39 l 1
 53 37 l 1
 55 37 l 1
 55 39 l 1
58 43 m 1
 56 43 l 1
 56 41 l 1
 57 41 l 1
 57 42 l 1
 58 42 l 1
 58 43 l 1
60 43 m 1
 59 43 l 1
 59 42 l 1
 58 42 l 1
 58 41 l 1
 60 41 l 1
 60 43 l 1
63 43 m 1
 61 43 l 1
 61 41 l 1
 63 41 l 1
 63 43 l 1
43 35 m 1
 42 35 l 1
 42 33 l 1
 44 33 l 1
 44 34 l 1
 43 34 l 1
 43 35 l 1
46 35 m 1
 44 35 l 1
 44 34 l 1
 45 34 l 1
 45 33 l 1
 46 33 l 1
 46 35 l 1
49 35 m 1
 47 35 l 1
 47 33 l 1
 49 33 l 1
 49 35 l 1
49 31 m 1
 47 31 l 1
 47 29 l 1
 49 29 l 1
 49 31 l 1
55 35 m 1
 53 35 l 1
 53 33 l 1
 55 33 l 1
 55 35 l 1
44 27 m 1
 42 27 l 1
 42 25 l 1
 43 25 l 1
 43 26 l 1
 44 26 l 1
 44 27 l 1
46 27 m 1
 45 27 l 1
 45 26 l 1
 44 26 l 1
 44 25 l 1
 46 25 l 1
 46 27 l 1
49 27 m 1
 47 27 l 1
 47 25 l 1
 49 25 l 1
 49 27 l 1
55 27 m 1
 53 27 l 1
 53 25 l 1
 55 25 l 1
 55 27 l 1
57 35 m 1
 56 35 l 1
 56 33 l 1
 58 33 l 1
 58 34 l 1
 57 34 l 1
 57 35 l 1
60 35 m 1
 58 35 l 1
 58 34 l 1
 59 34 l 1
 59 33 l 1
 60 33 l 1
 60 35 l 1
63 35 m 1
 61 35 l 1
 61 33 l 1
 63 33 l 1
 63 35 l 1
63 31 m 1
 61 31 l 1
 61 29 l 1
 63 29 l 1
 63 31 l 1
58 27 m 1
 56 27 l 1
 56 25 l 1
 57 25 l 1
 57 26 l 1
 58 26 l 1
 58 27 l 1
60 27 m 1
 59 27 l 1
 59 26 l 1
 58 26 l 1
 58 25 l 1
 60 25 l 1
 60 27 l 1
63 27 m 1
 61 27 l 1
 61 25 l 1
 63 25 l 1
 63 27 l 1
EndSplineSet
EndChar

StartChar: custom_3_5_0_1_8
Encoding: 30486 30486 10518
Width: 70
Flags: H
LayerCount: 2
Fore
SplineSet
23 43 m 1
 21 43 l 1
 21 41 l 1
 23 41 l 1
 23 43 l 1
26 43 m 1
 24 43 l 1
 24 41 l 1
 25 41 l 1
 25 42 l 1
 26 42 l 1
 26 43 l 1
28 43 m 1
 27 43 l 1
 27 42 l 1
 26 42 l 1
 26 41 l 1
 28 41 l 1
 28 43 l 1
31 43 m 1
 29 43 l 1
 29 41 l 1
 31 41 l 1
 31 43 l 1
31 39 m 1
 29 39 l 1
 29 37 l 1
 31 37 l 1
 31 39 l 1
41 43 m 1
 39 43 l 1
 39 41 l 1
 41 41 l 1
 41 43 l 1
36 37 m 1
 34 37 l 1
 34 35 l 1
 36 35 l 1
 36 37 l 1
31 35 m 1
 29 35 l 1
 29 33 l 1
 31 33 l 1
 31 35 l 1
31 31 m 1
 29 31 l 1
 29 29 l 1
 31 29 l 1
 31 31 l 1
36 33 m 1
 34 33 l 1
 34 31 l 1
 36 31 l 1
 36 33 l 1
41 35 m 1
 39 35 l 1
 39 33 l 1
 41 33 l 1
 41 35 l 1
31 27 m 1
 29 27 l 1
 29 25 l 1
 31 25 l 1
 31 27 l 1
41 27 m 1
 39 27 l 1
 39 25 l 1
 41 25 l 1
 41 27 l 1
44 43 m 1
 42 43 l 1
 42 41 l 1
 43 41 l 1
 43 42 l 1
 44 42 l 1
 44 43 l 1
46 43 m 1
 45 43 l 1
 45 42 l 1
 44 42 l 1
 44 41 l 1
 46 41 l 1
 46 43 l 1
49 43 m 1
 47 43 l 1
 47 41 l 1
 49 41 l 1
 49 43 l 1
49 39 m 1
 47 39 l 1
 47 37 l 1
 49 37 l 1
 49 39 l 1
55 43 m 1
 53 43 l 1
 53 41 l 1
 55 41 l 1
 55 43 l 1
55 39 m 1
 53 39 l 1
 53 37 l 1
 55 37 l 1
 55 39 l 1
58 43 m 1
 56 43 l 1
 56 41 l 1
 57 41 l 1
 57 42 l 1
 58 42 l 1
 58 43 l 1
60 43 m 1
 59 43 l 1
 59 42 l 1
 58 42 l 1
 58 41 l 1
 60 41 l 1
 60 43 l 1
63 43 m 1
 61 43 l 1
 61 41 l 1
 63 41 l 1
 63 43 l 1
43 35 m 1
 42 35 l 1
 42 33 l 1
 44 33 l 1
 44 34 l 1
 43 34 l 1
 43 35 l 1
46 35 m 1
 44 35 l 1
 44 34 l 1
 45 34 l 1
 45 33 l 1
 46 33 l 1
 46 35 l 1
49 35 m 1
 47 35 l 1
 47 33 l 1
 49 33 l 1
 49 35 l 1
49 31 m 1
 47 31 l 1
 47 29 l 1
 49 29 l 1
 49 31 l 1
55 35 m 1
 53 35 l 1
 53 33 l 1
 55 33 l 1
 55 35 l 1
44 27 m 1
 42 27 l 1
 42 25 l 1
 43 25 l 1
 43 26 l 1
 44 26 l 1
 44 27 l 1
46 27 m 1
 45 27 l 1
 45 26 l 1
 44 26 l 1
 44 25 l 1
 46 25 l 1
 46 27 l 1
49 27 m 1
 47 27 l 1
 47 25 l 1
 49 25 l 1
 49 27 l 1
55 27 m 1
 53 27 l 1
 53 25 l 1
 55 25 l 1
 55 27 l 1
57 35 m 1
 56 35 l 1
 56 33 l 1
 58 33 l 1
 58 34 l 1
 57 34 l 1
 57 35 l 1
60 35 m 1
 58 35 l 1
 58 34 l 1
 59 34 l 1
 59 33 l 1
 60 33 l 1
 60 35 l 1
63 35 m 1
 61 35 l 1
 61 33 l 1
 63 33 l 1
 63 35 l 1
63 31 m 1
 61 31 l 1
 61 29 l 1
 63 29 l 1
 63 31 l 1
58 27 m 1
 56 27 l 1
 56 25 l 1
 57 25 l 1
 57 26 l 1
 58 26 l 1
 58 27 l 1
60 27 m 1
 59 27 l 1
 59 26 l 1
 58 26 l 1
 58 25 l 1
 60 25 l 1
 60 27 l 1
63 27 m 1
 61 27 l 1
 61 25 l 1
 63 25 l 1
 63 27 l 1
EndSplineSet
EndChar

StartChar: custom_3_5_0_1_9
Encoding: 30487 30487 10519
Width: 70
Flags: H
LayerCount: 2
Fore
SplineSet
23 43 m 1
 21 43 l 1
 21 41 l 1
 23 41 l 1
 23 43 l 1
26 43 m 1
 24 43 l 1
 24 41 l 1
 25 41 l 1
 25 42 l 1
 26 42 l 1
 26 43 l 1
28 43 m 1
 27 43 l 1
 27 42 l 1
 26 42 l 1
 26 41 l 1
 28 41 l 1
 28 43 l 1
31 43 m 1
 29 43 l 1
 29 41 l 1
 31 41 l 1
 31 43 l 1
31 39 m 1
 29 39 l 1
 29 37 l 1
 31 37 l 1
 31 39 l 1
41 43 m 1
 39 43 l 1
 39 41 l 1
 41 41 l 1
 41 43 l 1
36 37 m 1
 34 37 l 1
 34 35 l 1
 36 35 l 1
 36 37 l 1
31 35 m 1
 29 35 l 1
 29 33 l 1
 31 33 l 1
 31 35 l 1
31 31 m 1
 29 31 l 1
 29 29 l 1
 31 29 l 1
 31 31 l 1
36 33 m 1
 34 33 l 1
 34 31 l 1
 36 31 l 1
 36 33 l 1
41 35 m 1
 39 35 l 1
 39 33 l 1
 41 33 l 1
 41 35 l 1
31 27 m 1
 29 27 l 1
 29 25 l 1
 31 25 l 1
 31 27 l 1
41 27 m 1
 39 27 l 1
 39 25 l 1
 41 25 l 1
 41 27 l 1
44 43 m 1
 42 43 l 1
 42 41 l 1
 43 41 l 1
 43 42 l 1
 44 42 l 1
 44 43 l 1
46 43 m 1
 45 43 l 1
 45 42 l 1
 44 42 l 1
 44 41 l 1
 46 41 l 1
 46 43 l 1
49 43 m 1
 47 43 l 1
 47 41 l 1
 49 41 l 1
 49 43 l 1
49 39 m 1
 47 39 l 1
 47 37 l 1
 49 37 l 1
 49 39 l 1
55 43 m 1
 53 43 l 1
 53 41 l 1
 55 41 l 1
 55 43 l 1
55 39 m 1
 53 39 l 1
 53 37 l 1
 55 37 l 1
 55 39 l 1
58 43 m 1
 56 43 l 1
 56 41 l 1
 57 41 l 1
 57 42 l 1
 58 42 l 1
 58 43 l 1
60 43 m 1
 59 43 l 1
 59 42 l 1
 58 42 l 1
 58 41 l 1
 60 41 l 1
 60 43 l 1
63 43 m 1
 61 43 l 1
 61 41 l 1
 63 41 l 1
 63 43 l 1
43 35 m 1
 42 35 l 1
 42 33 l 1
 44 33 l 1
 44 34 l 1
 43 34 l 1
 43 35 l 1
46 35 m 1
 44 35 l 1
 44 34 l 1
 45 34 l 1
 45 33 l 1
 46 33 l 1
 46 35 l 1
49 35 m 1
 47 35 l 1
 47 33 l 1
 49 33 l 1
 49 35 l 1
49 31 m 1
 47 31 l 1
 47 29 l 1
 49 29 l 1
 49 31 l 1
55 35 m 1
 53 35 l 1
 53 33 l 1
 55 33 l 1
 55 35 l 1
44 27 m 1
 42 27 l 1
 42 25 l 1
 43 25 l 1
 43 26 l 1
 44 26 l 1
 44 27 l 1
46 27 m 1
 45 27 l 1
 45 26 l 1
 44 26 l 1
 44 25 l 1
 46 25 l 1
 46 27 l 1
49 27 m 1
 47 27 l 1
 47 25 l 1
 49 25 l 1
 49 27 l 1
55 27 m 1
 53 27 l 1
 53 25 l 1
 55 25 l 1
 55 27 l 1
57 35 m 1
 56 35 l 1
 56 33 l 1
 58 33 l 1
 58 34 l 1
 57 34 l 1
 57 35 l 1
60 35 m 1
 58 35 l 1
 58 34 l 1
 59 34 l 1
 59 33 l 1
 60 33 l 1
 60 35 l 1
63 35 m 1
 61 35 l 1
 61 33 l 1
 63 33 l 1
 63 35 l 1
63 31 m 1
 61 31 l 1
 61 29 l 1
 63 29 l 1
 63 31 l 1
58 27 m 1
 56 27 l 1
 56 25 l 1
 57 25 l 1
 57 26 l 1
 58 26 l 1
 58 27 l 1
60 27 m 1
 59 27 l 1
 59 26 l 1
 58 26 l 1
 58 25 l 1
 60 25 l 1
 60 27 l 1
63 27 m 1
 61 27 l 1
 61 25 l 1
 63 25 l 1
 63 27 l 1
EndSplineSet
EndChar

StartChar: custom_3_5_0_2_0
Encoding: 30488 30488 10520
Width: 70
Flags: H
LayerCount: 2
Fore
SplineSet
23 43 m 1
 21 43 l 1
 21 41 l 1
 23 41 l 1
 23 43 l 1
26 43 m 1
 24 43 l 1
 24 41 l 1
 25 41 l 1
 25 42 l 1
 26 42 l 1
 26 43 l 1
28 43 m 1
 27 43 l 1
 27 42 l 1
 26 42 l 1
 26 41 l 1
 28 41 l 1
 28 43 l 1
31 43 m 1
 29 43 l 1
 29 41 l 1
 31 41 l 1
 31 43 l 1
31 39 m 1
 29 39 l 1
 29 37 l 1
 31 37 l 1
 31 39 l 1
41 43 m 1
 39 43 l 1
 39 41 l 1
 41 41 l 1
 41 43 l 1
36 37 m 1
 34 37 l 1
 34 35 l 1
 36 35 l 1
 36 37 l 1
31 35 m 1
 29 35 l 1
 29 33 l 1
 31 33 l 1
 31 35 l 1
31 31 m 1
 29 31 l 1
 29 29 l 1
 31 29 l 1
 31 31 l 1
36 33 m 1
 34 33 l 1
 34 31 l 1
 36 31 l 1
 36 33 l 1
41 35 m 1
 39 35 l 1
 39 33 l 1
 41 33 l 1
 41 35 l 1
31 27 m 1
 29 27 l 1
 29 25 l 1
 31 25 l 1
 31 27 l 1
41 27 m 1
 39 27 l 1
 39 25 l 1
 41 25 l 1
 41 27 l 1
44 43 m 1
 42 43 l 1
 42 41 l 1
 43 41 l 1
 43 42 l 1
 44 42 l 1
 44 43 l 1
46 43 m 1
 45 43 l 1
 45 42 l 1
 44 42 l 1
 44 41 l 1
 46 41 l 1
 46 43 l 1
49 43 m 1
 47 43 l 1
 47 41 l 1
 49 41 l 1
 49 43 l 1
49 39 m 1
 47 39 l 1
 47 37 l 1
 49 37 l 1
 49 39 l 1
55 43 m 1
 53 43 l 1
 53 41 l 1
 55 41 l 1
 55 43 l 1
55 39 m 1
 53 39 l 1
 53 37 l 1
 55 37 l 1
 55 39 l 1
58 43 m 1
 56 43 l 1
 56 41 l 1
 57 41 l 1
 57 42 l 1
 58 42 l 1
 58 43 l 1
60 43 m 1
 59 43 l 1
 59 42 l 1
 58 42 l 1
 58 41 l 1
 60 41 l 1
 60 43 l 1
63 43 m 1
 61 43 l 1
 61 41 l 1
 63 41 l 1
 63 43 l 1
43 35 m 1
 42 35 l 1
 42 33 l 1
 44 33 l 1
 44 34 l 1
 43 34 l 1
 43 35 l 1
46 35 m 1
 44 35 l 1
 44 34 l 1
 45 34 l 1
 45 33 l 1
 46 33 l 1
 46 35 l 1
49 35 m 1
 47 35 l 1
 47 33 l 1
 49 33 l 1
 49 35 l 1
49 31 m 1
 47 31 l 1
 47 29 l 1
 49 29 l 1
 49 31 l 1
55 35 m 1
 53 35 l 1
 53 33 l 1
 55 33 l 1
 55 35 l 1
44 27 m 1
 42 27 l 1
 42 25 l 1
 43 25 l 1
 43 26 l 1
 44 26 l 1
 44 27 l 1
46 27 m 1
 45 27 l 1
 45 26 l 1
 44 26 l 1
 44 25 l 1
 46 25 l 1
 46 27 l 1
49 27 m 1
 47 27 l 1
 47 25 l 1
 49 25 l 1
 49 27 l 1
55 27 m 1
 53 27 l 1
 53 25 l 1
 55 25 l 1
 55 27 l 1
57 35 m 1
 56 35 l 1
 56 33 l 1
 58 33 l 1
 58 34 l 1
 57 34 l 1
 57 35 l 1
60 35 m 1
 58 35 l 1
 58 34 l 1
 59 34 l 1
 59 33 l 1
 60 33 l 1
 60 35 l 1
63 35 m 1
 61 35 l 1
 61 33 l 1
 63 33 l 1
 63 35 l 1
63 31 m 1
 61 31 l 1
 61 29 l 1
 63 29 l 1
 63 31 l 1
58 27 m 1
 56 27 l 1
 56 25 l 1
 57 25 l 1
 57 26 l 1
 58 26 l 1
 58 27 l 1
60 27 m 1
 59 27 l 1
 59 26 l 1
 58 26 l 1
 58 25 l 1
 60 25 l 1
 60 27 l 1
63 27 m 1
 61 27 l 1
 61 25 l 1
 63 25 l 1
 63 27 l 1
EndSplineSet
EndChar

StartChar: custom_3_5_0_2_1
Encoding: 30489 30489 10521
Width: 70
Flags: H
LayerCount: 2
Fore
SplineSet
23 43 m 1
 21 43 l 1
 21 41 l 1
 23 41 l 1
 23 43 l 1
26 43 m 1
 24 43 l 1
 24 41 l 1
 25 41 l 1
 25 42 l 1
 26 42 l 1
 26 43 l 1
28 43 m 1
 27 43 l 1
 27 42 l 1
 26 42 l 1
 26 41 l 1
 28 41 l 1
 28 43 l 1
31 43 m 1
 29 43 l 1
 29 41 l 1
 31 41 l 1
 31 43 l 1
31 39 m 1
 29 39 l 1
 29 37 l 1
 31 37 l 1
 31 39 l 1
41 43 m 1
 39 43 l 1
 39 41 l 1
 41 41 l 1
 41 43 l 1
36 37 m 1
 34 37 l 1
 34 35 l 1
 36 35 l 1
 36 37 l 1
31 35 m 1
 29 35 l 1
 29 33 l 1
 31 33 l 1
 31 35 l 1
31 31 m 1
 29 31 l 1
 29 29 l 1
 31 29 l 1
 31 31 l 1
36 33 m 1
 34 33 l 1
 34 31 l 1
 36 31 l 1
 36 33 l 1
41 35 m 1
 39 35 l 1
 39 33 l 1
 41 33 l 1
 41 35 l 1
31 27 m 1
 29 27 l 1
 29 25 l 1
 31 25 l 1
 31 27 l 1
41 27 m 1
 39 27 l 1
 39 25 l 1
 41 25 l 1
 41 27 l 1
44 43 m 1
 42 43 l 1
 42 41 l 1
 43 41 l 1
 43 42 l 1
 44 42 l 1
 44 43 l 1
46 43 m 1
 45 43 l 1
 45 42 l 1
 44 42 l 1
 44 41 l 1
 46 41 l 1
 46 43 l 1
49 43 m 1
 47 43 l 1
 47 41 l 1
 49 41 l 1
 49 43 l 1
49 39 m 1
 47 39 l 1
 47 37 l 1
 49 37 l 1
 49 39 l 1
55 43 m 1
 53 43 l 1
 53 41 l 1
 55 41 l 1
 55 43 l 1
55 39 m 1
 53 39 l 1
 53 37 l 1
 55 37 l 1
 55 39 l 1
58 43 m 1
 56 43 l 1
 56 41 l 1
 57 41 l 1
 57 42 l 1
 58 42 l 1
 58 43 l 1
60 43 m 1
 59 43 l 1
 59 42 l 1
 58 42 l 1
 58 41 l 1
 60 41 l 1
 60 43 l 1
63 43 m 1
 61 43 l 1
 61 41 l 1
 63 41 l 1
 63 43 l 1
43 35 m 1
 42 35 l 1
 42 33 l 1
 44 33 l 1
 44 34 l 1
 43 34 l 1
 43 35 l 1
46 35 m 1
 44 35 l 1
 44 34 l 1
 45 34 l 1
 45 33 l 1
 46 33 l 1
 46 35 l 1
49 35 m 1
 47 35 l 1
 47 33 l 1
 49 33 l 1
 49 35 l 1
49 31 m 1
 47 31 l 1
 47 29 l 1
 49 29 l 1
 49 31 l 1
55 35 m 1
 53 35 l 1
 53 33 l 1
 55 33 l 1
 55 35 l 1
44 27 m 1
 42 27 l 1
 42 25 l 1
 43 25 l 1
 43 26 l 1
 44 26 l 1
 44 27 l 1
46 27 m 1
 45 27 l 1
 45 26 l 1
 44 26 l 1
 44 25 l 1
 46 25 l 1
 46 27 l 1
49 27 m 1
 47 27 l 1
 47 25 l 1
 49 25 l 1
 49 27 l 1
55 27 m 1
 53 27 l 1
 53 25 l 1
 55 25 l 1
 55 27 l 1
57 35 m 1
 56 35 l 1
 56 33 l 1
 58 33 l 1
 58 34 l 1
 57 34 l 1
 57 35 l 1
60 35 m 1
 58 35 l 1
 58 34 l 1
 59 34 l 1
 59 33 l 1
 60 33 l 1
 60 35 l 1
63 35 m 1
 61 35 l 1
 61 33 l 1
 63 33 l 1
 63 35 l 1
63 31 m 1
 61 31 l 1
 61 29 l 1
 63 29 l 1
 63 31 l 1
58 27 m 1
 56 27 l 1
 56 25 l 1
 57 25 l 1
 57 26 l 1
 58 26 l 1
 58 27 l 1
60 27 m 1
 59 27 l 1
 59 26 l 1
 58 26 l 1
 58 25 l 1
 60 25 l 1
 60 27 l 1
63 27 m 1
 61 27 l 1
 61 25 l 1
 63 25 l 1
 63 27 l 1
EndSplineSet
EndChar

StartChar: custom_3_5_0_2_2
Encoding: 30490 30490 10522
Width: 70
Flags: H
LayerCount: 2
Fore
SplineSet
23 43 m 1
 21 43 l 1
 21 41 l 1
 23 41 l 1
 23 43 l 1
26 43 m 1
 24 43 l 1
 24 41 l 1
 25 41 l 1
 25 42 l 1
 26 42 l 1
 26 43 l 1
28 43 m 1
 27 43 l 1
 27 42 l 1
 26 42 l 1
 26 41 l 1
 28 41 l 1
 28 43 l 1
31 43 m 1
 29 43 l 1
 29 41 l 1
 31 41 l 1
 31 43 l 1
31 39 m 1
 29 39 l 1
 29 37 l 1
 31 37 l 1
 31 39 l 1
41 43 m 1
 39 43 l 1
 39 41 l 1
 41 41 l 1
 41 43 l 1
36 37 m 1
 34 37 l 1
 34 35 l 1
 36 35 l 1
 36 37 l 1
31 35 m 1
 29 35 l 1
 29 33 l 1
 31 33 l 1
 31 35 l 1
31 31 m 1
 29 31 l 1
 29 29 l 1
 31 29 l 1
 31 31 l 1
36 33 m 1
 34 33 l 1
 34 31 l 1
 36 31 l 1
 36 33 l 1
41 35 m 1
 39 35 l 1
 39 33 l 1
 41 33 l 1
 41 35 l 1
31 27 m 1
 29 27 l 1
 29 25 l 1
 31 25 l 1
 31 27 l 1
41 27 m 1
 39 27 l 1
 39 25 l 1
 41 25 l 1
 41 27 l 1
44 43 m 1
 42 43 l 1
 42 41 l 1
 43 41 l 1
 43 42 l 1
 44 42 l 1
 44 43 l 1
46 43 m 1
 45 43 l 1
 45 42 l 1
 44 42 l 1
 44 41 l 1
 46 41 l 1
 46 43 l 1
49 43 m 1
 47 43 l 1
 47 41 l 1
 49 41 l 1
 49 43 l 1
49 39 m 1
 47 39 l 1
 47 37 l 1
 49 37 l 1
 49 39 l 1
55 43 m 1
 53 43 l 1
 53 41 l 1
 55 41 l 1
 55 43 l 1
55 39 m 1
 53 39 l 1
 53 37 l 1
 55 37 l 1
 55 39 l 1
58 43 m 1
 56 43 l 1
 56 41 l 1
 57 41 l 1
 57 42 l 1
 58 42 l 1
 58 43 l 1
60 43 m 1
 59 43 l 1
 59 42 l 1
 58 42 l 1
 58 41 l 1
 60 41 l 1
 60 43 l 1
63 43 m 1
 61 43 l 1
 61 41 l 1
 63 41 l 1
 63 43 l 1
43 35 m 1
 42 35 l 1
 42 33 l 1
 44 33 l 1
 44 34 l 1
 43 34 l 1
 43 35 l 1
46 35 m 1
 44 35 l 1
 44 34 l 1
 45 34 l 1
 45 33 l 1
 46 33 l 1
 46 35 l 1
49 35 m 1
 47 35 l 1
 47 33 l 1
 49 33 l 1
 49 35 l 1
49 31 m 1
 47 31 l 1
 47 29 l 1
 49 29 l 1
 49 31 l 1
55 35 m 1
 53 35 l 1
 53 33 l 1
 55 33 l 1
 55 35 l 1
44 27 m 1
 42 27 l 1
 42 25 l 1
 43 25 l 1
 43 26 l 1
 44 26 l 1
 44 27 l 1
46 27 m 1
 45 27 l 1
 45 26 l 1
 44 26 l 1
 44 25 l 1
 46 25 l 1
 46 27 l 1
49 27 m 1
 47 27 l 1
 47 25 l 1
 49 25 l 1
 49 27 l 1
55 27 m 1
 53 27 l 1
 53 25 l 1
 55 25 l 1
 55 27 l 1
57 35 m 1
 56 35 l 1
 56 33 l 1
 58 33 l 1
 58 34 l 1
 57 34 l 1
 57 35 l 1
60 35 m 1
 58 35 l 1
 58 34 l 1
 59 34 l 1
 59 33 l 1
 60 33 l 1
 60 35 l 1
63 35 m 1
 61 35 l 1
 61 33 l 1
 63 33 l 1
 63 35 l 1
63 31 m 1
 61 31 l 1
 61 29 l 1
 63 29 l 1
 63 31 l 1
58 27 m 1
 56 27 l 1
 56 25 l 1
 57 25 l 1
 57 26 l 1
 58 26 l 1
 58 27 l 1
60 27 m 1
 59 27 l 1
 59 26 l 1
 58 26 l 1
 58 25 l 1
 60 25 l 1
 60 27 l 1
63 27 m 1
 61 27 l 1
 61 25 l 1
 63 25 l 1
 63 27 l 1
EndSplineSet
EndChar

StartChar: custom_3_5_0_2_3
Encoding: 30491 30491 10523
Width: 70
Flags: H
LayerCount: 2
Fore
SplineSet
23 43 m 1
 21 43 l 1
 21 41 l 1
 23 41 l 1
 23 43 l 1
26 43 m 1
 24 43 l 1
 24 41 l 1
 25 41 l 1
 25 42 l 1
 26 42 l 1
 26 43 l 1
28 43 m 1
 27 43 l 1
 27 42 l 1
 26 42 l 1
 26 41 l 1
 28 41 l 1
 28 43 l 1
31 43 m 1
 29 43 l 1
 29 41 l 1
 31 41 l 1
 31 43 l 1
31 39 m 1
 29 39 l 1
 29 37 l 1
 31 37 l 1
 31 39 l 1
41 43 m 1
 39 43 l 1
 39 41 l 1
 41 41 l 1
 41 43 l 1
36 37 m 1
 34 37 l 1
 34 35 l 1
 36 35 l 1
 36 37 l 1
31 35 m 1
 29 35 l 1
 29 33 l 1
 31 33 l 1
 31 35 l 1
31 31 m 1
 29 31 l 1
 29 29 l 1
 31 29 l 1
 31 31 l 1
36 33 m 1
 34 33 l 1
 34 31 l 1
 36 31 l 1
 36 33 l 1
41 35 m 1
 39 35 l 1
 39 33 l 1
 41 33 l 1
 41 35 l 1
31 27 m 1
 29 27 l 1
 29 25 l 1
 31 25 l 1
 31 27 l 1
41 27 m 1
 39 27 l 1
 39 25 l 1
 41 25 l 1
 41 27 l 1
44 43 m 1
 42 43 l 1
 42 41 l 1
 43 41 l 1
 43 42 l 1
 44 42 l 1
 44 43 l 1
46 43 m 1
 45 43 l 1
 45 42 l 1
 44 42 l 1
 44 41 l 1
 46 41 l 1
 46 43 l 1
49 43 m 1
 47 43 l 1
 47 41 l 1
 49 41 l 1
 49 43 l 1
49 39 m 1
 47 39 l 1
 47 37 l 1
 49 37 l 1
 49 39 l 1
55 43 m 1
 53 43 l 1
 53 41 l 1
 55 41 l 1
 55 43 l 1
55 39 m 1
 53 39 l 1
 53 37 l 1
 55 37 l 1
 55 39 l 1
58 43 m 1
 56 43 l 1
 56 41 l 1
 57 41 l 1
 57 42 l 1
 58 42 l 1
 58 43 l 1
60 43 m 1
 59 43 l 1
 59 42 l 1
 58 42 l 1
 58 41 l 1
 60 41 l 1
 60 43 l 1
63 43 m 1
 61 43 l 1
 61 41 l 1
 63 41 l 1
 63 43 l 1
43 35 m 1
 42 35 l 1
 42 33 l 1
 44 33 l 1
 44 34 l 1
 43 34 l 1
 43 35 l 1
46 35 m 1
 44 35 l 1
 44 34 l 1
 45 34 l 1
 45 33 l 1
 46 33 l 1
 46 35 l 1
49 35 m 1
 47 35 l 1
 47 33 l 1
 49 33 l 1
 49 35 l 1
49 31 m 1
 47 31 l 1
 47 29 l 1
 49 29 l 1
 49 31 l 1
55 35 m 1
 53 35 l 1
 53 33 l 1
 55 33 l 1
 55 35 l 1
44 27 m 1
 42 27 l 1
 42 25 l 1
 43 25 l 1
 43 26 l 1
 44 26 l 1
 44 27 l 1
46 27 m 1
 45 27 l 1
 45 26 l 1
 44 26 l 1
 44 25 l 1
 46 25 l 1
 46 27 l 1
49 27 m 1
 47 27 l 1
 47 25 l 1
 49 25 l 1
 49 27 l 1
55 27 m 1
 53 27 l 1
 53 25 l 1
 55 25 l 1
 55 27 l 1
57 35 m 1
 56 35 l 1
 56 33 l 1
 58 33 l 1
 58 34 l 1
 57 34 l 1
 57 35 l 1
60 35 m 1
 58 35 l 1
 58 34 l 1
 59 34 l 1
 59 33 l 1
 60 33 l 1
 60 35 l 1
63 35 m 1
 61 35 l 1
 61 33 l 1
 63 33 l 1
 63 35 l 1
63 31 m 1
 61 31 l 1
 61 29 l 1
 63 29 l 1
 63 31 l 1
58 27 m 1
 56 27 l 1
 56 25 l 1
 57 25 l 1
 57 26 l 1
 58 26 l 1
 58 27 l 1
60 27 m 1
 59 27 l 1
 59 26 l 1
 58 26 l 1
 58 25 l 1
 60 25 l 1
 60 27 l 1
63 27 m 1
 61 27 l 1
 61 25 l 1
 63 25 l 1
 63 27 l 1
EndSplineSet
EndChar

StartChar: custom_3_5_0_2_4
Encoding: 30492 30492 10524
Width: 70
Flags: H
LayerCount: 2
Fore
SplineSet
23 43 m 1
 21 43 l 1
 21 41 l 1
 23 41 l 1
 23 43 l 1
26 43 m 1
 24 43 l 1
 24 41 l 1
 25 41 l 1
 25 42 l 1
 26 42 l 1
 26 43 l 1
28 43 m 1
 27 43 l 1
 27 42 l 1
 26 42 l 1
 26 41 l 1
 28 41 l 1
 28 43 l 1
31 43 m 1
 29 43 l 1
 29 41 l 1
 31 41 l 1
 31 43 l 1
31 39 m 1
 29 39 l 1
 29 37 l 1
 31 37 l 1
 31 39 l 1
41 43 m 1
 39 43 l 1
 39 41 l 1
 41 41 l 1
 41 43 l 1
36 37 m 1
 34 37 l 1
 34 35 l 1
 36 35 l 1
 36 37 l 1
31 35 m 1
 29 35 l 1
 29 33 l 1
 31 33 l 1
 31 35 l 1
31 31 m 1
 29 31 l 1
 29 29 l 1
 31 29 l 1
 31 31 l 1
36 33 m 1
 34 33 l 1
 34 31 l 1
 36 31 l 1
 36 33 l 1
41 35 m 1
 39 35 l 1
 39 33 l 1
 41 33 l 1
 41 35 l 1
31 27 m 1
 29 27 l 1
 29 25 l 1
 31 25 l 1
 31 27 l 1
41 27 m 1
 39 27 l 1
 39 25 l 1
 41 25 l 1
 41 27 l 1
44 43 m 1
 42 43 l 1
 42 41 l 1
 43 41 l 1
 43 42 l 1
 44 42 l 1
 44 43 l 1
46 43 m 1
 45 43 l 1
 45 42 l 1
 44 42 l 1
 44 41 l 1
 46 41 l 1
 46 43 l 1
49 43 m 1
 47 43 l 1
 47 41 l 1
 49 41 l 1
 49 43 l 1
49 39 m 1
 47 39 l 1
 47 37 l 1
 49 37 l 1
 49 39 l 1
55 43 m 1
 53 43 l 1
 53 41 l 1
 55 41 l 1
 55 43 l 1
55 39 m 1
 53 39 l 1
 53 37 l 1
 55 37 l 1
 55 39 l 1
58 43 m 1
 56 43 l 1
 56 41 l 1
 57 41 l 1
 57 42 l 1
 58 42 l 1
 58 43 l 1
60 43 m 1
 59 43 l 1
 59 42 l 1
 58 42 l 1
 58 41 l 1
 60 41 l 1
 60 43 l 1
63 43 m 1
 61 43 l 1
 61 41 l 1
 63 41 l 1
 63 43 l 1
43 35 m 1
 42 35 l 1
 42 33 l 1
 44 33 l 1
 44 34 l 1
 43 34 l 1
 43 35 l 1
46 35 m 1
 44 35 l 1
 44 34 l 1
 45 34 l 1
 45 33 l 1
 46 33 l 1
 46 35 l 1
49 35 m 1
 47 35 l 1
 47 33 l 1
 49 33 l 1
 49 35 l 1
49 31 m 1
 47 31 l 1
 47 29 l 1
 49 29 l 1
 49 31 l 1
55 35 m 1
 53 35 l 1
 53 33 l 1
 55 33 l 1
 55 35 l 1
44 27 m 1
 42 27 l 1
 42 25 l 1
 43 25 l 1
 43 26 l 1
 44 26 l 1
 44 27 l 1
46 27 m 1
 45 27 l 1
 45 26 l 1
 44 26 l 1
 44 25 l 1
 46 25 l 1
 46 27 l 1
49 27 m 1
 47 27 l 1
 47 25 l 1
 49 25 l 1
 49 27 l 1
55 27 m 1
 53 27 l 1
 53 25 l 1
 55 25 l 1
 55 27 l 1
57 35 m 1
 56 35 l 1
 56 33 l 1
 58 33 l 1
 58 34 l 1
 57 34 l 1
 57 35 l 1
60 35 m 1
 58 35 l 1
 58 34 l 1
 59 34 l 1
 59 33 l 1
 60 33 l 1
 60 35 l 1
63 35 m 1
 61 35 l 1
 61 33 l 1
 63 33 l 1
 63 35 l 1
63 31 m 1
 61 31 l 1
 61 29 l 1
 63 29 l 1
 63 31 l 1
58 27 m 1
 56 27 l 1
 56 25 l 1
 57 25 l 1
 57 26 l 1
 58 26 l 1
 58 27 l 1
60 27 m 1
 59 27 l 1
 59 26 l 1
 58 26 l 1
 58 25 l 1
 60 25 l 1
 60 27 l 1
63 27 m 1
 61 27 l 1
 61 25 l 1
 63 25 l 1
 63 27 l 1
EndSplineSet
EndChar

StartChar: custom_3_5_0_2_5
Encoding: 30493 30493 10525
Width: 70
Flags: H
LayerCount: 2
Fore
SplineSet
23 43 m 1
 21 43 l 1
 21 41 l 1
 23 41 l 1
 23 43 l 1
26 43 m 1
 24 43 l 1
 24 41 l 1
 25 41 l 1
 25 42 l 1
 26 42 l 1
 26 43 l 1
28 43 m 1
 27 43 l 1
 27 42 l 1
 26 42 l 1
 26 41 l 1
 28 41 l 1
 28 43 l 1
31 43 m 1
 29 43 l 1
 29 41 l 1
 31 41 l 1
 31 43 l 1
31 39 m 1
 29 39 l 1
 29 37 l 1
 31 37 l 1
 31 39 l 1
41 43 m 1
 39 43 l 1
 39 41 l 1
 41 41 l 1
 41 43 l 1
36 37 m 1
 34 37 l 1
 34 35 l 1
 36 35 l 1
 36 37 l 1
31 35 m 1
 29 35 l 1
 29 33 l 1
 31 33 l 1
 31 35 l 1
31 31 m 1
 29 31 l 1
 29 29 l 1
 31 29 l 1
 31 31 l 1
36 33 m 1
 34 33 l 1
 34 31 l 1
 36 31 l 1
 36 33 l 1
41 35 m 1
 39 35 l 1
 39 33 l 1
 41 33 l 1
 41 35 l 1
31 27 m 1
 29 27 l 1
 29 25 l 1
 31 25 l 1
 31 27 l 1
41 27 m 1
 39 27 l 1
 39 25 l 1
 41 25 l 1
 41 27 l 1
44 43 m 1
 42 43 l 1
 42 41 l 1
 43 41 l 1
 43 42 l 1
 44 42 l 1
 44 43 l 1
46 43 m 1
 45 43 l 1
 45 42 l 1
 44 42 l 1
 44 41 l 1
 46 41 l 1
 46 43 l 1
49 43 m 1
 47 43 l 1
 47 41 l 1
 49 41 l 1
 49 43 l 1
49 39 m 1
 47 39 l 1
 47 37 l 1
 49 37 l 1
 49 39 l 1
55 43 m 1
 53 43 l 1
 53 41 l 1
 55 41 l 1
 55 43 l 1
55 39 m 1
 53 39 l 1
 53 37 l 1
 55 37 l 1
 55 39 l 1
58 43 m 1
 56 43 l 1
 56 41 l 1
 57 41 l 1
 57 42 l 1
 58 42 l 1
 58 43 l 1
60 43 m 1
 59 43 l 1
 59 42 l 1
 58 42 l 1
 58 41 l 1
 60 41 l 1
 60 43 l 1
63 43 m 1
 61 43 l 1
 61 41 l 1
 63 41 l 1
 63 43 l 1
43 35 m 1
 42 35 l 1
 42 33 l 1
 44 33 l 1
 44 34 l 1
 43 34 l 1
 43 35 l 1
46 35 m 1
 44 35 l 1
 44 34 l 1
 45 34 l 1
 45 33 l 1
 46 33 l 1
 46 35 l 1
49 35 m 1
 47 35 l 1
 47 33 l 1
 49 33 l 1
 49 35 l 1
49 31 m 1
 47 31 l 1
 47 29 l 1
 49 29 l 1
 49 31 l 1
55 35 m 1
 53 35 l 1
 53 33 l 1
 55 33 l 1
 55 35 l 1
44 27 m 1
 42 27 l 1
 42 25 l 1
 43 25 l 1
 43 26 l 1
 44 26 l 1
 44 27 l 1
46 27 m 1
 45 27 l 1
 45 26 l 1
 44 26 l 1
 44 25 l 1
 46 25 l 1
 46 27 l 1
49 27 m 1
 47 27 l 1
 47 25 l 1
 49 25 l 1
 49 27 l 1
55 27 m 1
 53 27 l 1
 53 25 l 1
 55 25 l 1
 55 27 l 1
57 35 m 1
 56 35 l 1
 56 33 l 1
 58 33 l 1
 58 34 l 1
 57 34 l 1
 57 35 l 1
60 35 m 1
 58 35 l 1
 58 34 l 1
 59 34 l 1
 59 33 l 1
 60 33 l 1
 60 35 l 1
63 35 m 1
 61 35 l 1
 61 33 l 1
 63 33 l 1
 63 35 l 1
63 31 m 1
 61 31 l 1
 61 29 l 1
 63 29 l 1
 63 31 l 1
58 27 m 1
 56 27 l 1
 56 25 l 1
 57 25 l 1
 57 26 l 1
 58 26 l 1
 58 27 l 1
60 27 m 1
 59 27 l 1
 59 26 l 1
 58 26 l 1
 58 25 l 1
 60 25 l 1
 60 27 l 1
63 27 m 1
 61 27 l 1
 61 25 l 1
 63 25 l 1
 63 27 l 1
EndSplineSet
EndChar

StartChar: custom_3_5_0_2_6
Encoding: 30494 30494 10526
Width: 70
Flags: H
LayerCount: 2
Fore
SplineSet
23 43 m 1
 21 43 l 1
 21 41 l 1
 23 41 l 1
 23 43 l 1
26 43 m 1
 24 43 l 1
 24 41 l 1
 25 41 l 1
 25 42 l 1
 26 42 l 1
 26 43 l 1
28 43 m 1
 27 43 l 1
 27 42 l 1
 26 42 l 1
 26 41 l 1
 28 41 l 1
 28 43 l 1
31 43 m 1
 29 43 l 1
 29 41 l 1
 31 41 l 1
 31 43 l 1
31 39 m 1
 29 39 l 1
 29 37 l 1
 31 37 l 1
 31 39 l 1
41 43 m 1
 39 43 l 1
 39 41 l 1
 41 41 l 1
 41 43 l 1
36 37 m 1
 34 37 l 1
 34 35 l 1
 36 35 l 1
 36 37 l 1
31 35 m 1
 29 35 l 1
 29 33 l 1
 31 33 l 1
 31 35 l 1
31 31 m 1
 29 31 l 1
 29 29 l 1
 31 29 l 1
 31 31 l 1
36 33 m 1
 34 33 l 1
 34 31 l 1
 36 31 l 1
 36 33 l 1
41 35 m 1
 39 35 l 1
 39 33 l 1
 41 33 l 1
 41 35 l 1
31 27 m 1
 29 27 l 1
 29 25 l 1
 31 25 l 1
 31 27 l 1
41 27 m 1
 39 27 l 1
 39 25 l 1
 41 25 l 1
 41 27 l 1
44 43 m 1
 42 43 l 1
 42 41 l 1
 43 41 l 1
 43 42 l 1
 44 42 l 1
 44 43 l 1
46 43 m 1
 45 43 l 1
 45 42 l 1
 44 42 l 1
 44 41 l 1
 46 41 l 1
 46 43 l 1
49 43 m 1
 47 43 l 1
 47 41 l 1
 49 41 l 1
 49 43 l 1
49 39 m 1
 47 39 l 1
 47 37 l 1
 49 37 l 1
 49 39 l 1
55 43 m 1
 53 43 l 1
 53 41 l 1
 55 41 l 1
 55 43 l 1
55 39 m 1
 53 39 l 1
 53 37 l 1
 55 37 l 1
 55 39 l 1
58 43 m 1
 56 43 l 1
 56 41 l 1
 57 41 l 1
 57 42 l 1
 58 42 l 1
 58 43 l 1
60 43 m 1
 59 43 l 1
 59 42 l 1
 58 42 l 1
 58 41 l 1
 60 41 l 1
 60 43 l 1
63 43 m 1
 61 43 l 1
 61 41 l 1
 63 41 l 1
 63 43 l 1
43 35 m 1
 42 35 l 1
 42 33 l 1
 44 33 l 1
 44 34 l 1
 43 34 l 1
 43 35 l 1
46 35 m 1
 44 35 l 1
 44 34 l 1
 45 34 l 1
 45 33 l 1
 46 33 l 1
 46 35 l 1
49 35 m 1
 47 35 l 1
 47 33 l 1
 49 33 l 1
 49 35 l 1
49 31 m 1
 47 31 l 1
 47 29 l 1
 49 29 l 1
 49 31 l 1
55 35 m 1
 53 35 l 1
 53 33 l 1
 55 33 l 1
 55 35 l 1
44 27 m 1
 42 27 l 1
 42 25 l 1
 43 25 l 1
 43 26 l 1
 44 26 l 1
 44 27 l 1
46 27 m 1
 45 27 l 1
 45 26 l 1
 44 26 l 1
 44 25 l 1
 46 25 l 1
 46 27 l 1
49 27 m 1
 47 27 l 1
 47 25 l 1
 49 25 l 1
 49 27 l 1
55 27 m 1
 53 27 l 1
 53 25 l 1
 55 25 l 1
 55 27 l 1
57 35 m 1
 56 35 l 1
 56 33 l 1
 58 33 l 1
 58 34 l 1
 57 34 l 1
 57 35 l 1
60 35 m 1
 58 35 l 1
 58 34 l 1
 59 34 l 1
 59 33 l 1
 60 33 l 1
 60 35 l 1
63 35 m 1
 61 35 l 1
 61 33 l 1
 63 33 l 1
 63 35 l 1
63 31 m 1
 61 31 l 1
 61 29 l 1
 63 29 l 1
 63 31 l 1
58 27 m 1
 56 27 l 1
 56 25 l 1
 57 25 l 1
 57 26 l 1
 58 26 l 1
 58 27 l 1
60 27 m 1
 59 27 l 1
 59 26 l 1
 58 26 l 1
 58 25 l 1
 60 25 l 1
 60 27 l 1
63 27 m 1
 61 27 l 1
 61 25 l 1
 63 25 l 1
 63 27 l 1
EndSplineSet
EndChar

StartChar: custom_3_5_0_2_7
Encoding: 30495 30495 10527
Width: 70
Flags: H
LayerCount: 2
Fore
SplineSet
23 43 m 1
 21 43 l 1
 21 41 l 1
 23 41 l 1
 23 43 l 1
26 43 m 1
 24 43 l 1
 24 41 l 1
 25 41 l 1
 25 42 l 1
 26 42 l 1
 26 43 l 1
28 43 m 1
 27 43 l 1
 27 42 l 1
 26 42 l 1
 26 41 l 1
 28 41 l 1
 28 43 l 1
31 43 m 1
 29 43 l 1
 29 41 l 1
 31 41 l 1
 31 43 l 1
31 39 m 1
 29 39 l 1
 29 37 l 1
 31 37 l 1
 31 39 l 1
41 43 m 1
 39 43 l 1
 39 41 l 1
 41 41 l 1
 41 43 l 1
36 37 m 1
 34 37 l 1
 34 35 l 1
 36 35 l 1
 36 37 l 1
31 35 m 1
 29 35 l 1
 29 33 l 1
 31 33 l 1
 31 35 l 1
31 31 m 1
 29 31 l 1
 29 29 l 1
 31 29 l 1
 31 31 l 1
36 33 m 1
 34 33 l 1
 34 31 l 1
 36 31 l 1
 36 33 l 1
41 35 m 1
 39 35 l 1
 39 33 l 1
 41 33 l 1
 41 35 l 1
31 27 m 1
 29 27 l 1
 29 25 l 1
 31 25 l 1
 31 27 l 1
41 27 m 1
 39 27 l 1
 39 25 l 1
 41 25 l 1
 41 27 l 1
44 43 m 1
 42 43 l 1
 42 41 l 1
 43 41 l 1
 43 42 l 1
 44 42 l 1
 44 43 l 1
46 43 m 1
 45 43 l 1
 45 42 l 1
 44 42 l 1
 44 41 l 1
 46 41 l 1
 46 43 l 1
49 43 m 1
 47 43 l 1
 47 41 l 1
 49 41 l 1
 49 43 l 1
49 39 m 1
 47 39 l 1
 47 37 l 1
 49 37 l 1
 49 39 l 1
55 43 m 1
 53 43 l 1
 53 41 l 1
 55 41 l 1
 55 43 l 1
55 39 m 1
 53 39 l 1
 53 37 l 1
 55 37 l 1
 55 39 l 1
58 43 m 1
 56 43 l 1
 56 41 l 1
 57 41 l 1
 57 42 l 1
 58 42 l 1
 58 43 l 1
60 43 m 1
 59 43 l 1
 59 42 l 1
 58 42 l 1
 58 41 l 1
 60 41 l 1
 60 43 l 1
63 43 m 1
 61 43 l 1
 61 41 l 1
 63 41 l 1
 63 43 l 1
43 35 m 1
 42 35 l 1
 42 33 l 1
 44 33 l 1
 44 34 l 1
 43 34 l 1
 43 35 l 1
46 35 m 1
 44 35 l 1
 44 34 l 1
 45 34 l 1
 45 33 l 1
 46 33 l 1
 46 35 l 1
49 35 m 1
 47 35 l 1
 47 33 l 1
 49 33 l 1
 49 35 l 1
49 31 m 1
 47 31 l 1
 47 29 l 1
 49 29 l 1
 49 31 l 1
55 35 m 1
 53 35 l 1
 53 33 l 1
 55 33 l 1
 55 35 l 1
44 27 m 1
 42 27 l 1
 42 25 l 1
 43 25 l 1
 43 26 l 1
 44 26 l 1
 44 27 l 1
46 27 m 1
 45 27 l 1
 45 26 l 1
 44 26 l 1
 44 25 l 1
 46 25 l 1
 46 27 l 1
49 27 m 1
 47 27 l 1
 47 25 l 1
 49 25 l 1
 49 27 l 1
55 27 m 1
 53 27 l 1
 53 25 l 1
 55 25 l 1
 55 27 l 1
57 35 m 1
 56 35 l 1
 56 33 l 1
 58 33 l 1
 58 34 l 1
 57 34 l 1
 57 35 l 1
60 35 m 1
 58 35 l 1
 58 34 l 1
 59 34 l 1
 59 33 l 1
 60 33 l 1
 60 35 l 1
63 35 m 1
 61 35 l 1
 61 33 l 1
 63 33 l 1
 63 35 l 1
63 31 m 1
 61 31 l 1
 61 29 l 1
 63 29 l 1
 63 31 l 1
58 27 m 1
 56 27 l 1
 56 25 l 1
 57 25 l 1
 57 26 l 1
 58 26 l 1
 58 27 l 1
60 27 m 1
 59 27 l 1
 59 26 l 1
 58 26 l 1
 58 25 l 1
 60 25 l 1
 60 27 l 1
63 27 m 1
 61 27 l 1
 61 25 l 1
 63 25 l 1
 63 27 l 1
EndSplineSet
EndChar

StartChar: custom_3_5_0_2_8
Encoding: 30496 30496 10528
Width: 70
Flags: H
LayerCount: 2
Fore
SplineSet
23 43 m 1
 21 43 l 1
 21 41 l 1
 23 41 l 1
 23 43 l 1
26 43 m 1
 24 43 l 1
 24 41 l 1
 25 41 l 1
 25 42 l 1
 26 42 l 1
 26 43 l 1
28 43 m 1
 27 43 l 1
 27 42 l 1
 26 42 l 1
 26 41 l 1
 28 41 l 1
 28 43 l 1
31 43 m 1
 29 43 l 1
 29 41 l 1
 31 41 l 1
 31 43 l 1
31 39 m 1
 29 39 l 1
 29 37 l 1
 31 37 l 1
 31 39 l 1
41 43 m 1
 39 43 l 1
 39 41 l 1
 41 41 l 1
 41 43 l 1
36 37 m 1
 34 37 l 1
 34 35 l 1
 36 35 l 1
 36 37 l 1
31 35 m 1
 29 35 l 1
 29 33 l 1
 31 33 l 1
 31 35 l 1
31 31 m 1
 29 31 l 1
 29 29 l 1
 31 29 l 1
 31 31 l 1
36 33 m 1
 34 33 l 1
 34 31 l 1
 36 31 l 1
 36 33 l 1
41 35 m 1
 39 35 l 1
 39 33 l 1
 41 33 l 1
 41 35 l 1
31 27 m 1
 29 27 l 1
 29 25 l 1
 31 25 l 1
 31 27 l 1
41 27 m 1
 39 27 l 1
 39 25 l 1
 41 25 l 1
 41 27 l 1
44 43 m 1
 42 43 l 1
 42 41 l 1
 43 41 l 1
 43 42 l 1
 44 42 l 1
 44 43 l 1
46 43 m 1
 45 43 l 1
 45 42 l 1
 44 42 l 1
 44 41 l 1
 46 41 l 1
 46 43 l 1
49 43 m 1
 47 43 l 1
 47 41 l 1
 49 41 l 1
 49 43 l 1
49 39 m 1
 47 39 l 1
 47 37 l 1
 49 37 l 1
 49 39 l 1
55 43 m 1
 53 43 l 1
 53 41 l 1
 55 41 l 1
 55 43 l 1
55 39 m 1
 53 39 l 1
 53 37 l 1
 55 37 l 1
 55 39 l 1
58 43 m 1
 56 43 l 1
 56 41 l 1
 57 41 l 1
 57 42 l 1
 58 42 l 1
 58 43 l 1
60 43 m 1
 59 43 l 1
 59 42 l 1
 58 42 l 1
 58 41 l 1
 60 41 l 1
 60 43 l 1
63 43 m 1
 61 43 l 1
 61 41 l 1
 63 41 l 1
 63 43 l 1
43 35 m 1
 42 35 l 1
 42 33 l 1
 44 33 l 1
 44 34 l 1
 43 34 l 1
 43 35 l 1
46 35 m 1
 44 35 l 1
 44 34 l 1
 45 34 l 1
 45 33 l 1
 46 33 l 1
 46 35 l 1
49 35 m 1
 47 35 l 1
 47 33 l 1
 49 33 l 1
 49 35 l 1
49 31 m 1
 47 31 l 1
 47 29 l 1
 49 29 l 1
 49 31 l 1
55 35 m 1
 53 35 l 1
 53 33 l 1
 55 33 l 1
 55 35 l 1
44 27 m 1
 42 27 l 1
 42 25 l 1
 43 25 l 1
 43 26 l 1
 44 26 l 1
 44 27 l 1
46 27 m 1
 45 27 l 1
 45 26 l 1
 44 26 l 1
 44 25 l 1
 46 25 l 1
 46 27 l 1
49 27 m 1
 47 27 l 1
 47 25 l 1
 49 25 l 1
 49 27 l 1
55 27 m 1
 53 27 l 1
 53 25 l 1
 55 25 l 1
 55 27 l 1
57 35 m 1
 56 35 l 1
 56 33 l 1
 58 33 l 1
 58 34 l 1
 57 34 l 1
 57 35 l 1
60 35 m 1
 58 35 l 1
 58 34 l 1
 59 34 l 1
 59 33 l 1
 60 33 l 1
 60 35 l 1
63 35 m 1
 61 35 l 1
 61 33 l 1
 63 33 l 1
 63 35 l 1
63 31 m 1
 61 31 l 1
 61 29 l 1
 63 29 l 1
 63 31 l 1
58 27 m 1
 56 27 l 1
 56 25 l 1
 57 25 l 1
 57 26 l 1
 58 26 l 1
 58 27 l 1
60 27 m 1
 59 27 l 1
 59 26 l 1
 58 26 l 1
 58 25 l 1
 60 25 l 1
 60 27 l 1
63 27 m 1
 61 27 l 1
 61 25 l 1
 63 25 l 1
 63 27 l 1
EndSplineSet
EndChar

StartChar: custom_3_5_0_2_9
Encoding: 30497 30497 10529
Width: 70
Flags: H
LayerCount: 2
Fore
SplineSet
23 43 m 1
 21 43 l 1
 21 41 l 1
 23 41 l 1
 23 43 l 1
26 43 m 1
 24 43 l 1
 24 41 l 1
 25 41 l 1
 25 42 l 1
 26 42 l 1
 26 43 l 1
28 43 m 1
 27 43 l 1
 27 42 l 1
 26 42 l 1
 26 41 l 1
 28 41 l 1
 28 43 l 1
31 43 m 1
 29 43 l 1
 29 41 l 1
 31 41 l 1
 31 43 l 1
31 39 m 1
 29 39 l 1
 29 37 l 1
 31 37 l 1
 31 39 l 1
41 43 m 1
 39 43 l 1
 39 41 l 1
 41 41 l 1
 41 43 l 1
36 37 m 1
 34 37 l 1
 34 35 l 1
 36 35 l 1
 36 37 l 1
31 35 m 1
 29 35 l 1
 29 33 l 1
 31 33 l 1
 31 35 l 1
31 31 m 1
 29 31 l 1
 29 29 l 1
 31 29 l 1
 31 31 l 1
36 33 m 1
 34 33 l 1
 34 31 l 1
 36 31 l 1
 36 33 l 1
41 35 m 1
 39 35 l 1
 39 33 l 1
 41 33 l 1
 41 35 l 1
31 27 m 1
 29 27 l 1
 29 25 l 1
 31 25 l 1
 31 27 l 1
41 27 m 1
 39 27 l 1
 39 25 l 1
 41 25 l 1
 41 27 l 1
44 43 m 1
 42 43 l 1
 42 41 l 1
 43 41 l 1
 43 42 l 1
 44 42 l 1
 44 43 l 1
46 43 m 1
 45 43 l 1
 45 42 l 1
 44 42 l 1
 44 41 l 1
 46 41 l 1
 46 43 l 1
49 43 m 1
 47 43 l 1
 47 41 l 1
 49 41 l 1
 49 43 l 1
49 39 m 1
 47 39 l 1
 47 37 l 1
 49 37 l 1
 49 39 l 1
55 43 m 1
 53 43 l 1
 53 41 l 1
 55 41 l 1
 55 43 l 1
55 39 m 1
 53 39 l 1
 53 37 l 1
 55 37 l 1
 55 39 l 1
58 43 m 1
 56 43 l 1
 56 41 l 1
 57 41 l 1
 57 42 l 1
 58 42 l 1
 58 43 l 1
60 43 m 1
 59 43 l 1
 59 42 l 1
 58 42 l 1
 58 41 l 1
 60 41 l 1
 60 43 l 1
63 43 m 1
 61 43 l 1
 61 41 l 1
 63 41 l 1
 63 43 l 1
43 35 m 1
 42 35 l 1
 42 33 l 1
 44 33 l 1
 44 34 l 1
 43 34 l 1
 43 35 l 1
46 35 m 1
 44 35 l 1
 44 34 l 1
 45 34 l 1
 45 33 l 1
 46 33 l 1
 46 35 l 1
49 35 m 1
 47 35 l 1
 47 33 l 1
 49 33 l 1
 49 35 l 1
49 31 m 1
 47 31 l 1
 47 29 l 1
 49 29 l 1
 49 31 l 1
55 35 m 1
 53 35 l 1
 53 33 l 1
 55 33 l 1
 55 35 l 1
44 27 m 1
 42 27 l 1
 42 25 l 1
 43 25 l 1
 43 26 l 1
 44 26 l 1
 44 27 l 1
46 27 m 1
 45 27 l 1
 45 26 l 1
 44 26 l 1
 44 25 l 1
 46 25 l 1
 46 27 l 1
49 27 m 1
 47 27 l 1
 47 25 l 1
 49 25 l 1
 49 27 l 1
55 27 m 1
 53 27 l 1
 53 25 l 1
 55 25 l 1
 55 27 l 1
57 35 m 1
 56 35 l 1
 56 33 l 1
 58 33 l 1
 58 34 l 1
 57 34 l 1
 57 35 l 1
60 35 m 1
 58 35 l 1
 58 34 l 1
 59 34 l 1
 59 33 l 1
 60 33 l 1
 60 35 l 1
63 35 m 1
 61 35 l 1
 61 33 l 1
 63 33 l 1
 63 35 l 1
63 31 m 1
 61 31 l 1
 61 29 l 1
 63 29 l 1
 63 31 l 1
58 27 m 1
 56 27 l 1
 56 25 l 1
 57 25 l 1
 57 26 l 1
 58 26 l 1
 58 27 l 1
60 27 m 1
 59 27 l 1
 59 26 l 1
 58 26 l 1
 58 25 l 1
 60 25 l 1
 60 27 l 1
63 27 m 1
 61 27 l 1
 61 25 l 1
 63 25 l 1
 63 27 l 1
EndSplineSet
EndChar

StartChar: custom_3_5_0_3_0
Encoding: 30498 30498 10530
Width: 70
Flags: H
LayerCount: 2
Fore
SplineSet
23 43 m 1
 21 43 l 1
 21 41 l 1
 23 41 l 1
 23 43 l 1
26 43 m 1
 24 43 l 1
 24 41 l 1
 25 41 l 1
 25 42 l 1
 26 42 l 1
 26 43 l 1
28 43 m 1
 27 43 l 1
 27 42 l 1
 26 42 l 1
 26 41 l 1
 28 41 l 1
 28 43 l 1
31 43 m 1
 29 43 l 1
 29 41 l 1
 31 41 l 1
 31 43 l 1
31 39 m 1
 29 39 l 1
 29 37 l 1
 31 37 l 1
 31 39 l 1
41 43 m 1
 39 43 l 1
 39 41 l 1
 41 41 l 1
 41 43 l 1
36 37 m 1
 34 37 l 1
 34 35 l 1
 36 35 l 1
 36 37 l 1
31 35 m 1
 29 35 l 1
 29 33 l 1
 31 33 l 1
 31 35 l 1
31 31 m 1
 29 31 l 1
 29 29 l 1
 31 29 l 1
 31 31 l 1
36 33 m 1
 34 33 l 1
 34 31 l 1
 36 31 l 1
 36 33 l 1
41 35 m 1
 39 35 l 1
 39 33 l 1
 41 33 l 1
 41 35 l 1
31 27 m 1
 29 27 l 1
 29 25 l 1
 31 25 l 1
 31 27 l 1
41 27 m 1
 39 27 l 1
 39 25 l 1
 41 25 l 1
 41 27 l 1
44 43 m 1
 42 43 l 1
 42 41 l 1
 43 41 l 1
 43 42 l 1
 44 42 l 1
 44 43 l 1
46 43 m 1
 45 43 l 1
 45 42 l 1
 44 42 l 1
 44 41 l 1
 46 41 l 1
 46 43 l 1
49 43 m 1
 47 43 l 1
 47 41 l 1
 49 41 l 1
 49 43 l 1
49 39 m 1
 47 39 l 1
 47 37 l 1
 49 37 l 1
 49 39 l 1
55 43 m 1
 53 43 l 1
 53 41 l 1
 55 41 l 1
 55 43 l 1
55 39 m 1
 53 39 l 1
 53 37 l 1
 55 37 l 1
 55 39 l 1
58 43 m 1
 56 43 l 1
 56 41 l 1
 57 41 l 1
 57 42 l 1
 58 42 l 1
 58 43 l 1
60 43 m 1
 59 43 l 1
 59 42 l 1
 58 42 l 1
 58 41 l 1
 60 41 l 1
 60 43 l 1
63 43 m 1
 61 43 l 1
 61 41 l 1
 63 41 l 1
 63 43 l 1
43 35 m 1
 42 35 l 1
 42 33 l 1
 44 33 l 1
 44 34 l 1
 43 34 l 1
 43 35 l 1
46 35 m 1
 44 35 l 1
 44 34 l 1
 45 34 l 1
 45 33 l 1
 46 33 l 1
 46 35 l 1
49 35 m 1
 47 35 l 1
 47 33 l 1
 49 33 l 1
 49 35 l 1
49 31 m 1
 47 31 l 1
 47 29 l 1
 49 29 l 1
 49 31 l 1
55 35 m 1
 53 35 l 1
 53 33 l 1
 55 33 l 1
 55 35 l 1
44 27 m 1
 42 27 l 1
 42 25 l 1
 43 25 l 1
 43 26 l 1
 44 26 l 1
 44 27 l 1
46 27 m 1
 45 27 l 1
 45 26 l 1
 44 26 l 1
 44 25 l 1
 46 25 l 1
 46 27 l 1
49 27 m 1
 47 27 l 1
 47 25 l 1
 49 25 l 1
 49 27 l 1
55 27 m 1
 53 27 l 1
 53 25 l 1
 55 25 l 1
 55 27 l 1
57 35 m 1
 56 35 l 1
 56 33 l 1
 58 33 l 1
 58 34 l 1
 57 34 l 1
 57 35 l 1
60 35 m 1
 58 35 l 1
 58 34 l 1
 59 34 l 1
 59 33 l 1
 60 33 l 1
 60 35 l 1
63 35 m 1
 61 35 l 1
 61 33 l 1
 63 33 l 1
 63 35 l 1
63 31 m 1
 61 31 l 1
 61 29 l 1
 63 29 l 1
 63 31 l 1
58 27 m 1
 56 27 l 1
 56 25 l 1
 57 25 l 1
 57 26 l 1
 58 26 l 1
 58 27 l 1
60 27 m 1
 59 27 l 1
 59 26 l 1
 58 26 l 1
 58 25 l 1
 60 25 l 1
 60 27 l 1
63 27 m 1
 61 27 l 1
 61 25 l 1
 63 25 l 1
 63 27 l 1
EndSplineSet
EndChar

StartChar: custom_3_5_0_3_1
Encoding: 30499 30499 10531
Width: 70
Flags: H
LayerCount: 2
Fore
SplineSet
23 43 m 1
 21 43 l 1
 21 41 l 1
 23 41 l 1
 23 43 l 1
26 43 m 1
 24 43 l 1
 24 41 l 1
 25 41 l 1
 25 42 l 1
 26 42 l 1
 26 43 l 1
28 43 m 1
 27 43 l 1
 27 42 l 1
 26 42 l 1
 26 41 l 1
 28 41 l 1
 28 43 l 1
31 43 m 1
 29 43 l 1
 29 41 l 1
 31 41 l 1
 31 43 l 1
31 39 m 1
 29 39 l 1
 29 37 l 1
 31 37 l 1
 31 39 l 1
41 43 m 1
 39 43 l 1
 39 41 l 1
 41 41 l 1
 41 43 l 1
36 37 m 1
 34 37 l 1
 34 35 l 1
 36 35 l 1
 36 37 l 1
31 35 m 1
 29 35 l 1
 29 33 l 1
 31 33 l 1
 31 35 l 1
31 31 m 1
 29 31 l 1
 29 29 l 1
 31 29 l 1
 31 31 l 1
36 33 m 1
 34 33 l 1
 34 31 l 1
 36 31 l 1
 36 33 l 1
41 35 m 1
 39 35 l 1
 39 33 l 1
 41 33 l 1
 41 35 l 1
31 27 m 1
 29 27 l 1
 29 25 l 1
 31 25 l 1
 31 27 l 1
41 27 m 1
 39 27 l 1
 39 25 l 1
 41 25 l 1
 41 27 l 1
44 43 m 1
 42 43 l 1
 42 41 l 1
 43 41 l 1
 43 42 l 1
 44 42 l 1
 44 43 l 1
46 43 m 1
 45 43 l 1
 45 42 l 1
 44 42 l 1
 44 41 l 1
 46 41 l 1
 46 43 l 1
49 43 m 1
 47 43 l 1
 47 41 l 1
 49 41 l 1
 49 43 l 1
49 39 m 1
 47 39 l 1
 47 37 l 1
 49 37 l 1
 49 39 l 1
55 43 m 1
 53 43 l 1
 53 41 l 1
 55 41 l 1
 55 43 l 1
55 39 m 1
 53 39 l 1
 53 37 l 1
 55 37 l 1
 55 39 l 1
58 43 m 1
 56 43 l 1
 56 41 l 1
 57 41 l 1
 57 42 l 1
 58 42 l 1
 58 43 l 1
60 43 m 1
 59 43 l 1
 59 42 l 1
 58 42 l 1
 58 41 l 1
 60 41 l 1
 60 43 l 1
63 43 m 1
 61 43 l 1
 61 41 l 1
 63 41 l 1
 63 43 l 1
43 35 m 1
 42 35 l 1
 42 33 l 1
 44 33 l 1
 44 34 l 1
 43 34 l 1
 43 35 l 1
46 35 m 1
 44 35 l 1
 44 34 l 1
 45 34 l 1
 45 33 l 1
 46 33 l 1
 46 35 l 1
49 35 m 1
 47 35 l 1
 47 33 l 1
 49 33 l 1
 49 35 l 1
49 31 m 1
 47 31 l 1
 47 29 l 1
 49 29 l 1
 49 31 l 1
55 35 m 1
 53 35 l 1
 53 33 l 1
 55 33 l 1
 55 35 l 1
44 27 m 1
 42 27 l 1
 42 25 l 1
 43 25 l 1
 43 26 l 1
 44 26 l 1
 44 27 l 1
46 27 m 1
 45 27 l 1
 45 26 l 1
 44 26 l 1
 44 25 l 1
 46 25 l 1
 46 27 l 1
49 27 m 1
 47 27 l 1
 47 25 l 1
 49 25 l 1
 49 27 l 1
55 27 m 1
 53 27 l 1
 53 25 l 1
 55 25 l 1
 55 27 l 1
57 35 m 1
 56 35 l 1
 56 33 l 1
 58 33 l 1
 58 34 l 1
 57 34 l 1
 57 35 l 1
60 35 m 1
 58 35 l 1
 58 34 l 1
 59 34 l 1
 59 33 l 1
 60 33 l 1
 60 35 l 1
63 35 m 1
 61 35 l 1
 61 33 l 1
 63 33 l 1
 63 35 l 1
63 31 m 1
 61 31 l 1
 61 29 l 1
 63 29 l 1
 63 31 l 1
58 27 m 1
 56 27 l 1
 56 25 l 1
 57 25 l 1
 57 26 l 1
 58 26 l 1
 58 27 l 1
60 27 m 1
 59 27 l 1
 59 26 l 1
 58 26 l 1
 58 25 l 1
 60 25 l 1
 60 27 l 1
63 27 m 1
 61 27 l 1
 61 25 l 1
 63 25 l 1
 63 27 l 1
EndSplineSet
EndChar

StartChar: custom_3_5_0_3_2
Encoding: 30500 30500 10532
Width: 70
Flags: H
LayerCount: 2
Fore
SplineSet
23 43 m 1
 21 43 l 1
 21 41 l 1
 23 41 l 1
 23 43 l 1
26 43 m 1
 24 43 l 1
 24 41 l 1
 25 41 l 1
 25 42 l 1
 26 42 l 1
 26 43 l 1
28 43 m 1
 27 43 l 1
 27 42 l 1
 26 42 l 1
 26 41 l 1
 28 41 l 1
 28 43 l 1
31 43 m 1
 29 43 l 1
 29 41 l 1
 31 41 l 1
 31 43 l 1
31 39 m 1
 29 39 l 1
 29 37 l 1
 31 37 l 1
 31 39 l 1
41 43 m 1
 39 43 l 1
 39 41 l 1
 41 41 l 1
 41 43 l 1
36 37 m 1
 34 37 l 1
 34 35 l 1
 36 35 l 1
 36 37 l 1
31 35 m 1
 29 35 l 1
 29 33 l 1
 31 33 l 1
 31 35 l 1
31 31 m 1
 29 31 l 1
 29 29 l 1
 31 29 l 1
 31 31 l 1
36 33 m 1
 34 33 l 1
 34 31 l 1
 36 31 l 1
 36 33 l 1
41 35 m 1
 39 35 l 1
 39 33 l 1
 41 33 l 1
 41 35 l 1
31 27 m 1
 29 27 l 1
 29 25 l 1
 31 25 l 1
 31 27 l 1
41 27 m 1
 39 27 l 1
 39 25 l 1
 41 25 l 1
 41 27 l 1
44 43 m 1
 42 43 l 1
 42 41 l 1
 43 41 l 1
 43 42 l 1
 44 42 l 1
 44 43 l 1
46 43 m 1
 45 43 l 1
 45 42 l 1
 44 42 l 1
 44 41 l 1
 46 41 l 1
 46 43 l 1
49 43 m 1
 47 43 l 1
 47 41 l 1
 49 41 l 1
 49 43 l 1
49 39 m 1
 47 39 l 1
 47 37 l 1
 49 37 l 1
 49 39 l 1
55 43 m 1
 53 43 l 1
 53 41 l 1
 55 41 l 1
 55 43 l 1
55 39 m 1
 53 39 l 1
 53 37 l 1
 55 37 l 1
 55 39 l 1
58 43 m 1
 56 43 l 1
 56 41 l 1
 57 41 l 1
 57 42 l 1
 58 42 l 1
 58 43 l 1
60 43 m 1
 59 43 l 1
 59 42 l 1
 58 42 l 1
 58 41 l 1
 60 41 l 1
 60 43 l 1
63 43 m 1
 61 43 l 1
 61 41 l 1
 63 41 l 1
 63 43 l 1
43 35 m 1
 42 35 l 1
 42 33 l 1
 44 33 l 1
 44 34 l 1
 43 34 l 1
 43 35 l 1
46 35 m 1
 44 35 l 1
 44 34 l 1
 45 34 l 1
 45 33 l 1
 46 33 l 1
 46 35 l 1
49 35 m 1
 47 35 l 1
 47 33 l 1
 49 33 l 1
 49 35 l 1
49 31 m 1
 47 31 l 1
 47 29 l 1
 49 29 l 1
 49 31 l 1
55 35 m 1
 53 35 l 1
 53 33 l 1
 55 33 l 1
 55 35 l 1
44 27 m 1
 42 27 l 1
 42 25 l 1
 43 25 l 1
 43 26 l 1
 44 26 l 1
 44 27 l 1
46 27 m 1
 45 27 l 1
 45 26 l 1
 44 26 l 1
 44 25 l 1
 46 25 l 1
 46 27 l 1
49 27 m 1
 47 27 l 1
 47 25 l 1
 49 25 l 1
 49 27 l 1
55 27 m 1
 53 27 l 1
 53 25 l 1
 55 25 l 1
 55 27 l 1
57 35 m 1
 56 35 l 1
 56 33 l 1
 58 33 l 1
 58 34 l 1
 57 34 l 1
 57 35 l 1
60 35 m 1
 58 35 l 1
 58 34 l 1
 59 34 l 1
 59 33 l 1
 60 33 l 1
 60 35 l 1
63 35 m 1
 61 35 l 1
 61 33 l 1
 63 33 l 1
 63 35 l 1
63 31 m 1
 61 31 l 1
 61 29 l 1
 63 29 l 1
 63 31 l 1
58 27 m 1
 56 27 l 1
 56 25 l 1
 57 25 l 1
 57 26 l 1
 58 26 l 1
 58 27 l 1
60 27 m 1
 59 27 l 1
 59 26 l 1
 58 26 l 1
 58 25 l 1
 60 25 l 1
 60 27 l 1
63 27 m 1
 61 27 l 1
 61 25 l 1
 63 25 l 1
 63 27 l 1
EndSplineSet
EndChar

StartChar: custom_3_5_0_3_3
Encoding: 30501 30501 10533
Width: 70
Flags: H
LayerCount: 2
Fore
SplineSet
23 43 m 1
 21 43 l 1
 21 41 l 1
 23 41 l 1
 23 43 l 1
26 43 m 1
 24 43 l 1
 24 41 l 1
 25 41 l 1
 25 42 l 1
 26 42 l 1
 26 43 l 1
28 43 m 1
 27 43 l 1
 27 42 l 1
 26 42 l 1
 26 41 l 1
 28 41 l 1
 28 43 l 1
31 43 m 1
 29 43 l 1
 29 41 l 1
 31 41 l 1
 31 43 l 1
31 39 m 1
 29 39 l 1
 29 37 l 1
 31 37 l 1
 31 39 l 1
41 43 m 1
 39 43 l 1
 39 41 l 1
 41 41 l 1
 41 43 l 1
36 37 m 1
 34 37 l 1
 34 35 l 1
 36 35 l 1
 36 37 l 1
31 35 m 1
 29 35 l 1
 29 33 l 1
 31 33 l 1
 31 35 l 1
31 31 m 1
 29 31 l 1
 29 29 l 1
 31 29 l 1
 31 31 l 1
36 33 m 1
 34 33 l 1
 34 31 l 1
 36 31 l 1
 36 33 l 1
41 35 m 1
 39 35 l 1
 39 33 l 1
 41 33 l 1
 41 35 l 1
31 27 m 1
 29 27 l 1
 29 25 l 1
 31 25 l 1
 31 27 l 1
41 27 m 1
 39 27 l 1
 39 25 l 1
 41 25 l 1
 41 27 l 1
44 43 m 1
 42 43 l 1
 42 41 l 1
 43 41 l 1
 43 42 l 1
 44 42 l 1
 44 43 l 1
46 43 m 1
 45 43 l 1
 45 42 l 1
 44 42 l 1
 44 41 l 1
 46 41 l 1
 46 43 l 1
49 43 m 1
 47 43 l 1
 47 41 l 1
 49 41 l 1
 49 43 l 1
49 39 m 1
 47 39 l 1
 47 37 l 1
 49 37 l 1
 49 39 l 1
55 43 m 1
 53 43 l 1
 53 41 l 1
 55 41 l 1
 55 43 l 1
55 39 m 1
 53 39 l 1
 53 37 l 1
 55 37 l 1
 55 39 l 1
58 43 m 1
 56 43 l 1
 56 41 l 1
 57 41 l 1
 57 42 l 1
 58 42 l 1
 58 43 l 1
60 43 m 1
 59 43 l 1
 59 42 l 1
 58 42 l 1
 58 41 l 1
 60 41 l 1
 60 43 l 1
63 43 m 1
 61 43 l 1
 61 41 l 1
 63 41 l 1
 63 43 l 1
43 35 m 1
 42 35 l 1
 42 33 l 1
 44 33 l 1
 44 34 l 1
 43 34 l 1
 43 35 l 1
46 35 m 1
 44 35 l 1
 44 34 l 1
 45 34 l 1
 45 33 l 1
 46 33 l 1
 46 35 l 1
49 35 m 1
 47 35 l 1
 47 33 l 1
 49 33 l 1
 49 35 l 1
49 31 m 1
 47 31 l 1
 47 29 l 1
 49 29 l 1
 49 31 l 1
55 35 m 1
 53 35 l 1
 53 33 l 1
 55 33 l 1
 55 35 l 1
44 27 m 1
 42 27 l 1
 42 25 l 1
 43 25 l 1
 43 26 l 1
 44 26 l 1
 44 27 l 1
46 27 m 1
 45 27 l 1
 45 26 l 1
 44 26 l 1
 44 25 l 1
 46 25 l 1
 46 27 l 1
49 27 m 1
 47 27 l 1
 47 25 l 1
 49 25 l 1
 49 27 l 1
55 27 m 1
 53 27 l 1
 53 25 l 1
 55 25 l 1
 55 27 l 1
57 35 m 1
 56 35 l 1
 56 33 l 1
 58 33 l 1
 58 34 l 1
 57 34 l 1
 57 35 l 1
60 35 m 1
 58 35 l 1
 58 34 l 1
 59 34 l 1
 59 33 l 1
 60 33 l 1
 60 35 l 1
63 35 m 1
 61 35 l 1
 61 33 l 1
 63 33 l 1
 63 35 l 1
63 31 m 1
 61 31 l 1
 61 29 l 1
 63 29 l 1
 63 31 l 1
58 27 m 1
 56 27 l 1
 56 25 l 1
 57 25 l 1
 57 26 l 1
 58 26 l 1
 58 27 l 1
60 27 m 1
 59 27 l 1
 59 26 l 1
 58 26 l 1
 58 25 l 1
 60 25 l 1
 60 27 l 1
63 27 m 1
 61 27 l 1
 61 25 l 1
 63 25 l 1
 63 27 l 1
EndSplineSet
EndChar

StartChar: custom_3_5_0_3_4
Encoding: 30502 30502 10534
Width: 70
Flags: H
LayerCount: 2
Fore
SplineSet
23 43 m 1
 21 43 l 1
 21 41 l 1
 23 41 l 1
 23 43 l 1
26 43 m 1
 24 43 l 1
 24 41 l 1
 25 41 l 1
 25 42 l 1
 26 42 l 1
 26 43 l 1
28 43 m 1
 27 43 l 1
 27 42 l 1
 26 42 l 1
 26 41 l 1
 28 41 l 1
 28 43 l 1
31 43 m 1
 29 43 l 1
 29 41 l 1
 31 41 l 1
 31 43 l 1
31 39 m 1
 29 39 l 1
 29 37 l 1
 31 37 l 1
 31 39 l 1
41 43 m 1
 39 43 l 1
 39 41 l 1
 41 41 l 1
 41 43 l 1
36 37 m 1
 34 37 l 1
 34 35 l 1
 36 35 l 1
 36 37 l 1
31 35 m 1
 29 35 l 1
 29 33 l 1
 31 33 l 1
 31 35 l 1
31 31 m 1
 29 31 l 1
 29 29 l 1
 31 29 l 1
 31 31 l 1
36 33 m 1
 34 33 l 1
 34 31 l 1
 36 31 l 1
 36 33 l 1
41 35 m 1
 39 35 l 1
 39 33 l 1
 41 33 l 1
 41 35 l 1
31 27 m 1
 29 27 l 1
 29 25 l 1
 31 25 l 1
 31 27 l 1
41 27 m 1
 39 27 l 1
 39 25 l 1
 41 25 l 1
 41 27 l 1
44 43 m 1
 42 43 l 1
 42 41 l 1
 43 41 l 1
 43 42 l 1
 44 42 l 1
 44 43 l 1
46 43 m 1
 45 43 l 1
 45 42 l 1
 44 42 l 1
 44 41 l 1
 46 41 l 1
 46 43 l 1
49 43 m 1
 47 43 l 1
 47 41 l 1
 49 41 l 1
 49 43 l 1
49 39 m 1
 47 39 l 1
 47 37 l 1
 49 37 l 1
 49 39 l 1
55 43 m 1
 53 43 l 1
 53 41 l 1
 55 41 l 1
 55 43 l 1
55 39 m 1
 53 39 l 1
 53 37 l 1
 55 37 l 1
 55 39 l 1
58 43 m 1
 56 43 l 1
 56 41 l 1
 57 41 l 1
 57 42 l 1
 58 42 l 1
 58 43 l 1
60 43 m 1
 59 43 l 1
 59 42 l 1
 58 42 l 1
 58 41 l 1
 60 41 l 1
 60 43 l 1
63 43 m 1
 61 43 l 1
 61 41 l 1
 63 41 l 1
 63 43 l 1
43 35 m 1
 42 35 l 1
 42 33 l 1
 44 33 l 1
 44 34 l 1
 43 34 l 1
 43 35 l 1
46 35 m 1
 44 35 l 1
 44 34 l 1
 45 34 l 1
 45 33 l 1
 46 33 l 1
 46 35 l 1
49 35 m 1
 47 35 l 1
 47 33 l 1
 49 33 l 1
 49 35 l 1
49 31 m 1
 47 31 l 1
 47 29 l 1
 49 29 l 1
 49 31 l 1
55 35 m 1
 53 35 l 1
 53 33 l 1
 55 33 l 1
 55 35 l 1
44 27 m 1
 42 27 l 1
 42 25 l 1
 43 25 l 1
 43 26 l 1
 44 26 l 1
 44 27 l 1
46 27 m 1
 45 27 l 1
 45 26 l 1
 44 26 l 1
 44 25 l 1
 46 25 l 1
 46 27 l 1
49 27 m 1
 47 27 l 1
 47 25 l 1
 49 25 l 1
 49 27 l 1
55 27 m 1
 53 27 l 1
 53 25 l 1
 55 25 l 1
 55 27 l 1
57 35 m 1
 56 35 l 1
 56 33 l 1
 58 33 l 1
 58 34 l 1
 57 34 l 1
 57 35 l 1
60 35 m 1
 58 35 l 1
 58 34 l 1
 59 34 l 1
 59 33 l 1
 60 33 l 1
 60 35 l 1
63 35 m 1
 61 35 l 1
 61 33 l 1
 63 33 l 1
 63 35 l 1
63 31 m 1
 61 31 l 1
 61 29 l 1
 63 29 l 1
 63 31 l 1
58 27 m 1
 56 27 l 1
 56 25 l 1
 57 25 l 1
 57 26 l 1
 58 26 l 1
 58 27 l 1
60 27 m 1
 59 27 l 1
 59 26 l 1
 58 26 l 1
 58 25 l 1
 60 25 l 1
 60 27 l 1
63 27 m 1
 61 27 l 1
 61 25 l 1
 63 25 l 1
 63 27 l 1
EndSplineSet
EndChar

StartChar: custom_3_5_0_3_5
Encoding: 30503 30503 10535
Width: 70
Flags: H
LayerCount: 2
Fore
SplineSet
23 43 m 1
 21 43 l 1
 21 41 l 1
 23 41 l 1
 23 43 l 1
26 43 m 1
 24 43 l 1
 24 41 l 1
 25 41 l 1
 25 42 l 1
 26 42 l 1
 26 43 l 1
28 43 m 1
 27 43 l 1
 27 42 l 1
 26 42 l 1
 26 41 l 1
 28 41 l 1
 28 43 l 1
31 43 m 1
 29 43 l 1
 29 41 l 1
 31 41 l 1
 31 43 l 1
31 39 m 1
 29 39 l 1
 29 37 l 1
 31 37 l 1
 31 39 l 1
41 43 m 1
 39 43 l 1
 39 41 l 1
 41 41 l 1
 41 43 l 1
36 37 m 1
 34 37 l 1
 34 35 l 1
 36 35 l 1
 36 37 l 1
31 35 m 1
 29 35 l 1
 29 33 l 1
 31 33 l 1
 31 35 l 1
31 31 m 1
 29 31 l 1
 29 29 l 1
 31 29 l 1
 31 31 l 1
36 33 m 1
 34 33 l 1
 34 31 l 1
 36 31 l 1
 36 33 l 1
41 35 m 1
 39 35 l 1
 39 33 l 1
 41 33 l 1
 41 35 l 1
31 27 m 1
 29 27 l 1
 29 25 l 1
 31 25 l 1
 31 27 l 1
41 27 m 1
 39 27 l 1
 39 25 l 1
 41 25 l 1
 41 27 l 1
44 43 m 1
 42 43 l 1
 42 41 l 1
 43 41 l 1
 43 42 l 1
 44 42 l 1
 44 43 l 1
46 43 m 1
 45 43 l 1
 45 42 l 1
 44 42 l 1
 44 41 l 1
 46 41 l 1
 46 43 l 1
49 43 m 1
 47 43 l 1
 47 41 l 1
 49 41 l 1
 49 43 l 1
49 39 m 1
 47 39 l 1
 47 37 l 1
 49 37 l 1
 49 39 l 1
55 43 m 1
 53 43 l 1
 53 41 l 1
 55 41 l 1
 55 43 l 1
55 39 m 1
 53 39 l 1
 53 37 l 1
 55 37 l 1
 55 39 l 1
58 43 m 1
 56 43 l 1
 56 41 l 1
 57 41 l 1
 57 42 l 1
 58 42 l 1
 58 43 l 1
60 43 m 1
 59 43 l 1
 59 42 l 1
 58 42 l 1
 58 41 l 1
 60 41 l 1
 60 43 l 1
63 43 m 1
 61 43 l 1
 61 41 l 1
 63 41 l 1
 63 43 l 1
43 35 m 1
 42 35 l 1
 42 33 l 1
 44 33 l 1
 44 34 l 1
 43 34 l 1
 43 35 l 1
46 35 m 1
 44 35 l 1
 44 34 l 1
 45 34 l 1
 45 33 l 1
 46 33 l 1
 46 35 l 1
49 35 m 1
 47 35 l 1
 47 33 l 1
 49 33 l 1
 49 35 l 1
49 31 m 1
 47 31 l 1
 47 29 l 1
 49 29 l 1
 49 31 l 1
55 35 m 1
 53 35 l 1
 53 33 l 1
 55 33 l 1
 55 35 l 1
44 27 m 1
 42 27 l 1
 42 25 l 1
 43 25 l 1
 43 26 l 1
 44 26 l 1
 44 27 l 1
46 27 m 1
 45 27 l 1
 45 26 l 1
 44 26 l 1
 44 25 l 1
 46 25 l 1
 46 27 l 1
49 27 m 1
 47 27 l 1
 47 25 l 1
 49 25 l 1
 49 27 l 1
55 27 m 1
 53 27 l 1
 53 25 l 1
 55 25 l 1
 55 27 l 1
57 35 m 1
 56 35 l 1
 56 33 l 1
 58 33 l 1
 58 34 l 1
 57 34 l 1
 57 35 l 1
60 35 m 1
 58 35 l 1
 58 34 l 1
 59 34 l 1
 59 33 l 1
 60 33 l 1
 60 35 l 1
63 35 m 1
 61 35 l 1
 61 33 l 1
 63 33 l 1
 63 35 l 1
63 31 m 1
 61 31 l 1
 61 29 l 1
 63 29 l 1
 63 31 l 1
58 27 m 1
 56 27 l 1
 56 25 l 1
 57 25 l 1
 57 26 l 1
 58 26 l 1
 58 27 l 1
60 27 m 1
 59 27 l 1
 59 26 l 1
 58 26 l 1
 58 25 l 1
 60 25 l 1
 60 27 l 1
63 27 m 1
 61 27 l 1
 61 25 l 1
 63 25 l 1
 63 27 l 1
EndSplineSet
EndChar

StartChar: custom_3_5_0_3_6
Encoding: 30504 30504 10536
Width: 70
Flags: H
LayerCount: 2
Fore
SplineSet
23 43 m 1
 21 43 l 1
 21 41 l 1
 23 41 l 1
 23 43 l 1
26 43 m 1
 24 43 l 1
 24 41 l 1
 25 41 l 1
 25 42 l 1
 26 42 l 1
 26 43 l 1
28 43 m 1
 27 43 l 1
 27 42 l 1
 26 42 l 1
 26 41 l 1
 28 41 l 1
 28 43 l 1
31 43 m 1
 29 43 l 1
 29 41 l 1
 31 41 l 1
 31 43 l 1
31 39 m 1
 29 39 l 1
 29 37 l 1
 31 37 l 1
 31 39 l 1
41 43 m 1
 39 43 l 1
 39 41 l 1
 41 41 l 1
 41 43 l 1
36 37 m 1
 34 37 l 1
 34 35 l 1
 36 35 l 1
 36 37 l 1
31 35 m 1
 29 35 l 1
 29 33 l 1
 31 33 l 1
 31 35 l 1
31 31 m 1
 29 31 l 1
 29 29 l 1
 31 29 l 1
 31 31 l 1
36 33 m 1
 34 33 l 1
 34 31 l 1
 36 31 l 1
 36 33 l 1
41 35 m 1
 39 35 l 1
 39 33 l 1
 41 33 l 1
 41 35 l 1
31 27 m 1
 29 27 l 1
 29 25 l 1
 31 25 l 1
 31 27 l 1
41 27 m 1
 39 27 l 1
 39 25 l 1
 41 25 l 1
 41 27 l 1
44 43 m 1
 42 43 l 1
 42 41 l 1
 43 41 l 1
 43 42 l 1
 44 42 l 1
 44 43 l 1
46 43 m 1
 45 43 l 1
 45 42 l 1
 44 42 l 1
 44 41 l 1
 46 41 l 1
 46 43 l 1
49 43 m 1
 47 43 l 1
 47 41 l 1
 49 41 l 1
 49 43 l 1
49 39 m 1
 47 39 l 1
 47 37 l 1
 49 37 l 1
 49 39 l 1
55 43 m 1
 53 43 l 1
 53 41 l 1
 55 41 l 1
 55 43 l 1
55 39 m 1
 53 39 l 1
 53 37 l 1
 55 37 l 1
 55 39 l 1
58 43 m 1
 56 43 l 1
 56 41 l 1
 57 41 l 1
 57 42 l 1
 58 42 l 1
 58 43 l 1
60 43 m 1
 59 43 l 1
 59 42 l 1
 58 42 l 1
 58 41 l 1
 60 41 l 1
 60 43 l 1
63 43 m 1
 61 43 l 1
 61 41 l 1
 63 41 l 1
 63 43 l 1
43 35 m 1
 42 35 l 1
 42 33 l 1
 44 33 l 1
 44 34 l 1
 43 34 l 1
 43 35 l 1
46 35 m 1
 44 35 l 1
 44 34 l 1
 45 34 l 1
 45 33 l 1
 46 33 l 1
 46 35 l 1
49 35 m 1
 47 35 l 1
 47 33 l 1
 49 33 l 1
 49 35 l 1
49 31 m 1
 47 31 l 1
 47 29 l 1
 49 29 l 1
 49 31 l 1
55 35 m 1
 53 35 l 1
 53 33 l 1
 55 33 l 1
 55 35 l 1
44 27 m 1
 42 27 l 1
 42 25 l 1
 43 25 l 1
 43 26 l 1
 44 26 l 1
 44 27 l 1
46 27 m 1
 45 27 l 1
 45 26 l 1
 44 26 l 1
 44 25 l 1
 46 25 l 1
 46 27 l 1
49 27 m 1
 47 27 l 1
 47 25 l 1
 49 25 l 1
 49 27 l 1
55 27 m 1
 53 27 l 1
 53 25 l 1
 55 25 l 1
 55 27 l 1
57 35 m 1
 56 35 l 1
 56 33 l 1
 58 33 l 1
 58 34 l 1
 57 34 l 1
 57 35 l 1
60 35 m 1
 58 35 l 1
 58 34 l 1
 59 34 l 1
 59 33 l 1
 60 33 l 1
 60 35 l 1
63 35 m 1
 61 35 l 1
 61 33 l 1
 63 33 l 1
 63 35 l 1
63 31 m 1
 61 31 l 1
 61 29 l 1
 63 29 l 1
 63 31 l 1
58 27 m 1
 56 27 l 1
 56 25 l 1
 57 25 l 1
 57 26 l 1
 58 26 l 1
 58 27 l 1
60 27 m 1
 59 27 l 1
 59 26 l 1
 58 26 l 1
 58 25 l 1
 60 25 l 1
 60 27 l 1
63 27 m 1
 61 27 l 1
 61 25 l 1
 63 25 l 1
 63 27 l 1
EndSplineSet
EndChar

StartChar: custom_3_5_0_3_7
Encoding: 30505 30505 10537
Width: 70
Flags: H
LayerCount: 2
Fore
SplineSet
23 43 m 1
 21 43 l 1
 21 41 l 1
 23 41 l 1
 23 43 l 1
26 43 m 1
 24 43 l 1
 24 41 l 1
 25 41 l 1
 25 42 l 1
 26 42 l 1
 26 43 l 1
28 43 m 1
 27 43 l 1
 27 42 l 1
 26 42 l 1
 26 41 l 1
 28 41 l 1
 28 43 l 1
31 43 m 1
 29 43 l 1
 29 41 l 1
 31 41 l 1
 31 43 l 1
31 39 m 1
 29 39 l 1
 29 37 l 1
 31 37 l 1
 31 39 l 1
41 43 m 1
 39 43 l 1
 39 41 l 1
 41 41 l 1
 41 43 l 1
36 37 m 1
 34 37 l 1
 34 35 l 1
 36 35 l 1
 36 37 l 1
31 35 m 1
 29 35 l 1
 29 33 l 1
 31 33 l 1
 31 35 l 1
31 31 m 1
 29 31 l 1
 29 29 l 1
 31 29 l 1
 31 31 l 1
36 33 m 1
 34 33 l 1
 34 31 l 1
 36 31 l 1
 36 33 l 1
41 35 m 1
 39 35 l 1
 39 33 l 1
 41 33 l 1
 41 35 l 1
31 27 m 1
 29 27 l 1
 29 25 l 1
 31 25 l 1
 31 27 l 1
41 27 m 1
 39 27 l 1
 39 25 l 1
 41 25 l 1
 41 27 l 1
44 43 m 1
 42 43 l 1
 42 41 l 1
 43 41 l 1
 43 42 l 1
 44 42 l 1
 44 43 l 1
46 43 m 1
 45 43 l 1
 45 42 l 1
 44 42 l 1
 44 41 l 1
 46 41 l 1
 46 43 l 1
49 43 m 1
 47 43 l 1
 47 41 l 1
 49 41 l 1
 49 43 l 1
49 39 m 1
 47 39 l 1
 47 37 l 1
 49 37 l 1
 49 39 l 1
55 43 m 1
 53 43 l 1
 53 41 l 1
 55 41 l 1
 55 43 l 1
55 39 m 1
 53 39 l 1
 53 37 l 1
 55 37 l 1
 55 39 l 1
58 43 m 1
 56 43 l 1
 56 41 l 1
 57 41 l 1
 57 42 l 1
 58 42 l 1
 58 43 l 1
60 43 m 1
 59 43 l 1
 59 42 l 1
 58 42 l 1
 58 41 l 1
 60 41 l 1
 60 43 l 1
63 43 m 1
 61 43 l 1
 61 41 l 1
 63 41 l 1
 63 43 l 1
43 35 m 1
 42 35 l 1
 42 33 l 1
 44 33 l 1
 44 34 l 1
 43 34 l 1
 43 35 l 1
46 35 m 1
 44 35 l 1
 44 34 l 1
 45 34 l 1
 45 33 l 1
 46 33 l 1
 46 35 l 1
49 35 m 1
 47 35 l 1
 47 33 l 1
 49 33 l 1
 49 35 l 1
49 31 m 1
 47 31 l 1
 47 29 l 1
 49 29 l 1
 49 31 l 1
55 35 m 1
 53 35 l 1
 53 33 l 1
 55 33 l 1
 55 35 l 1
44 27 m 1
 42 27 l 1
 42 25 l 1
 43 25 l 1
 43 26 l 1
 44 26 l 1
 44 27 l 1
46 27 m 1
 45 27 l 1
 45 26 l 1
 44 26 l 1
 44 25 l 1
 46 25 l 1
 46 27 l 1
49 27 m 1
 47 27 l 1
 47 25 l 1
 49 25 l 1
 49 27 l 1
55 27 m 1
 53 27 l 1
 53 25 l 1
 55 25 l 1
 55 27 l 1
57 35 m 1
 56 35 l 1
 56 33 l 1
 58 33 l 1
 58 34 l 1
 57 34 l 1
 57 35 l 1
60 35 m 1
 58 35 l 1
 58 34 l 1
 59 34 l 1
 59 33 l 1
 60 33 l 1
 60 35 l 1
63 35 m 1
 61 35 l 1
 61 33 l 1
 63 33 l 1
 63 35 l 1
63 31 m 1
 61 31 l 1
 61 29 l 1
 63 29 l 1
 63 31 l 1
58 27 m 1
 56 27 l 1
 56 25 l 1
 57 25 l 1
 57 26 l 1
 58 26 l 1
 58 27 l 1
60 27 m 1
 59 27 l 1
 59 26 l 1
 58 26 l 1
 58 25 l 1
 60 25 l 1
 60 27 l 1
63 27 m 1
 61 27 l 1
 61 25 l 1
 63 25 l 1
 63 27 l 1
EndSplineSet
EndChar

StartChar: custom_3_5_0_3_8
Encoding: 30506 30506 10538
Width: 70
Flags: H
LayerCount: 2
Fore
SplineSet
23 43 m 1
 21 43 l 1
 21 41 l 1
 23 41 l 1
 23 43 l 1
26 43 m 1
 24 43 l 1
 24 41 l 1
 25 41 l 1
 25 42 l 1
 26 42 l 1
 26 43 l 1
28 43 m 1
 27 43 l 1
 27 42 l 1
 26 42 l 1
 26 41 l 1
 28 41 l 1
 28 43 l 1
31 43 m 1
 29 43 l 1
 29 41 l 1
 31 41 l 1
 31 43 l 1
31 39 m 1
 29 39 l 1
 29 37 l 1
 31 37 l 1
 31 39 l 1
41 43 m 1
 39 43 l 1
 39 41 l 1
 41 41 l 1
 41 43 l 1
36 37 m 1
 34 37 l 1
 34 35 l 1
 36 35 l 1
 36 37 l 1
31 35 m 1
 29 35 l 1
 29 33 l 1
 31 33 l 1
 31 35 l 1
31 31 m 1
 29 31 l 1
 29 29 l 1
 31 29 l 1
 31 31 l 1
36 33 m 1
 34 33 l 1
 34 31 l 1
 36 31 l 1
 36 33 l 1
41 35 m 1
 39 35 l 1
 39 33 l 1
 41 33 l 1
 41 35 l 1
31 27 m 1
 29 27 l 1
 29 25 l 1
 31 25 l 1
 31 27 l 1
41 27 m 1
 39 27 l 1
 39 25 l 1
 41 25 l 1
 41 27 l 1
44 43 m 1
 42 43 l 1
 42 41 l 1
 43 41 l 1
 43 42 l 1
 44 42 l 1
 44 43 l 1
46 43 m 1
 45 43 l 1
 45 42 l 1
 44 42 l 1
 44 41 l 1
 46 41 l 1
 46 43 l 1
49 43 m 1
 47 43 l 1
 47 41 l 1
 49 41 l 1
 49 43 l 1
49 39 m 1
 47 39 l 1
 47 37 l 1
 49 37 l 1
 49 39 l 1
55 43 m 1
 53 43 l 1
 53 41 l 1
 55 41 l 1
 55 43 l 1
55 39 m 1
 53 39 l 1
 53 37 l 1
 55 37 l 1
 55 39 l 1
58 43 m 1
 56 43 l 1
 56 41 l 1
 57 41 l 1
 57 42 l 1
 58 42 l 1
 58 43 l 1
60 43 m 1
 59 43 l 1
 59 42 l 1
 58 42 l 1
 58 41 l 1
 60 41 l 1
 60 43 l 1
63 43 m 1
 61 43 l 1
 61 41 l 1
 63 41 l 1
 63 43 l 1
43 35 m 1
 42 35 l 1
 42 33 l 1
 44 33 l 1
 44 34 l 1
 43 34 l 1
 43 35 l 1
46 35 m 1
 44 35 l 1
 44 34 l 1
 45 34 l 1
 45 33 l 1
 46 33 l 1
 46 35 l 1
49 35 m 1
 47 35 l 1
 47 33 l 1
 49 33 l 1
 49 35 l 1
49 31 m 1
 47 31 l 1
 47 29 l 1
 49 29 l 1
 49 31 l 1
55 35 m 1
 53 35 l 1
 53 33 l 1
 55 33 l 1
 55 35 l 1
44 27 m 1
 42 27 l 1
 42 25 l 1
 43 25 l 1
 43 26 l 1
 44 26 l 1
 44 27 l 1
46 27 m 1
 45 27 l 1
 45 26 l 1
 44 26 l 1
 44 25 l 1
 46 25 l 1
 46 27 l 1
49 27 m 1
 47 27 l 1
 47 25 l 1
 49 25 l 1
 49 27 l 1
55 27 m 1
 53 27 l 1
 53 25 l 1
 55 25 l 1
 55 27 l 1
57 35 m 1
 56 35 l 1
 56 33 l 1
 58 33 l 1
 58 34 l 1
 57 34 l 1
 57 35 l 1
60 35 m 1
 58 35 l 1
 58 34 l 1
 59 34 l 1
 59 33 l 1
 60 33 l 1
 60 35 l 1
63 35 m 1
 61 35 l 1
 61 33 l 1
 63 33 l 1
 63 35 l 1
63 31 m 1
 61 31 l 1
 61 29 l 1
 63 29 l 1
 63 31 l 1
58 27 m 1
 56 27 l 1
 56 25 l 1
 57 25 l 1
 57 26 l 1
 58 26 l 1
 58 27 l 1
60 27 m 1
 59 27 l 1
 59 26 l 1
 58 26 l 1
 58 25 l 1
 60 25 l 1
 60 27 l 1
63 27 m 1
 61 27 l 1
 61 25 l 1
 63 25 l 1
 63 27 l 1
EndSplineSet
EndChar

StartChar: custom_3_5_0_3_9
Encoding: 30507 30507 10539
Width: 70
Flags: H
LayerCount: 2
Fore
SplineSet
23 43 m 1
 21 43 l 1
 21 41 l 1
 23 41 l 1
 23 43 l 1
26 43 m 1
 24 43 l 1
 24 41 l 1
 25 41 l 1
 25 42 l 1
 26 42 l 1
 26 43 l 1
28 43 m 1
 27 43 l 1
 27 42 l 1
 26 42 l 1
 26 41 l 1
 28 41 l 1
 28 43 l 1
31 43 m 1
 29 43 l 1
 29 41 l 1
 31 41 l 1
 31 43 l 1
31 39 m 1
 29 39 l 1
 29 37 l 1
 31 37 l 1
 31 39 l 1
41 43 m 1
 39 43 l 1
 39 41 l 1
 41 41 l 1
 41 43 l 1
36 37 m 1
 34 37 l 1
 34 35 l 1
 36 35 l 1
 36 37 l 1
31 35 m 1
 29 35 l 1
 29 33 l 1
 31 33 l 1
 31 35 l 1
31 31 m 1
 29 31 l 1
 29 29 l 1
 31 29 l 1
 31 31 l 1
36 33 m 1
 34 33 l 1
 34 31 l 1
 36 31 l 1
 36 33 l 1
41 35 m 1
 39 35 l 1
 39 33 l 1
 41 33 l 1
 41 35 l 1
31 27 m 1
 29 27 l 1
 29 25 l 1
 31 25 l 1
 31 27 l 1
41 27 m 1
 39 27 l 1
 39 25 l 1
 41 25 l 1
 41 27 l 1
44 43 m 1
 42 43 l 1
 42 41 l 1
 43 41 l 1
 43 42 l 1
 44 42 l 1
 44 43 l 1
46 43 m 1
 45 43 l 1
 45 42 l 1
 44 42 l 1
 44 41 l 1
 46 41 l 1
 46 43 l 1
49 43 m 1
 47 43 l 1
 47 41 l 1
 49 41 l 1
 49 43 l 1
49 39 m 1
 47 39 l 1
 47 37 l 1
 49 37 l 1
 49 39 l 1
55 43 m 1
 53 43 l 1
 53 41 l 1
 55 41 l 1
 55 43 l 1
55 39 m 1
 53 39 l 1
 53 37 l 1
 55 37 l 1
 55 39 l 1
58 43 m 1
 56 43 l 1
 56 41 l 1
 57 41 l 1
 57 42 l 1
 58 42 l 1
 58 43 l 1
60 43 m 1
 59 43 l 1
 59 42 l 1
 58 42 l 1
 58 41 l 1
 60 41 l 1
 60 43 l 1
63 43 m 1
 61 43 l 1
 61 41 l 1
 63 41 l 1
 63 43 l 1
43 35 m 1
 42 35 l 1
 42 33 l 1
 44 33 l 1
 44 34 l 1
 43 34 l 1
 43 35 l 1
46 35 m 1
 44 35 l 1
 44 34 l 1
 45 34 l 1
 45 33 l 1
 46 33 l 1
 46 35 l 1
49 35 m 1
 47 35 l 1
 47 33 l 1
 49 33 l 1
 49 35 l 1
49 31 m 1
 47 31 l 1
 47 29 l 1
 49 29 l 1
 49 31 l 1
55 35 m 1
 53 35 l 1
 53 33 l 1
 55 33 l 1
 55 35 l 1
44 27 m 1
 42 27 l 1
 42 25 l 1
 43 25 l 1
 43 26 l 1
 44 26 l 1
 44 27 l 1
46 27 m 1
 45 27 l 1
 45 26 l 1
 44 26 l 1
 44 25 l 1
 46 25 l 1
 46 27 l 1
49 27 m 1
 47 27 l 1
 47 25 l 1
 49 25 l 1
 49 27 l 1
55 27 m 1
 53 27 l 1
 53 25 l 1
 55 25 l 1
 55 27 l 1
57 35 m 1
 56 35 l 1
 56 33 l 1
 58 33 l 1
 58 34 l 1
 57 34 l 1
 57 35 l 1
60 35 m 1
 58 35 l 1
 58 34 l 1
 59 34 l 1
 59 33 l 1
 60 33 l 1
 60 35 l 1
63 35 m 1
 61 35 l 1
 61 33 l 1
 63 33 l 1
 63 35 l 1
63 31 m 1
 61 31 l 1
 61 29 l 1
 63 29 l 1
 63 31 l 1
58 27 m 1
 56 27 l 1
 56 25 l 1
 57 25 l 1
 57 26 l 1
 58 26 l 1
 58 27 l 1
60 27 m 1
 59 27 l 1
 59 26 l 1
 58 26 l 1
 58 25 l 1
 60 25 l 1
 60 27 l 1
63 27 m 1
 61 27 l 1
 61 25 l 1
 63 25 l 1
 63 27 l 1
EndSplineSet
EndChar

StartChar: custom_3_5_0_4_0
Encoding: 30508 30508 10540
Width: 70
Flags: H
LayerCount: 2
Fore
SplineSet
23 43 m 1
 21 43 l 1
 21 41 l 1
 23 41 l 1
 23 43 l 1
26 43 m 1
 24 43 l 1
 24 41 l 1
 25 41 l 1
 25 42 l 1
 26 42 l 1
 26 43 l 1
28 43 m 1
 27 43 l 1
 27 42 l 1
 26 42 l 1
 26 41 l 1
 28 41 l 1
 28 43 l 1
31 43 m 1
 29 43 l 1
 29 41 l 1
 31 41 l 1
 31 43 l 1
31 39 m 1
 29 39 l 1
 29 37 l 1
 31 37 l 1
 31 39 l 1
41 43 m 1
 39 43 l 1
 39 41 l 1
 41 41 l 1
 41 43 l 1
36 37 m 1
 34 37 l 1
 34 35 l 1
 36 35 l 1
 36 37 l 1
31 35 m 1
 29 35 l 1
 29 33 l 1
 31 33 l 1
 31 35 l 1
31 31 m 1
 29 31 l 1
 29 29 l 1
 31 29 l 1
 31 31 l 1
36 33 m 1
 34 33 l 1
 34 31 l 1
 36 31 l 1
 36 33 l 1
41 35 m 1
 39 35 l 1
 39 33 l 1
 41 33 l 1
 41 35 l 1
31 27 m 1
 29 27 l 1
 29 25 l 1
 31 25 l 1
 31 27 l 1
41 27 m 1
 39 27 l 1
 39 25 l 1
 41 25 l 1
 41 27 l 1
44 43 m 1
 42 43 l 1
 42 41 l 1
 43 41 l 1
 43 42 l 1
 44 42 l 1
 44 43 l 1
46 43 m 1
 45 43 l 1
 45 42 l 1
 44 42 l 1
 44 41 l 1
 46 41 l 1
 46 43 l 1
49 43 m 1
 47 43 l 1
 47 41 l 1
 49 41 l 1
 49 43 l 1
49 39 m 1
 47 39 l 1
 47 37 l 1
 49 37 l 1
 49 39 l 1
55 43 m 1
 53 43 l 1
 53 41 l 1
 55 41 l 1
 55 43 l 1
55 39 m 1
 53 39 l 1
 53 37 l 1
 55 37 l 1
 55 39 l 1
58 43 m 1
 56 43 l 1
 56 41 l 1
 57 41 l 1
 57 42 l 1
 58 42 l 1
 58 43 l 1
60 43 m 1
 59 43 l 1
 59 42 l 1
 58 42 l 1
 58 41 l 1
 60 41 l 1
 60 43 l 1
63 43 m 1
 61 43 l 1
 61 41 l 1
 63 41 l 1
 63 43 l 1
43 35 m 1
 42 35 l 1
 42 33 l 1
 44 33 l 1
 44 34 l 1
 43 34 l 1
 43 35 l 1
46 35 m 1
 44 35 l 1
 44 34 l 1
 45 34 l 1
 45 33 l 1
 46 33 l 1
 46 35 l 1
49 35 m 1
 47 35 l 1
 47 33 l 1
 49 33 l 1
 49 35 l 1
49 31 m 1
 47 31 l 1
 47 29 l 1
 49 29 l 1
 49 31 l 1
55 35 m 1
 53 35 l 1
 53 33 l 1
 55 33 l 1
 55 35 l 1
44 27 m 1
 42 27 l 1
 42 25 l 1
 43 25 l 1
 43 26 l 1
 44 26 l 1
 44 27 l 1
46 27 m 1
 45 27 l 1
 45 26 l 1
 44 26 l 1
 44 25 l 1
 46 25 l 1
 46 27 l 1
49 27 m 1
 47 27 l 1
 47 25 l 1
 49 25 l 1
 49 27 l 1
55 27 m 1
 53 27 l 1
 53 25 l 1
 55 25 l 1
 55 27 l 1
57 35 m 1
 56 35 l 1
 56 33 l 1
 58 33 l 1
 58 34 l 1
 57 34 l 1
 57 35 l 1
60 35 m 1
 58 35 l 1
 58 34 l 1
 59 34 l 1
 59 33 l 1
 60 33 l 1
 60 35 l 1
63 35 m 1
 61 35 l 1
 61 33 l 1
 63 33 l 1
 63 35 l 1
63 31 m 1
 61 31 l 1
 61 29 l 1
 63 29 l 1
 63 31 l 1
58 27 m 1
 56 27 l 1
 56 25 l 1
 57 25 l 1
 57 26 l 1
 58 26 l 1
 58 27 l 1
60 27 m 1
 59 27 l 1
 59 26 l 1
 58 26 l 1
 58 25 l 1
 60 25 l 1
 60 27 l 1
63 27 m 1
 61 27 l 1
 61 25 l 1
 63 25 l 1
 63 27 l 1
EndSplineSet
EndChar

StartChar: custom_3_5_0_4_1
Encoding: 30509 30509 10541
Width: 70
Flags: H
LayerCount: 2
Fore
SplineSet
23 43 m 1
 21 43 l 1
 21 41 l 1
 23 41 l 1
 23 43 l 1
26 43 m 1
 24 43 l 1
 24 41 l 1
 25 41 l 1
 25 42 l 1
 26 42 l 1
 26 43 l 1
28 43 m 1
 27 43 l 1
 27 42 l 1
 26 42 l 1
 26 41 l 1
 28 41 l 1
 28 43 l 1
31 43 m 1
 29 43 l 1
 29 41 l 1
 31 41 l 1
 31 43 l 1
31 39 m 1
 29 39 l 1
 29 37 l 1
 31 37 l 1
 31 39 l 1
41 43 m 1
 39 43 l 1
 39 41 l 1
 41 41 l 1
 41 43 l 1
36 37 m 1
 34 37 l 1
 34 35 l 1
 36 35 l 1
 36 37 l 1
31 35 m 1
 29 35 l 1
 29 33 l 1
 31 33 l 1
 31 35 l 1
31 31 m 1
 29 31 l 1
 29 29 l 1
 31 29 l 1
 31 31 l 1
36 33 m 1
 34 33 l 1
 34 31 l 1
 36 31 l 1
 36 33 l 1
41 35 m 1
 39 35 l 1
 39 33 l 1
 41 33 l 1
 41 35 l 1
31 27 m 1
 29 27 l 1
 29 25 l 1
 31 25 l 1
 31 27 l 1
41 27 m 1
 39 27 l 1
 39 25 l 1
 41 25 l 1
 41 27 l 1
44 43 m 1
 42 43 l 1
 42 41 l 1
 43 41 l 1
 43 42 l 1
 44 42 l 1
 44 43 l 1
46 43 m 1
 45 43 l 1
 45 42 l 1
 44 42 l 1
 44 41 l 1
 46 41 l 1
 46 43 l 1
49 43 m 1
 47 43 l 1
 47 41 l 1
 49 41 l 1
 49 43 l 1
49 39 m 1
 47 39 l 1
 47 37 l 1
 49 37 l 1
 49 39 l 1
55 43 m 1
 53 43 l 1
 53 41 l 1
 55 41 l 1
 55 43 l 1
55 39 m 1
 53 39 l 1
 53 37 l 1
 55 37 l 1
 55 39 l 1
58 43 m 1
 56 43 l 1
 56 41 l 1
 57 41 l 1
 57 42 l 1
 58 42 l 1
 58 43 l 1
60 43 m 1
 59 43 l 1
 59 42 l 1
 58 42 l 1
 58 41 l 1
 60 41 l 1
 60 43 l 1
63 43 m 1
 61 43 l 1
 61 41 l 1
 63 41 l 1
 63 43 l 1
43 35 m 1
 42 35 l 1
 42 33 l 1
 44 33 l 1
 44 34 l 1
 43 34 l 1
 43 35 l 1
46 35 m 1
 44 35 l 1
 44 34 l 1
 45 34 l 1
 45 33 l 1
 46 33 l 1
 46 35 l 1
49 35 m 1
 47 35 l 1
 47 33 l 1
 49 33 l 1
 49 35 l 1
49 31 m 1
 47 31 l 1
 47 29 l 1
 49 29 l 1
 49 31 l 1
55 35 m 1
 53 35 l 1
 53 33 l 1
 55 33 l 1
 55 35 l 1
44 27 m 1
 42 27 l 1
 42 25 l 1
 43 25 l 1
 43 26 l 1
 44 26 l 1
 44 27 l 1
46 27 m 1
 45 27 l 1
 45 26 l 1
 44 26 l 1
 44 25 l 1
 46 25 l 1
 46 27 l 1
49 27 m 1
 47 27 l 1
 47 25 l 1
 49 25 l 1
 49 27 l 1
55 27 m 1
 53 27 l 1
 53 25 l 1
 55 25 l 1
 55 27 l 1
57 35 m 1
 56 35 l 1
 56 33 l 1
 58 33 l 1
 58 34 l 1
 57 34 l 1
 57 35 l 1
60 35 m 1
 58 35 l 1
 58 34 l 1
 59 34 l 1
 59 33 l 1
 60 33 l 1
 60 35 l 1
63 35 m 1
 61 35 l 1
 61 33 l 1
 63 33 l 1
 63 35 l 1
63 31 m 1
 61 31 l 1
 61 29 l 1
 63 29 l 1
 63 31 l 1
58 27 m 1
 56 27 l 1
 56 25 l 1
 57 25 l 1
 57 26 l 1
 58 26 l 1
 58 27 l 1
60 27 m 1
 59 27 l 1
 59 26 l 1
 58 26 l 1
 58 25 l 1
 60 25 l 1
 60 27 l 1
63 27 m 1
 61 27 l 1
 61 25 l 1
 63 25 l 1
 63 27 l 1
EndSplineSet
EndChar

StartChar: custom_3_5_0_4_2
Encoding: 30510 30510 10542
Width: 70
Flags: H
LayerCount: 2
Fore
SplineSet
23 43 m 1
 21 43 l 1
 21 41 l 1
 23 41 l 1
 23 43 l 1
26 43 m 1
 24 43 l 1
 24 41 l 1
 25 41 l 1
 25 42 l 1
 26 42 l 1
 26 43 l 1
28 43 m 1
 27 43 l 1
 27 42 l 1
 26 42 l 1
 26 41 l 1
 28 41 l 1
 28 43 l 1
31 43 m 1
 29 43 l 1
 29 41 l 1
 31 41 l 1
 31 43 l 1
31 39 m 1
 29 39 l 1
 29 37 l 1
 31 37 l 1
 31 39 l 1
41 43 m 1
 39 43 l 1
 39 41 l 1
 41 41 l 1
 41 43 l 1
36 37 m 1
 34 37 l 1
 34 35 l 1
 36 35 l 1
 36 37 l 1
31 35 m 1
 29 35 l 1
 29 33 l 1
 31 33 l 1
 31 35 l 1
31 31 m 1
 29 31 l 1
 29 29 l 1
 31 29 l 1
 31 31 l 1
36 33 m 1
 34 33 l 1
 34 31 l 1
 36 31 l 1
 36 33 l 1
41 35 m 1
 39 35 l 1
 39 33 l 1
 41 33 l 1
 41 35 l 1
31 27 m 1
 29 27 l 1
 29 25 l 1
 31 25 l 1
 31 27 l 1
41 27 m 1
 39 27 l 1
 39 25 l 1
 41 25 l 1
 41 27 l 1
44 43 m 1
 42 43 l 1
 42 41 l 1
 43 41 l 1
 43 42 l 1
 44 42 l 1
 44 43 l 1
46 43 m 1
 45 43 l 1
 45 42 l 1
 44 42 l 1
 44 41 l 1
 46 41 l 1
 46 43 l 1
49 43 m 1
 47 43 l 1
 47 41 l 1
 49 41 l 1
 49 43 l 1
49 39 m 1
 47 39 l 1
 47 37 l 1
 49 37 l 1
 49 39 l 1
55 43 m 1
 53 43 l 1
 53 41 l 1
 55 41 l 1
 55 43 l 1
55 39 m 1
 53 39 l 1
 53 37 l 1
 55 37 l 1
 55 39 l 1
58 43 m 1
 56 43 l 1
 56 41 l 1
 57 41 l 1
 57 42 l 1
 58 42 l 1
 58 43 l 1
60 43 m 1
 59 43 l 1
 59 42 l 1
 58 42 l 1
 58 41 l 1
 60 41 l 1
 60 43 l 1
63 43 m 1
 61 43 l 1
 61 41 l 1
 63 41 l 1
 63 43 l 1
43 35 m 1
 42 35 l 1
 42 33 l 1
 44 33 l 1
 44 34 l 1
 43 34 l 1
 43 35 l 1
46 35 m 1
 44 35 l 1
 44 34 l 1
 45 34 l 1
 45 33 l 1
 46 33 l 1
 46 35 l 1
49 35 m 1
 47 35 l 1
 47 33 l 1
 49 33 l 1
 49 35 l 1
49 31 m 1
 47 31 l 1
 47 29 l 1
 49 29 l 1
 49 31 l 1
55 35 m 1
 53 35 l 1
 53 33 l 1
 55 33 l 1
 55 35 l 1
44 27 m 1
 42 27 l 1
 42 25 l 1
 43 25 l 1
 43 26 l 1
 44 26 l 1
 44 27 l 1
46 27 m 1
 45 27 l 1
 45 26 l 1
 44 26 l 1
 44 25 l 1
 46 25 l 1
 46 27 l 1
49 27 m 1
 47 27 l 1
 47 25 l 1
 49 25 l 1
 49 27 l 1
55 27 m 1
 53 27 l 1
 53 25 l 1
 55 25 l 1
 55 27 l 1
57 35 m 1
 56 35 l 1
 56 33 l 1
 58 33 l 1
 58 34 l 1
 57 34 l 1
 57 35 l 1
60 35 m 1
 58 35 l 1
 58 34 l 1
 59 34 l 1
 59 33 l 1
 60 33 l 1
 60 35 l 1
63 35 m 1
 61 35 l 1
 61 33 l 1
 63 33 l 1
 63 35 l 1
63 31 m 1
 61 31 l 1
 61 29 l 1
 63 29 l 1
 63 31 l 1
58 27 m 1
 56 27 l 1
 56 25 l 1
 57 25 l 1
 57 26 l 1
 58 26 l 1
 58 27 l 1
60 27 m 1
 59 27 l 1
 59 26 l 1
 58 26 l 1
 58 25 l 1
 60 25 l 1
 60 27 l 1
63 27 m 1
 61 27 l 1
 61 25 l 1
 63 25 l 1
 63 27 l 1
EndSplineSet
EndChar

StartChar: custom_3_5_0_4_3
Encoding: 30511 30511 10543
Width: 70
Flags: H
LayerCount: 2
Fore
SplineSet
23 43 m 1
 21 43 l 1
 21 41 l 1
 23 41 l 1
 23 43 l 1
26 43 m 1
 24 43 l 1
 24 41 l 1
 25 41 l 1
 25 42 l 1
 26 42 l 1
 26 43 l 1
28 43 m 1
 27 43 l 1
 27 42 l 1
 26 42 l 1
 26 41 l 1
 28 41 l 1
 28 43 l 1
31 43 m 1
 29 43 l 1
 29 41 l 1
 31 41 l 1
 31 43 l 1
31 39 m 1
 29 39 l 1
 29 37 l 1
 31 37 l 1
 31 39 l 1
41 43 m 1
 39 43 l 1
 39 41 l 1
 41 41 l 1
 41 43 l 1
36 37 m 1
 34 37 l 1
 34 35 l 1
 36 35 l 1
 36 37 l 1
31 35 m 1
 29 35 l 1
 29 33 l 1
 31 33 l 1
 31 35 l 1
31 31 m 1
 29 31 l 1
 29 29 l 1
 31 29 l 1
 31 31 l 1
36 33 m 1
 34 33 l 1
 34 31 l 1
 36 31 l 1
 36 33 l 1
41 35 m 1
 39 35 l 1
 39 33 l 1
 41 33 l 1
 41 35 l 1
31 27 m 1
 29 27 l 1
 29 25 l 1
 31 25 l 1
 31 27 l 1
41 27 m 1
 39 27 l 1
 39 25 l 1
 41 25 l 1
 41 27 l 1
44 43 m 1
 42 43 l 1
 42 41 l 1
 43 41 l 1
 43 42 l 1
 44 42 l 1
 44 43 l 1
46 43 m 1
 45 43 l 1
 45 42 l 1
 44 42 l 1
 44 41 l 1
 46 41 l 1
 46 43 l 1
49 43 m 1
 47 43 l 1
 47 41 l 1
 49 41 l 1
 49 43 l 1
49 39 m 1
 47 39 l 1
 47 37 l 1
 49 37 l 1
 49 39 l 1
55 43 m 1
 53 43 l 1
 53 41 l 1
 55 41 l 1
 55 43 l 1
55 39 m 1
 53 39 l 1
 53 37 l 1
 55 37 l 1
 55 39 l 1
58 43 m 1
 56 43 l 1
 56 41 l 1
 57 41 l 1
 57 42 l 1
 58 42 l 1
 58 43 l 1
60 43 m 1
 59 43 l 1
 59 42 l 1
 58 42 l 1
 58 41 l 1
 60 41 l 1
 60 43 l 1
63 43 m 1
 61 43 l 1
 61 41 l 1
 63 41 l 1
 63 43 l 1
43 35 m 1
 42 35 l 1
 42 33 l 1
 44 33 l 1
 44 34 l 1
 43 34 l 1
 43 35 l 1
46 35 m 1
 44 35 l 1
 44 34 l 1
 45 34 l 1
 45 33 l 1
 46 33 l 1
 46 35 l 1
49 35 m 1
 47 35 l 1
 47 33 l 1
 49 33 l 1
 49 35 l 1
49 31 m 1
 47 31 l 1
 47 29 l 1
 49 29 l 1
 49 31 l 1
55 35 m 1
 53 35 l 1
 53 33 l 1
 55 33 l 1
 55 35 l 1
44 27 m 1
 42 27 l 1
 42 25 l 1
 43 25 l 1
 43 26 l 1
 44 26 l 1
 44 27 l 1
46 27 m 1
 45 27 l 1
 45 26 l 1
 44 26 l 1
 44 25 l 1
 46 25 l 1
 46 27 l 1
49 27 m 1
 47 27 l 1
 47 25 l 1
 49 25 l 1
 49 27 l 1
55 27 m 1
 53 27 l 1
 53 25 l 1
 55 25 l 1
 55 27 l 1
57 35 m 1
 56 35 l 1
 56 33 l 1
 58 33 l 1
 58 34 l 1
 57 34 l 1
 57 35 l 1
60 35 m 1
 58 35 l 1
 58 34 l 1
 59 34 l 1
 59 33 l 1
 60 33 l 1
 60 35 l 1
63 35 m 1
 61 35 l 1
 61 33 l 1
 63 33 l 1
 63 35 l 1
63 31 m 1
 61 31 l 1
 61 29 l 1
 63 29 l 1
 63 31 l 1
58 27 m 1
 56 27 l 1
 56 25 l 1
 57 25 l 1
 57 26 l 1
 58 26 l 1
 58 27 l 1
60 27 m 1
 59 27 l 1
 59 26 l 1
 58 26 l 1
 58 25 l 1
 60 25 l 1
 60 27 l 1
63 27 m 1
 61 27 l 1
 61 25 l 1
 63 25 l 1
 63 27 l 1
EndSplineSet
EndChar

StartChar: custom_3_5_0_4_4
Encoding: 30512 30512 10544
Width: 70
Flags: H
LayerCount: 2
Fore
SplineSet
23 43 m 1
 21 43 l 1
 21 41 l 1
 23 41 l 1
 23 43 l 1
26 43 m 1
 24 43 l 1
 24 41 l 1
 25 41 l 1
 25 42 l 1
 26 42 l 1
 26 43 l 1
28 43 m 1
 27 43 l 1
 27 42 l 1
 26 42 l 1
 26 41 l 1
 28 41 l 1
 28 43 l 1
31 43 m 1
 29 43 l 1
 29 41 l 1
 31 41 l 1
 31 43 l 1
31 39 m 1
 29 39 l 1
 29 37 l 1
 31 37 l 1
 31 39 l 1
41 43 m 1
 39 43 l 1
 39 41 l 1
 41 41 l 1
 41 43 l 1
36 37 m 1
 34 37 l 1
 34 35 l 1
 36 35 l 1
 36 37 l 1
31 35 m 1
 29 35 l 1
 29 33 l 1
 31 33 l 1
 31 35 l 1
31 31 m 1
 29 31 l 1
 29 29 l 1
 31 29 l 1
 31 31 l 1
36 33 m 1
 34 33 l 1
 34 31 l 1
 36 31 l 1
 36 33 l 1
41 35 m 1
 39 35 l 1
 39 33 l 1
 41 33 l 1
 41 35 l 1
31 27 m 1
 29 27 l 1
 29 25 l 1
 31 25 l 1
 31 27 l 1
41 27 m 1
 39 27 l 1
 39 25 l 1
 41 25 l 1
 41 27 l 1
44 43 m 1
 42 43 l 1
 42 41 l 1
 43 41 l 1
 43 42 l 1
 44 42 l 1
 44 43 l 1
46 43 m 1
 45 43 l 1
 45 42 l 1
 44 42 l 1
 44 41 l 1
 46 41 l 1
 46 43 l 1
49 43 m 1
 47 43 l 1
 47 41 l 1
 49 41 l 1
 49 43 l 1
49 39 m 1
 47 39 l 1
 47 37 l 1
 49 37 l 1
 49 39 l 1
55 43 m 1
 53 43 l 1
 53 41 l 1
 55 41 l 1
 55 43 l 1
55 39 m 1
 53 39 l 1
 53 37 l 1
 55 37 l 1
 55 39 l 1
58 43 m 1
 56 43 l 1
 56 41 l 1
 57 41 l 1
 57 42 l 1
 58 42 l 1
 58 43 l 1
60 43 m 1
 59 43 l 1
 59 42 l 1
 58 42 l 1
 58 41 l 1
 60 41 l 1
 60 43 l 1
63 43 m 1
 61 43 l 1
 61 41 l 1
 63 41 l 1
 63 43 l 1
43 35 m 1
 42 35 l 1
 42 33 l 1
 44 33 l 1
 44 34 l 1
 43 34 l 1
 43 35 l 1
46 35 m 1
 44 35 l 1
 44 34 l 1
 45 34 l 1
 45 33 l 1
 46 33 l 1
 46 35 l 1
49 35 m 1
 47 35 l 1
 47 33 l 1
 49 33 l 1
 49 35 l 1
49 31 m 1
 47 31 l 1
 47 29 l 1
 49 29 l 1
 49 31 l 1
55 35 m 1
 53 35 l 1
 53 33 l 1
 55 33 l 1
 55 35 l 1
44 27 m 1
 42 27 l 1
 42 25 l 1
 43 25 l 1
 43 26 l 1
 44 26 l 1
 44 27 l 1
46 27 m 1
 45 27 l 1
 45 26 l 1
 44 26 l 1
 44 25 l 1
 46 25 l 1
 46 27 l 1
49 27 m 1
 47 27 l 1
 47 25 l 1
 49 25 l 1
 49 27 l 1
55 27 m 1
 53 27 l 1
 53 25 l 1
 55 25 l 1
 55 27 l 1
57 35 m 1
 56 35 l 1
 56 33 l 1
 58 33 l 1
 58 34 l 1
 57 34 l 1
 57 35 l 1
60 35 m 1
 58 35 l 1
 58 34 l 1
 59 34 l 1
 59 33 l 1
 60 33 l 1
 60 35 l 1
63 35 m 1
 61 35 l 1
 61 33 l 1
 63 33 l 1
 63 35 l 1
63 31 m 1
 61 31 l 1
 61 29 l 1
 63 29 l 1
 63 31 l 1
58 27 m 1
 56 27 l 1
 56 25 l 1
 57 25 l 1
 57 26 l 1
 58 26 l 1
 58 27 l 1
60 27 m 1
 59 27 l 1
 59 26 l 1
 58 26 l 1
 58 25 l 1
 60 25 l 1
 60 27 l 1
63 27 m 1
 61 27 l 1
 61 25 l 1
 63 25 l 1
 63 27 l 1
EndSplineSet
EndChar

StartChar: custom_3_5_0_4_5
Encoding: 30513 30513 10545
Width: 70
Flags: H
LayerCount: 2
Fore
SplineSet
23 43 m 1
 21 43 l 1
 21 41 l 1
 23 41 l 1
 23 43 l 1
26 43 m 1
 24 43 l 1
 24 41 l 1
 25 41 l 1
 25 42 l 1
 26 42 l 1
 26 43 l 1
28 43 m 1
 27 43 l 1
 27 42 l 1
 26 42 l 1
 26 41 l 1
 28 41 l 1
 28 43 l 1
31 43 m 1
 29 43 l 1
 29 41 l 1
 31 41 l 1
 31 43 l 1
31 39 m 1
 29 39 l 1
 29 37 l 1
 31 37 l 1
 31 39 l 1
41 43 m 1
 39 43 l 1
 39 41 l 1
 41 41 l 1
 41 43 l 1
36 37 m 1
 34 37 l 1
 34 35 l 1
 36 35 l 1
 36 37 l 1
31 35 m 1
 29 35 l 1
 29 33 l 1
 31 33 l 1
 31 35 l 1
31 31 m 1
 29 31 l 1
 29 29 l 1
 31 29 l 1
 31 31 l 1
36 33 m 1
 34 33 l 1
 34 31 l 1
 36 31 l 1
 36 33 l 1
41 35 m 1
 39 35 l 1
 39 33 l 1
 41 33 l 1
 41 35 l 1
31 27 m 1
 29 27 l 1
 29 25 l 1
 31 25 l 1
 31 27 l 1
41 27 m 1
 39 27 l 1
 39 25 l 1
 41 25 l 1
 41 27 l 1
44 43 m 1
 42 43 l 1
 42 41 l 1
 43 41 l 1
 43 42 l 1
 44 42 l 1
 44 43 l 1
46 43 m 1
 45 43 l 1
 45 42 l 1
 44 42 l 1
 44 41 l 1
 46 41 l 1
 46 43 l 1
49 43 m 1
 47 43 l 1
 47 41 l 1
 49 41 l 1
 49 43 l 1
49 39 m 1
 47 39 l 1
 47 37 l 1
 49 37 l 1
 49 39 l 1
55 43 m 1
 53 43 l 1
 53 41 l 1
 55 41 l 1
 55 43 l 1
55 39 m 1
 53 39 l 1
 53 37 l 1
 55 37 l 1
 55 39 l 1
58 43 m 1
 56 43 l 1
 56 41 l 1
 57 41 l 1
 57 42 l 1
 58 42 l 1
 58 43 l 1
60 43 m 1
 59 43 l 1
 59 42 l 1
 58 42 l 1
 58 41 l 1
 60 41 l 1
 60 43 l 1
63 43 m 1
 61 43 l 1
 61 41 l 1
 63 41 l 1
 63 43 l 1
43 35 m 1
 42 35 l 1
 42 33 l 1
 44 33 l 1
 44 34 l 1
 43 34 l 1
 43 35 l 1
46 35 m 1
 44 35 l 1
 44 34 l 1
 45 34 l 1
 45 33 l 1
 46 33 l 1
 46 35 l 1
49 35 m 1
 47 35 l 1
 47 33 l 1
 49 33 l 1
 49 35 l 1
49 31 m 1
 47 31 l 1
 47 29 l 1
 49 29 l 1
 49 31 l 1
55 35 m 1
 53 35 l 1
 53 33 l 1
 55 33 l 1
 55 35 l 1
44 27 m 1
 42 27 l 1
 42 25 l 1
 43 25 l 1
 43 26 l 1
 44 26 l 1
 44 27 l 1
46 27 m 1
 45 27 l 1
 45 26 l 1
 44 26 l 1
 44 25 l 1
 46 25 l 1
 46 27 l 1
49 27 m 1
 47 27 l 1
 47 25 l 1
 49 25 l 1
 49 27 l 1
55 27 m 1
 53 27 l 1
 53 25 l 1
 55 25 l 1
 55 27 l 1
57 35 m 1
 56 35 l 1
 56 33 l 1
 58 33 l 1
 58 34 l 1
 57 34 l 1
 57 35 l 1
60 35 m 1
 58 35 l 1
 58 34 l 1
 59 34 l 1
 59 33 l 1
 60 33 l 1
 60 35 l 1
63 35 m 1
 61 35 l 1
 61 33 l 1
 63 33 l 1
 63 35 l 1
63 31 m 1
 61 31 l 1
 61 29 l 1
 63 29 l 1
 63 31 l 1
58 27 m 1
 56 27 l 1
 56 25 l 1
 57 25 l 1
 57 26 l 1
 58 26 l 1
 58 27 l 1
60 27 m 1
 59 27 l 1
 59 26 l 1
 58 26 l 1
 58 25 l 1
 60 25 l 1
 60 27 l 1
63 27 m 1
 61 27 l 1
 61 25 l 1
 63 25 l 1
 63 27 l 1
EndSplineSet
EndChar

StartChar: custom_3_5_0_4_6
Encoding: 30514 30514 10546
Width: 70
Flags: H
LayerCount: 2
Fore
SplineSet
23 43 m 1
 21 43 l 1
 21 41 l 1
 23 41 l 1
 23 43 l 1
26 43 m 1
 24 43 l 1
 24 41 l 1
 25 41 l 1
 25 42 l 1
 26 42 l 1
 26 43 l 1
28 43 m 1
 27 43 l 1
 27 42 l 1
 26 42 l 1
 26 41 l 1
 28 41 l 1
 28 43 l 1
31 43 m 1
 29 43 l 1
 29 41 l 1
 31 41 l 1
 31 43 l 1
31 39 m 1
 29 39 l 1
 29 37 l 1
 31 37 l 1
 31 39 l 1
41 43 m 1
 39 43 l 1
 39 41 l 1
 41 41 l 1
 41 43 l 1
36 37 m 1
 34 37 l 1
 34 35 l 1
 36 35 l 1
 36 37 l 1
31 35 m 1
 29 35 l 1
 29 33 l 1
 31 33 l 1
 31 35 l 1
31 31 m 1
 29 31 l 1
 29 29 l 1
 31 29 l 1
 31 31 l 1
36 33 m 1
 34 33 l 1
 34 31 l 1
 36 31 l 1
 36 33 l 1
41 35 m 1
 39 35 l 1
 39 33 l 1
 41 33 l 1
 41 35 l 1
31 27 m 1
 29 27 l 1
 29 25 l 1
 31 25 l 1
 31 27 l 1
41 27 m 1
 39 27 l 1
 39 25 l 1
 41 25 l 1
 41 27 l 1
44 43 m 1
 42 43 l 1
 42 41 l 1
 43 41 l 1
 43 42 l 1
 44 42 l 1
 44 43 l 1
46 43 m 1
 45 43 l 1
 45 42 l 1
 44 42 l 1
 44 41 l 1
 46 41 l 1
 46 43 l 1
49 43 m 1
 47 43 l 1
 47 41 l 1
 49 41 l 1
 49 43 l 1
49 39 m 1
 47 39 l 1
 47 37 l 1
 49 37 l 1
 49 39 l 1
55 43 m 1
 53 43 l 1
 53 41 l 1
 55 41 l 1
 55 43 l 1
55 39 m 1
 53 39 l 1
 53 37 l 1
 55 37 l 1
 55 39 l 1
58 43 m 1
 56 43 l 1
 56 41 l 1
 57 41 l 1
 57 42 l 1
 58 42 l 1
 58 43 l 1
60 43 m 1
 59 43 l 1
 59 42 l 1
 58 42 l 1
 58 41 l 1
 60 41 l 1
 60 43 l 1
63 43 m 1
 61 43 l 1
 61 41 l 1
 63 41 l 1
 63 43 l 1
43 35 m 1
 42 35 l 1
 42 33 l 1
 44 33 l 1
 44 34 l 1
 43 34 l 1
 43 35 l 1
46 35 m 1
 44 35 l 1
 44 34 l 1
 45 34 l 1
 45 33 l 1
 46 33 l 1
 46 35 l 1
49 35 m 1
 47 35 l 1
 47 33 l 1
 49 33 l 1
 49 35 l 1
49 31 m 1
 47 31 l 1
 47 29 l 1
 49 29 l 1
 49 31 l 1
55 35 m 1
 53 35 l 1
 53 33 l 1
 55 33 l 1
 55 35 l 1
44 27 m 1
 42 27 l 1
 42 25 l 1
 43 25 l 1
 43 26 l 1
 44 26 l 1
 44 27 l 1
46 27 m 1
 45 27 l 1
 45 26 l 1
 44 26 l 1
 44 25 l 1
 46 25 l 1
 46 27 l 1
49 27 m 1
 47 27 l 1
 47 25 l 1
 49 25 l 1
 49 27 l 1
55 27 m 1
 53 27 l 1
 53 25 l 1
 55 25 l 1
 55 27 l 1
57 35 m 1
 56 35 l 1
 56 33 l 1
 58 33 l 1
 58 34 l 1
 57 34 l 1
 57 35 l 1
60 35 m 1
 58 35 l 1
 58 34 l 1
 59 34 l 1
 59 33 l 1
 60 33 l 1
 60 35 l 1
63 35 m 1
 61 35 l 1
 61 33 l 1
 63 33 l 1
 63 35 l 1
63 31 m 1
 61 31 l 1
 61 29 l 1
 63 29 l 1
 63 31 l 1
58 27 m 1
 56 27 l 1
 56 25 l 1
 57 25 l 1
 57 26 l 1
 58 26 l 1
 58 27 l 1
60 27 m 1
 59 27 l 1
 59 26 l 1
 58 26 l 1
 58 25 l 1
 60 25 l 1
 60 27 l 1
63 27 m 1
 61 27 l 1
 61 25 l 1
 63 25 l 1
 63 27 l 1
EndSplineSet
EndChar

StartChar: custom_3_5_0_4_7
Encoding: 30515 30515 10547
Width: 70
Flags: H
LayerCount: 2
Fore
SplineSet
23 43 m 1
 21 43 l 1
 21 41 l 1
 23 41 l 1
 23 43 l 1
26 43 m 1
 24 43 l 1
 24 41 l 1
 25 41 l 1
 25 42 l 1
 26 42 l 1
 26 43 l 1
28 43 m 1
 27 43 l 1
 27 42 l 1
 26 42 l 1
 26 41 l 1
 28 41 l 1
 28 43 l 1
31 43 m 1
 29 43 l 1
 29 41 l 1
 31 41 l 1
 31 43 l 1
31 39 m 1
 29 39 l 1
 29 37 l 1
 31 37 l 1
 31 39 l 1
41 43 m 1
 39 43 l 1
 39 41 l 1
 41 41 l 1
 41 43 l 1
36 37 m 1
 34 37 l 1
 34 35 l 1
 36 35 l 1
 36 37 l 1
31 35 m 1
 29 35 l 1
 29 33 l 1
 31 33 l 1
 31 35 l 1
31 31 m 1
 29 31 l 1
 29 29 l 1
 31 29 l 1
 31 31 l 1
36 33 m 1
 34 33 l 1
 34 31 l 1
 36 31 l 1
 36 33 l 1
41 35 m 1
 39 35 l 1
 39 33 l 1
 41 33 l 1
 41 35 l 1
31 27 m 1
 29 27 l 1
 29 25 l 1
 31 25 l 1
 31 27 l 1
41 27 m 1
 39 27 l 1
 39 25 l 1
 41 25 l 1
 41 27 l 1
44 43 m 1
 42 43 l 1
 42 41 l 1
 43 41 l 1
 43 42 l 1
 44 42 l 1
 44 43 l 1
46 43 m 1
 45 43 l 1
 45 42 l 1
 44 42 l 1
 44 41 l 1
 46 41 l 1
 46 43 l 1
49 43 m 1
 47 43 l 1
 47 41 l 1
 49 41 l 1
 49 43 l 1
49 39 m 1
 47 39 l 1
 47 37 l 1
 49 37 l 1
 49 39 l 1
55 43 m 1
 53 43 l 1
 53 41 l 1
 55 41 l 1
 55 43 l 1
55 39 m 1
 53 39 l 1
 53 37 l 1
 55 37 l 1
 55 39 l 1
58 43 m 1
 56 43 l 1
 56 41 l 1
 57 41 l 1
 57 42 l 1
 58 42 l 1
 58 43 l 1
60 43 m 1
 59 43 l 1
 59 42 l 1
 58 42 l 1
 58 41 l 1
 60 41 l 1
 60 43 l 1
63 43 m 1
 61 43 l 1
 61 41 l 1
 63 41 l 1
 63 43 l 1
43 35 m 1
 42 35 l 1
 42 33 l 1
 44 33 l 1
 44 34 l 1
 43 34 l 1
 43 35 l 1
46 35 m 1
 44 35 l 1
 44 34 l 1
 45 34 l 1
 45 33 l 1
 46 33 l 1
 46 35 l 1
49 35 m 1
 47 35 l 1
 47 33 l 1
 49 33 l 1
 49 35 l 1
49 31 m 1
 47 31 l 1
 47 29 l 1
 49 29 l 1
 49 31 l 1
55 35 m 1
 53 35 l 1
 53 33 l 1
 55 33 l 1
 55 35 l 1
44 27 m 1
 42 27 l 1
 42 25 l 1
 43 25 l 1
 43 26 l 1
 44 26 l 1
 44 27 l 1
46 27 m 1
 45 27 l 1
 45 26 l 1
 44 26 l 1
 44 25 l 1
 46 25 l 1
 46 27 l 1
49 27 m 1
 47 27 l 1
 47 25 l 1
 49 25 l 1
 49 27 l 1
55 27 m 1
 53 27 l 1
 53 25 l 1
 55 25 l 1
 55 27 l 1
57 35 m 1
 56 35 l 1
 56 33 l 1
 58 33 l 1
 58 34 l 1
 57 34 l 1
 57 35 l 1
60 35 m 1
 58 35 l 1
 58 34 l 1
 59 34 l 1
 59 33 l 1
 60 33 l 1
 60 35 l 1
63 35 m 1
 61 35 l 1
 61 33 l 1
 63 33 l 1
 63 35 l 1
63 31 m 1
 61 31 l 1
 61 29 l 1
 63 29 l 1
 63 31 l 1
58 27 m 1
 56 27 l 1
 56 25 l 1
 57 25 l 1
 57 26 l 1
 58 26 l 1
 58 27 l 1
60 27 m 1
 59 27 l 1
 59 26 l 1
 58 26 l 1
 58 25 l 1
 60 25 l 1
 60 27 l 1
63 27 m 1
 61 27 l 1
 61 25 l 1
 63 25 l 1
 63 27 l 1
EndSplineSet
EndChar

StartChar: custom_3_5_0_4_8
Encoding: 30516 30516 10548
Width: 70
Flags: H
LayerCount: 2
Fore
SplineSet
23 43 m 1
 21 43 l 1
 21 41 l 1
 23 41 l 1
 23 43 l 1
26 43 m 1
 24 43 l 1
 24 41 l 1
 25 41 l 1
 25 42 l 1
 26 42 l 1
 26 43 l 1
28 43 m 1
 27 43 l 1
 27 42 l 1
 26 42 l 1
 26 41 l 1
 28 41 l 1
 28 43 l 1
31 43 m 1
 29 43 l 1
 29 41 l 1
 31 41 l 1
 31 43 l 1
31 39 m 1
 29 39 l 1
 29 37 l 1
 31 37 l 1
 31 39 l 1
41 43 m 1
 39 43 l 1
 39 41 l 1
 41 41 l 1
 41 43 l 1
36 37 m 1
 34 37 l 1
 34 35 l 1
 36 35 l 1
 36 37 l 1
31 35 m 1
 29 35 l 1
 29 33 l 1
 31 33 l 1
 31 35 l 1
31 31 m 1
 29 31 l 1
 29 29 l 1
 31 29 l 1
 31 31 l 1
36 33 m 1
 34 33 l 1
 34 31 l 1
 36 31 l 1
 36 33 l 1
41 35 m 1
 39 35 l 1
 39 33 l 1
 41 33 l 1
 41 35 l 1
31 27 m 1
 29 27 l 1
 29 25 l 1
 31 25 l 1
 31 27 l 1
41 27 m 1
 39 27 l 1
 39 25 l 1
 41 25 l 1
 41 27 l 1
44 43 m 1
 42 43 l 1
 42 41 l 1
 43 41 l 1
 43 42 l 1
 44 42 l 1
 44 43 l 1
46 43 m 1
 45 43 l 1
 45 42 l 1
 44 42 l 1
 44 41 l 1
 46 41 l 1
 46 43 l 1
49 43 m 1
 47 43 l 1
 47 41 l 1
 49 41 l 1
 49 43 l 1
49 39 m 1
 47 39 l 1
 47 37 l 1
 49 37 l 1
 49 39 l 1
55 43 m 1
 53 43 l 1
 53 41 l 1
 55 41 l 1
 55 43 l 1
55 39 m 1
 53 39 l 1
 53 37 l 1
 55 37 l 1
 55 39 l 1
58 43 m 1
 56 43 l 1
 56 41 l 1
 57 41 l 1
 57 42 l 1
 58 42 l 1
 58 43 l 1
60 43 m 1
 59 43 l 1
 59 42 l 1
 58 42 l 1
 58 41 l 1
 60 41 l 1
 60 43 l 1
63 43 m 1
 61 43 l 1
 61 41 l 1
 63 41 l 1
 63 43 l 1
43 35 m 1
 42 35 l 1
 42 33 l 1
 44 33 l 1
 44 34 l 1
 43 34 l 1
 43 35 l 1
46 35 m 1
 44 35 l 1
 44 34 l 1
 45 34 l 1
 45 33 l 1
 46 33 l 1
 46 35 l 1
49 35 m 1
 47 35 l 1
 47 33 l 1
 49 33 l 1
 49 35 l 1
49 31 m 1
 47 31 l 1
 47 29 l 1
 49 29 l 1
 49 31 l 1
55 35 m 1
 53 35 l 1
 53 33 l 1
 55 33 l 1
 55 35 l 1
44 27 m 1
 42 27 l 1
 42 25 l 1
 43 25 l 1
 43 26 l 1
 44 26 l 1
 44 27 l 1
46 27 m 1
 45 27 l 1
 45 26 l 1
 44 26 l 1
 44 25 l 1
 46 25 l 1
 46 27 l 1
49 27 m 1
 47 27 l 1
 47 25 l 1
 49 25 l 1
 49 27 l 1
55 27 m 1
 53 27 l 1
 53 25 l 1
 55 25 l 1
 55 27 l 1
57 35 m 1
 56 35 l 1
 56 33 l 1
 58 33 l 1
 58 34 l 1
 57 34 l 1
 57 35 l 1
60 35 m 1
 58 35 l 1
 58 34 l 1
 59 34 l 1
 59 33 l 1
 60 33 l 1
 60 35 l 1
63 35 m 1
 61 35 l 1
 61 33 l 1
 63 33 l 1
 63 35 l 1
63 31 m 1
 61 31 l 1
 61 29 l 1
 63 29 l 1
 63 31 l 1
58 27 m 1
 56 27 l 1
 56 25 l 1
 57 25 l 1
 57 26 l 1
 58 26 l 1
 58 27 l 1
60 27 m 1
 59 27 l 1
 59 26 l 1
 58 26 l 1
 58 25 l 1
 60 25 l 1
 60 27 l 1
63 27 m 1
 61 27 l 1
 61 25 l 1
 63 25 l 1
 63 27 l 1
EndSplineSet
EndChar

StartChar: custom_3_5_0_4_9
Encoding: 30517 30517 10549
Width: 70
Flags: H
LayerCount: 2
Fore
SplineSet
23 43 m 1
 21 43 l 1
 21 41 l 1
 23 41 l 1
 23 43 l 1
26 43 m 1
 24 43 l 1
 24 41 l 1
 25 41 l 1
 25 42 l 1
 26 42 l 1
 26 43 l 1
28 43 m 1
 27 43 l 1
 27 42 l 1
 26 42 l 1
 26 41 l 1
 28 41 l 1
 28 43 l 1
31 43 m 1
 29 43 l 1
 29 41 l 1
 31 41 l 1
 31 43 l 1
31 39 m 1
 29 39 l 1
 29 37 l 1
 31 37 l 1
 31 39 l 1
41 43 m 1
 39 43 l 1
 39 41 l 1
 41 41 l 1
 41 43 l 1
36 37 m 1
 34 37 l 1
 34 35 l 1
 36 35 l 1
 36 37 l 1
31 35 m 1
 29 35 l 1
 29 33 l 1
 31 33 l 1
 31 35 l 1
31 31 m 1
 29 31 l 1
 29 29 l 1
 31 29 l 1
 31 31 l 1
36 33 m 1
 34 33 l 1
 34 31 l 1
 36 31 l 1
 36 33 l 1
41 35 m 1
 39 35 l 1
 39 33 l 1
 41 33 l 1
 41 35 l 1
31 27 m 1
 29 27 l 1
 29 25 l 1
 31 25 l 1
 31 27 l 1
41 27 m 1
 39 27 l 1
 39 25 l 1
 41 25 l 1
 41 27 l 1
44 43 m 1
 42 43 l 1
 42 41 l 1
 43 41 l 1
 43 42 l 1
 44 42 l 1
 44 43 l 1
46 43 m 1
 45 43 l 1
 45 42 l 1
 44 42 l 1
 44 41 l 1
 46 41 l 1
 46 43 l 1
49 43 m 1
 47 43 l 1
 47 41 l 1
 49 41 l 1
 49 43 l 1
49 39 m 1
 47 39 l 1
 47 37 l 1
 49 37 l 1
 49 39 l 1
55 43 m 1
 53 43 l 1
 53 41 l 1
 55 41 l 1
 55 43 l 1
55 39 m 1
 53 39 l 1
 53 37 l 1
 55 37 l 1
 55 39 l 1
58 43 m 1
 56 43 l 1
 56 41 l 1
 57 41 l 1
 57 42 l 1
 58 42 l 1
 58 43 l 1
60 43 m 1
 59 43 l 1
 59 42 l 1
 58 42 l 1
 58 41 l 1
 60 41 l 1
 60 43 l 1
63 43 m 1
 61 43 l 1
 61 41 l 1
 63 41 l 1
 63 43 l 1
43 35 m 1
 42 35 l 1
 42 33 l 1
 44 33 l 1
 44 34 l 1
 43 34 l 1
 43 35 l 1
46 35 m 1
 44 35 l 1
 44 34 l 1
 45 34 l 1
 45 33 l 1
 46 33 l 1
 46 35 l 1
49 35 m 1
 47 35 l 1
 47 33 l 1
 49 33 l 1
 49 35 l 1
49 31 m 1
 47 31 l 1
 47 29 l 1
 49 29 l 1
 49 31 l 1
55 35 m 1
 53 35 l 1
 53 33 l 1
 55 33 l 1
 55 35 l 1
44 27 m 1
 42 27 l 1
 42 25 l 1
 43 25 l 1
 43 26 l 1
 44 26 l 1
 44 27 l 1
46 27 m 1
 45 27 l 1
 45 26 l 1
 44 26 l 1
 44 25 l 1
 46 25 l 1
 46 27 l 1
49 27 m 1
 47 27 l 1
 47 25 l 1
 49 25 l 1
 49 27 l 1
55 27 m 1
 53 27 l 1
 53 25 l 1
 55 25 l 1
 55 27 l 1
57 35 m 1
 56 35 l 1
 56 33 l 1
 58 33 l 1
 58 34 l 1
 57 34 l 1
 57 35 l 1
60 35 m 1
 58 35 l 1
 58 34 l 1
 59 34 l 1
 59 33 l 1
 60 33 l 1
 60 35 l 1
63 35 m 1
 61 35 l 1
 61 33 l 1
 63 33 l 1
 63 35 l 1
63 31 m 1
 61 31 l 1
 61 29 l 1
 63 29 l 1
 63 31 l 1
58 27 m 1
 56 27 l 1
 56 25 l 1
 57 25 l 1
 57 26 l 1
 58 26 l 1
 58 27 l 1
60 27 m 1
 59 27 l 1
 59 26 l 1
 58 26 l 1
 58 25 l 1
 60 25 l 1
 60 27 l 1
63 27 m 1
 61 27 l 1
 61 25 l 1
 63 25 l 1
 63 27 l 1
EndSplineSet
EndChar

StartChar: custom_3_5_0_5_0
Encoding: 30518 30518 10550
Width: 70
Flags: H
LayerCount: 2
Fore
SplineSet
23 43 m 1
 21 43 l 1
 21 41 l 1
 23 41 l 1
 23 43 l 1
26 43 m 1
 24 43 l 1
 24 41 l 1
 25 41 l 1
 25 42 l 1
 26 42 l 1
 26 43 l 1
28 43 m 1
 27 43 l 1
 27 42 l 1
 26 42 l 1
 26 41 l 1
 28 41 l 1
 28 43 l 1
31 43 m 1
 29 43 l 1
 29 41 l 1
 31 41 l 1
 31 43 l 1
31 39 m 1
 29 39 l 1
 29 37 l 1
 31 37 l 1
 31 39 l 1
41 43 m 1
 39 43 l 1
 39 41 l 1
 41 41 l 1
 41 43 l 1
36 37 m 1
 34 37 l 1
 34 35 l 1
 36 35 l 1
 36 37 l 1
31 35 m 1
 29 35 l 1
 29 33 l 1
 31 33 l 1
 31 35 l 1
31 31 m 1
 29 31 l 1
 29 29 l 1
 31 29 l 1
 31 31 l 1
36 33 m 1
 34 33 l 1
 34 31 l 1
 36 31 l 1
 36 33 l 1
41 35 m 1
 39 35 l 1
 39 33 l 1
 41 33 l 1
 41 35 l 1
31 27 m 1
 29 27 l 1
 29 25 l 1
 31 25 l 1
 31 27 l 1
41 27 m 1
 39 27 l 1
 39 25 l 1
 41 25 l 1
 41 27 l 1
44 43 m 1
 42 43 l 1
 42 41 l 1
 43 41 l 1
 43 42 l 1
 44 42 l 1
 44 43 l 1
46 43 m 1
 45 43 l 1
 45 42 l 1
 44 42 l 1
 44 41 l 1
 46 41 l 1
 46 43 l 1
49 43 m 1
 47 43 l 1
 47 41 l 1
 49 41 l 1
 49 43 l 1
49 39 m 1
 47 39 l 1
 47 37 l 1
 49 37 l 1
 49 39 l 1
55 43 m 1
 53 43 l 1
 53 41 l 1
 55 41 l 1
 55 43 l 1
55 39 m 1
 53 39 l 1
 53 37 l 1
 55 37 l 1
 55 39 l 1
58 43 m 1
 56 43 l 1
 56 41 l 1
 57 41 l 1
 57 42 l 1
 58 42 l 1
 58 43 l 1
60 43 m 1
 59 43 l 1
 59 42 l 1
 58 42 l 1
 58 41 l 1
 60 41 l 1
 60 43 l 1
63 43 m 1
 61 43 l 1
 61 41 l 1
 63 41 l 1
 63 43 l 1
43 35 m 1
 42 35 l 1
 42 33 l 1
 44 33 l 1
 44 34 l 1
 43 34 l 1
 43 35 l 1
46 35 m 1
 44 35 l 1
 44 34 l 1
 45 34 l 1
 45 33 l 1
 46 33 l 1
 46 35 l 1
49 35 m 1
 47 35 l 1
 47 33 l 1
 49 33 l 1
 49 35 l 1
49 31 m 1
 47 31 l 1
 47 29 l 1
 49 29 l 1
 49 31 l 1
55 35 m 1
 53 35 l 1
 53 33 l 1
 55 33 l 1
 55 35 l 1
44 27 m 1
 42 27 l 1
 42 25 l 1
 43 25 l 1
 43 26 l 1
 44 26 l 1
 44 27 l 1
46 27 m 1
 45 27 l 1
 45 26 l 1
 44 26 l 1
 44 25 l 1
 46 25 l 1
 46 27 l 1
49 27 m 1
 47 27 l 1
 47 25 l 1
 49 25 l 1
 49 27 l 1
55 27 m 1
 53 27 l 1
 53 25 l 1
 55 25 l 1
 55 27 l 1
57 35 m 1
 56 35 l 1
 56 33 l 1
 58 33 l 1
 58 34 l 1
 57 34 l 1
 57 35 l 1
60 35 m 1
 58 35 l 1
 58 34 l 1
 59 34 l 1
 59 33 l 1
 60 33 l 1
 60 35 l 1
63 35 m 1
 61 35 l 1
 61 33 l 1
 63 33 l 1
 63 35 l 1
63 31 m 1
 61 31 l 1
 61 29 l 1
 63 29 l 1
 63 31 l 1
58 27 m 1
 56 27 l 1
 56 25 l 1
 57 25 l 1
 57 26 l 1
 58 26 l 1
 58 27 l 1
60 27 m 1
 59 27 l 1
 59 26 l 1
 58 26 l 1
 58 25 l 1
 60 25 l 1
 60 27 l 1
63 27 m 1
 61 27 l 1
 61 25 l 1
 63 25 l 1
 63 27 l 1
EndSplineSet
EndChar

StartChar: custom_3_5_0_5_1
Encoding: 30519 30519 10551
Width: 70
Flags: H
LayerCount: 2
Fore
SplineSet
23 43 m 1
 21 43 l 1
 21 41 l 1
 23 41 l 1
 23 43 l 1
26 43 m 1
 24 43 l 1
 24 41 l 1
 25 41 l 1
 25 42 l 1
 26 42 l 1
 26 43 l 1
28 43 m 1
 27 43 l 1
 27 42 l 1
 26 42 l 1
 26 41 l 1
 28 41 l 1
 28 43 l 1
31 43 m 1
 29 43 l 1
 29 41 l 1
 31 41 l 1
 31 43 l 1
31 39 m 1
 29 39 l 1
 29 37 l 1
 31 37 l 1
 31 39 l 1
41 43 m 1
 39 43 l 1
 39 41 l 1
 41 41 l 1
 41 43 l 1
36 37 m 1
 34 37 l 1
 34 35 l 1
 36 35 l 1
 36 37 l 1
31 35 m 1
 29 35 l 1
 29 33 l 1
 31 33 l 1
 31 35 l 1
31 31 m 1
 29 31 l 1
 29 29 l 1
 31 29 l 1
 31 31 l 1
36 33 m 1
 34 33 l 1
 34 31 l 1
 36 31 l 1
 36 33 l 1
41 35 m 1
 39 35 l 1
 39 33 l 1
 41 33 l 1
 41 35 l 1
31 27 m 1
 29 27 l 1
 29 25 l 1
 31 25 l 1
 31 27 l 1
41 27 m 1
 39 27 l 1
 39 25 l 1
 41 25 l 1
 41 27 l 1
44 43 m 1
 42 43 l 1
 42 41 l 1
 43 41 l 1
 43 42 l 1
 44 42 l 1
 44 43 l 1
46 43 m 1
 45 43 l 1
 45 42 l 1
 44 42 l 1
 44 41 l 1
 46 41 l 1
 46 43 l 1
49 43 m 1
 47 43 l 1
 47 41 l 1
 49 41 l 1
 49 43 l 1
49 39 m 1
 47 39 l 1
 47 37 l 1
 49 37 l 1
 49 39 l 1
55 43 m 1
 53 43 l 1
 53 41 l 1
 55 41 l 1
 55 43 l 1
55 39 m 1
 53 39 l 1
 53 37 l 1
 55 37 l 1
 55 39 l 1
58 43 m 1
 56 43 l 1
 56 41 l 1
 57 41 l 1
 57 42 l 1
 58 42 l 1
 58 43 l 1
60 43 m 1
 59 43 l 1
 59 42 l 1
 58 42 l 1
 58 41 l 1
 60 41 l 1
 60 43 l 1
63 43 m 1
 61 43 l 1
 61 41 l 1
 63 41 l 1
 63 43 l 1
43 35 m 1
 42 35 l 1
 42 33 l 1
 44 33 l 1
 44 34 l 1
 43 34 l 1
 43 35 l 1
46 35 m 1
 44 35 l 1
 44 34 l 1
 45 34 l 1
 45 33 l 1
 46 33 l 1
 46 35 l 1
49 35 m 1
 47 35 l 1
 47 33 l 1
 49 33 l 1
 49 35 l 1
49 31 m 1
 47 31 l 1
 47 29 l 1
 49 29 l 1
 49 31 l 1
55 35 m 1
 53 35 l 1
 53 33 l 1
 55 33 l 1
 55 35 l 1
44 27 m 1
 42 27 l 1
 42 25 l 1
 43 25 l 1
 43 26 l 1
 44 26 l 1
 44 27 l 1
46 27 m 1
 45 27 l 1
 45 26 l 1
 44 26 l 1
 44 25 l 1
 46 25 l 1
 46 27 l 1
49 27 m 1
 47 27 l 1
 47 25 l 1
 49 25 l 1
 49 27 l 1
55 27 m 1
 53 27 l 1
 53 25 l 1
 55 25 l 1
 55 27 l 1
57 35 m 1
 56 35 l 1
 56 33 l 1
 58 33 l 1
 58 34 l 1
 57 34 l 1
 57 35 l 1
60 35 m 1
 58 35 l 1
 58 34 l 1
 59 34 l 1
 59 33 l 1
 60 33 l 1
 60 35 l 1
63 35 m 1
 61 35 l 1
 61 33 l 1
 63 33 l 1
 63 35 l 1
63 31 m 1
 61 31 l 1
 61 29 l 1
 63 29 l 1
 63 31 l 1
58 27 m 1
 56 27 l 1
 56 25 l 1
 57 25 l 1
 57 26 l 1
 58 26 l 1
 58 27 l 1
60 27 m 1
 59 27 l 1
 59 26 l 1
 58 26 l 1
 58 25 l 1
 60 25 l 1
 60 27 l 1
63 27 m 1
 61 27 l 1
 61 25 l 1
 63 25 l 1
 63 27 l 1
EndSplineSet
EndChar

StartChar: custom_3_5_0_5_2
Encoding: 30520 30520 10552
Width: 70
Flags: H
LayerCount: 2
Fore
SplineSet
23 43 m 1
 21 43 l 1
 21 41 l 1
 23 41 l 1
 23 43 l 1
26 43 m 1
 24 43 l 1
 24 41 l 1
 25 41 l 1
 25 42 l 1
 26 42 l 1
 26 43 l 1
28 43 m 1
 27 43 l 1
 27 42 l 1
 26 42 l 1
 26 41 l 1
 28 41 l 1
 28 43 l 1
31 43 m 1
 29 43 l 1
 29 41 l 1
 31 41 l 1
 31 43 l 1
31 39 m 1
 29 39 l 1
 29 37 l 1
 31 37 l 1
 31 39 l 1
41 43 m 1
 39 43 l 1
 39 41 l 1
 41 41 l 1
 41 43 l 1
36 37 m 1
 34 37 l 1
 34 35 l 1
 36 35 l 1
 36 37 l 1
31 35 m 1
 29 35 l 1
 29 33 l 1
 31 33 l 1
 31 35 l 1
31 31 m 1
 29 31 l 1
 29 29 l 1
 31 29 l 1
 31 31 l 1
36 33 m 1
 34 33 l 1
 34 31 l 1
 36 31 l 1
 36 33 l 1
41 35 m 1
 39 35 l 1
 39 33 l 1
 41 33 l 1
 41 35 l 1
31 27 m 1
 29 27 l 1
 29 25 l 1
 31 25 l 1
 31 27 l 1
41 27 m 1
 39 27 l 1
 39 25 l 1
 41 25 l 1
 41 27 l 1
44 43 m 1
 42 43 l 1
 42 41 l 1
 43 41 l 1
 43 42 l 1
 44 42 l 1
 44 43 l 1
46 43 m 1
 45 43 l 1
 45 42 l 1
 44 42 l 1
 44 41 l 1
 46 41 l 1
 46 43 l 1
49 43 m 1
 47 43 l 1
 47 41 l 1
 49 41 l 1
 49 43 l 1
49 39 m 1
 47 39 l 1
 47 37 l 1
 49 37 l 1
 49 39 l 1
55 43 m 1
 53 43 l 1
 53 41 l 1
 55 41 l 1
 55 43 l 1
55 39 m 1
 53 39 l 1
 53 37 l 1
 55 37 l 1
 55 39 l 1
58 43 m 1
 56 43 l 1
 56 41 l 1
 57 41 l 1
 57 42 l 1
 58 42 l 1
 58 43 l 1
60 43 m 1
 59 43 l 1
 59 42 l 1
 58 42 l 1
 58 41 l 1
 60 41 l 1
 60 43 l 1
63 43 m 1
 61 43 l 1
 61 41 l 1
 63 41 l 1
 63 43 l 1
43 35 m 1
 42 35 l 1
 42 33 l 1
 44 33 l 1
 44 34 l 1
 43 34 l 1
 43 35 l 1
46 35 m 1
 44 35 l 1
 44 34 l 1
 45 34 l 1
 45 33 l 1
 46 33 l 1
 46 35 l 1
49 35 m 1
 47 35 l 1
 47 33 l 1
 49 33 l 1
 49 35 l 1
49 31 m 1
 47 31 l 1
 47 29 l 1
 49 29 l 1
 49 31 l 1
55 35 m 1
 53 35 l 1
 53 33 l 1
 55 33 l 1
 55 35 l 1
44 27 m 1
 42 27 l 1
 42 25 l 1
 43 25 l 1
 43 26 l 1
 44 26 l 1
 44 27 l 1
46 27 m 1
 45 27 l 1
 45 26 l 1
 44 26 l 1
 44 25 l 1
 46 25 l 1
 46 27 l 1
49 27 m 1
 47 27 l 1
 47 25 l 1
 49 25 l 1
 49 27 l 1
55 27 m 1
 53 27 l 1
 53 25 l 1
 55 25 l 1
 55 27 l 1
57 35 m 1
 56 35 l 1
 56 33 l 1
 58 33 l 1
 58 34 l 1
 57 34 l 1
 57 35 l 1
60 35 m 1
 58 35 l 1
 58 34 l 1
 59 34 l 1
 59 33 l 1
 60 33 l 1
 60 35 l 1
63 35 m 1
 61 35 l 1
 61 33 l 1
 63 33 l 1
 63 35 l 1
63 31 m 1
 61 31 l 1
 61 29 l 1
 63 29 l 1
 63 31 l 1
58 27 m 1
 56 27 l 1
 56 25 l 1
 57 25 l 1
 57 26 l 1
 58 26 l 1
 58 27 l 1
60 27 m 1
 59 27 l 1
 59 26 l 1
 58 26 l 1
 58 25 l 1
 60 25 l 1
 60 27 l 1
63 27 m 1
 61 27 l 1
 61 25 l 1
 63 25 l 1
 63 27 l 1
EndSplineSet
EndChar

StartChar: custom_3_5_0_5_3
Encoding: 30521 30521 10553
Width: 70
Flags: H
LayerCount: 2
Fore
SplineSet
23 43 m 1
 21 43 l 1
 21 41 l 1
 23 41 l 1
 23 43 l 1
26 43 m 1
 24 43 l 1
 24 41 l 1
 25 41 l 1
 25 42 l 1
 26 42 l 1
 26 43 l 1
28 43 m 1
 27 43 l 1
 27 42 l 1
 26 42 l 1
 26 41 l 1
 28 41 l 1
 28 43 l 1
31 43 m 1
 29 43 l 1
 29 41 l 1
 31 41 l 1
 31 43 l 1
31 39 m 1
 29 39 l 1
 29 37 l 1
 31 37 l 1
 31 39 l 1
41 43 m 1
 39 43 l 1
 39 41 l 1
 41 41 l 1
 41 43 l 1
36 37 m 1
 34 37 l 1
 34 35 l 1
 36 35 l 1
 36 37 l 1
31 35 m 1
 29 35 l 1
 29 33 l 1
 31 33 l 1
 31 35 l 1
31 31 m 1
 29 31 l 1
 29 29 l 1
 31 29 l 1
 31 31 l 1
36 33 m 1
 34 33 l 1
 34 31 l 1
 36 31 l 1
 36 33 l 1
41 35 m 1
 39 35 l 1
 39 33 l 1
 41 33 l 1
 41 35 l 1
31 27 m 1
 29 27 l 1
 29 25 l 1
 31 25 l 1
 31 27 l 1
41 27 m 1
 39 27 l 1
 39 25 l 1
 41 25 l 1
 41 27 l 1
44 43 m 1
 42 43 l 1
 42 41 l 1
 43 41 l 1
 43 42 l 1
 44 42 l 1
 44 43 l 1
46 43 m 1
 45 43 l 1
 45 42 l 1
 44 42 l 1
 44 41 l 1
 46 41 l 1
 46 43 l 1
49 43 m 1
 47 43 l 1
 47 41 l 1
 49 41 l 1
 49 43 l 1
49 39 m 1
 47 39 l 1
 47 37 l 1
 49 37 l 1
 49 39 l 1
55 43 m 1
 53 43 l 1
 53 41 l 1
 55 41 l 1
 55 43 l 1
55 39 m 1
 53 39 l 1
 53 37 l 1
 55 37 l 1
 55 39 l 1
58 43 m 1
 56 43 l 1
 56 41 l 1
 57 41 l 1
 57 42 l 1
 58 42 l 1
 58 43 l 1
60 43 m 1
 59 43 l 1
 59 42 l 1
 58 42 l 1
 58 41 l 1
 60 41 l 1
 60 43 l 1
63 43 m 1
 61 43 l 1
 61 41 l 1
 63 41 l 1
 63 43 l 1
43 35 m 1
 42 35 l 1
 42 33 l 1
 44 33 l 1
 44 34 l 1
 43 34 l 1
 43 35 l 1
46 35 m 1
 44 35 l 1
 44 34 l 1
 45 34 l 1
 45 33 l 1
 46 33 l 1
 46 35 l 1
49 35 m 1
 47 35 l 1
 47 33 l 1
 49 33 l 1
 49 35 l 1
49 31 m 1
 47 31 l 1
 47 29 l 1
 49 29 l 1
 49 31 l 1
55 35 m 1
 53 35 l 1
 53 33 l 1
 55 33 l 1
 55 35 l 1
44 27 m 1
 42 27 l 1
 42 25 l 1
 43 25 l 1
 43 26 l 1
 44 26 l 1
 44 27 l 1
46 27 m 1
 45 27 l 1
 45 26 l 1
 44 26 l 1
 44 25 l 1
 46 25 l 1
 46 27 l 1
49 27 m 1
 47 27 l 1
 47 25 l 1
 49 25 l 1
 49 27 l 1
55 27 m 1
 53 27 l 1
 53 25 l 1
 55 25 l 1
 55 27 l 1
57 35 m 1
 56 35 l 1
 56 33 l 1
 58 33 l 1
 58 34 l 1
 57 34 l 1
 57 35 l 1
60 35 m 1
 58 35 l 1
 58 34 l 1
 59 34 l 1
 59 33 l 1
 60 33 l 1
 60 35 l 1
63 35 m 1
 61 35 l 1
 61 33 l 1
 63 33 l 1
 63 35 l 1
63 31 m 1
 61 31 l 1
 61 29 l 1
 63 29 l 1
 63 31 l 1
58 27 m 1
 56 27 l 1
 56 25 l 1
 57 25 l 1
 57 26 l 1
 58 26 l 1
 58 27 l 1
60 27 m 1
 59 27 l 1
 59 26 l 1
 58 26 l 1
 58 25 l 1
 60 25 l 1
 60 27 l 1
63 27 m 1
 61 27 l 1
 61 25 l 1
 63 25 l 1
 63 27 l 1
EndSplineSet
EndChar

StartChar: custom_3_5_0_5_4
Encoding: 30522 30522 10554
Width: 70
Flags: H
LayerCount: 2
Fore
SplineSet
8 -1 m 1
 7 -1 l 1
 7 -2 l 1
 8 -2 l 1
 8 -1 l 1
23 43 m 1
 21 43 l 1
 21 41 l 1
 23 41 l 1
 23 43 l 1
26 43 m 1
 24 43 l 1
 24 41 l 1
 25 41 l 1
 25 42 l 1
 26 42 l 1
 26 43 l 1
28 43 m 1
 27 43 l 1
 27 42 l 1
 26 42 l 1
 26 41 l 1
 28 41 l 1
 28 43 l 1
31 43 m 1
 29 43 l 1
 29 41 l 1
 31 41 l 1
 31 43 l 1
31 39 m 1
 29 39 l 1
 29 37 l 1
 31 37 l 1
 31 39 l 1
41 43 m 1
 39 43 l 1
 39 41 l 1
 41 41 l 1
 41 43 l 1
36 37 m 1
 34 37 l 1
 34 35 l 1
 36 35 l 1
 36 37 l 1
31 35 m 1
 29 35 l 1
 29 33 l 1
 31 33 l 1
 31 35 l 1
31 31 m 1
 29 31 l 1
 29 29 l 1
 31 29 l 1
 31 31 l 1
36 33 m 1
 34 33 l 1
 34 31 l 1
 36 31 l 1
 36 33 l 1
41 35 m 1
 39 35 l 1
 39 33 l 1
 41 33 l 1
 41 35 l 1
31 27 m 1
 29 27 l 1
 29 25 l 1
 31 25 l 1
 31 27 l 1
41 27 m 1
 39 27 l 1
 39 25 l 1
 41 25 l 1
 41 27 l 1
44 43 m 1
 42 43 l 1
 42 41 l 1
 43 41 l 1
 43 42 l 1
 44 42 l 1
 44 43 l 1
46 43 m 1
 45 43 l 1
 45 42 l 1
 44 42 l 1
 44 41 l 1
 46 41 l 1
 46 43 l 1
49 43 m 1
 47 43 l 1
 47 41 l 1
 49 41 l 1
 49 43 l 1
49 39 m 1
 47 39 l 1
 47 37 l 1
 49 37 l 1
 49 39 l 1
55 43 m 1
 53 43 l 1
 53 41 l 1
 55 41 l 1
 55 43 l 1
55 39 m 1
 53 39 l 1
 53 37 l 1
 55 37 l 1
 55 39 l 1
58 43 m 1
 56 43 l 1
 56 41 l 1
 57 41 l 1
 57 42 l 1
 58 42 l 1
 58 43 l 1
60 43 m 1
 59 43 l 1
 59 42 l 1
 58 42 l 1
 58 41 l 1
 60 41 l 1
 60 43 l 1
63 43 m 1
 61 43 l 1
 61 41 l 1
 63 41 l 1
 63 43 l 1
43 35 m 1
 42 35 l 1
 42 33 l 1
 44 33 l 1
 44 34 l 1
 43 34 l 1
 43 35 l 1
46 35 m 1
 44 35 l 1
 44 34 l 1
 45 34 l 1
 45 33 l 1
 46 33 l 1
 46 35 l 1
49 35 m 1
 47 35 l 1
 47 33 l 1
 49 33 l 1
 49 35 l 1
49 31 m 1
 47 31 l 1
 47 29 l 1
 49 29 l 1
 49 31 l 1
55 35 m 1
 53 35 l 1
 53 33 l 1
 55 33 l 1
 55 35 l 1
44 27 m 1
 42 27 l 1
 42 25 l 1
 43 25 l 1
 43 26 l 1
 44 26 l 1
 44 27 l 1
46 27 m 1
 45 27 l 1
 45 26 l 1
 44 26 l 1
 44 25 l 1
 46 25 l 1
 46 27 l 1
49 27 m 1
 47 27 l 1
 47 25 l 1
 49 25 l 1
 49 27 l 1
55 27 m 1
 53 27 l 1
 53 25 l 1
 55 25 l 1
 55 27 l 1
57 35 m 1
 56 35 l 1
 56 33 l 1
 58 33 l 1
 58 34 l 1
 57 34 l 1
 57 35 l 1
60 35 m 1
 58 35 l 1
 58 34 l 1
 59 34 l 1
 59 33 l 1
 60 33 l 1
 60 35 l 1
63 35 m 1
 61 35 l 1
 61 33 l 1
 63 33 l 1
 63 35 l 1
63 31 m 1
 61 31 l 1
 61 29 l 1
 63 29 l 1
 63 31 l 1
58 27 m 1
 56 27 l 1
 56 25 l 1
 57 25 l 1
 57 26 l 1
 58 26 l 1
 58 27 l 1
60 27 m 1
 59 27 l 1
 59 26 l 1
 58 26 l 1
 58 25 l 1
 60 25 l 1
 60 27 l 1
63 27 m 1
 61 27 l 1
 61 25 l 1
 63 25 l 1
 63 27 l 1
EndSplineSet
EndChar

StartChar: custom_3_5_0_5_5
Encoding: 30523 30523 10555
Width: 70
Flags: H
LayerCount: 2
Fore
SplineSet
9 -1 m 1
 7 -1 l 1
 7 -2 l 1
 9 -2 l 1
 9 -1 l 1
23 43 m 1
 21 43 l 1
 21 41 l 1
 23 41 l 1
 23 43 l 1
26 43 m 1
 24 43 l 1
 24 41 l 1
 25 41 l 1
 25 42 l 1
 26 42 l 1
 26 43 l 1
28 43 m 1
 27 43 l 1
 27 42 l 1
 26 42 l 1
 26 41 l 1
 28 41 l 1
 28 43 l 1
31 43 m 1
 29 43 l 1
 29 41 l 1
 31 41 l 1
 31 43 l 1
31 39 m 1
 29 39 l 1
 29 37 l 1
 31 37 l 1
 31 39 l 1
41 43 m 1
 39 43 l 1
 39 41 l 1
 41 41 l 1
 41 43 l 1
36 37 m 1
 34 37 l 1
 34 35 l 1
 36 35 l 1
 36 37 l 1
31 35 m 1
 29 35 l 1
 29 33 l 1
 31 33 l 1
 31 35 l 1
31 31 m 1
 29 31 l 1
 29 29 l 1
 31 29 l 1
 31 31 l 1
36 33 m 1
 34 33 l 1
 34 31 l 1
 36 31 l 1
 36 33 l 1
41 35 m 1
 39 35 l 1
 39 33 l 1
 41 33 l 1
 41 35 l 1
31 27 m 1
 29 27 l 1
 29 25 l 1
 31 25 l 1
 31 27 l 1
41 27 m 1
 39 27 l 1
 39 25 l 1
 41 25 l 1
 41 27 l 1
44 43 m 1
 42 43 l 1
 42 41 l 1
 43 41 l 1
 43 42 l 1
 44 42 l 1
 44 43 l 1
46 43 m 1
 45 43 l 1
 45 42 l 1
 44 42 l 1
 44 41 l 1
 46 41 l 1
 46 43 l 1
49 43 m 1
 47 43 l 1
 47 41 l 1
 49 41 l 1
 49 43 l 1
49 39 m 1
 47 39 l 1
 47 37 l 1
 49 37 l 1
 49 39 l 1
55 43 m 1
 53 43 l 1
 53 41 l 1
 55 41 l 1
 55 43 l 1
55 39 m 1
 53 39 l 1
 53 37 l 1
 55 37 l 1
 55 39 l 1
58 43 m 1
 56 43 l 1
 56 41 l 1
 57 41 l 1
 57 42 l 1
 58 42 l 1
 58 43 l 1
60 43 m 1
 59 43 l 1
 59 42 l 1
 58 42 l 1
 58 41 l 1
 60 41 l 1
 60 43 l 1
63 43 m 1
 61 43 l 1
 61 41 l 1
 63 41 l 1
 63 43 l 1
43 35 m 1
 42 35 l 1
 42 33 l 1
 44 33 l 1
 44 34 l 1
 43 34 l 1
 43 35 l 1
46 35 m 1
 44 35 l 1
 44 34 l 1
 45 34 l 1
 45 33 l 1
 46 33 l 1
 46 35 l 1
49 35 m 1
 47 35 l 1
 47 33 l 1
 49 33 l 1
 49 35 l 1
49 31 m 1
 47 31 l 1
 47 29 l 1
 49 29 l 1
 49 31 l 1
55 35 m 1
 53 35 l 1
 53 33 l 1
 55 33 l 1
 55 35 l 1
44 27 m 1
 42 27 l 1
 42 25 l 1
 43 25 l 1
 43 26 l 1
 44 26 l 1
 44 27 l 1
46 27 m 1
 45 27 l 1
 45 26 l 1
 44 26 l 1
 44 25 l 1
 46 25 l 1
 46 27 l 1
49 27 m 1
 47 27 l 1
 47 25 l 1
 49 25 l 1
 49 27 l 1
55 27 m 1
 53 27 l 1
 53 25 l 1
 55 25 l 1
 55 27 l 1
57 35 m 1
 56 35 l 1
 56 33 l 1
 58 33 l 1
 58 34 l 1
 57 34 l 1
 57 35 l 1
60 35 m 1
 58 35 l 1
 58 34 l 1
 59 34 l 1
 59 33 l 1
 60 33 l 1
 60 35 l 1
63 35 m 1
 61 35 l 1
 61 33 l 1
 63 33 l 1
 63 35 l 1
63 31 m 1
 61 31 l 1
 61 29 l 1
 63 29 l 1
 63 31 l 1
58 27 m 1
 56 27 l 1
 56 25 l 1
 57 25 l 1
 57 26 l 1
 58 26 l 1
 58 27 l 1
60 27 m 1
 59 27 l 1
 59 26 l 1
 58 26 l 1
 58 25 l 1
 60 25 l 1
 60 27 l 1
63 27 m 1
 61 27 l 1
 61 25 l 1
 63 25 l 1
 63 27 l 1
EndSplineSet
EndChar

StartChar: custom_3_5_0_5_6
Encoding: 30524 30524 10556
Width: 70
Flags: H
LayerCount: 2
Fore
SplineSet
9 -1 m 1
 7 -1 l 1
 7 -2 l 1
 9 -2 l 1
 9 -1 l 1
23 43 m 1
 21 43 l 1
 21 41 l 1
 23 41 l 1
 23 43 l 1
26 43 m 1
 24 43 l 1
 24 41 l 1
 25 41 l 1
 25 42 l 1
 26 42 l 1
 26 43 l 1
28 43 m 1
 27 43 l 1
 27 42 l 1
 26 42 l 1
 26 41 l 1
 28 41 l 1
 28 43 l 1
31 43 m 1
 29 43 l 1
 29 41 l 1
 31 41 l 1
 31 43 l 1
31 39 m 1
 29 39 l 1
 29 37 l 1
 31 37 l 1
 31 39 l 1
41 43 m 1
 39 43 l 1
 39 41 l 1
 41 41 l 1
 41 43 l 1
36 37 m 1
 34 37 l 1
 34 35 l 1
 36 35 l 1
 36 37 l 1
31 35 m 1
 29 35 l 1
 29 33 l 1
 31 33 l 1
 31 35 l 1
31 31 m 1
 29 31 l 1
 29 29 l 1
 31 29 l 1
 31 31 l 1
36 33 m 1
 34 33 l 1
 34 31 l 1
 36 31 l 1
 36 33 l 1
41 35 m 1
 39 35 l 1
 39 33 l 1
 41 33 l 1
 41 35 l 1
31 27 m 1
 29 27 l 1
 29 25 l 1
 31 25 l 1
 31 27 l 1
41 27 m 1
 39 27 l 1
 39 25 l 1
 41 25 l 1
 41 27 l 1
44 43 m 1
 42 43 l 1
 42 41 l 1
 43 41 l 1
 43 42 l 1
 44 42 l 1
 44 43 l 1
46 43 m 1
 45 43 l 1
 45 42 l 1
 44 42 l 1
 44 41 l 1
 46 41 l 1
 46 43 l 1
49 43 m 1
 47 43 l 1
 47 41 l 1
 49 41 l 1
 49 43 l 1
49 39 m 1
 47 39 l 1
 47 37 l 1
 49 37 l 1
 49 39 l 1
55 43 m 1
 53 43 l 1
 53 41 l 1
 55 41 l 1
 55 43 l 1
55 39 m 1
 53 39 l 1
 53 37 l 1
 55 37 l 1
 55 39 l 1
58 43 m 1
 56 43 l 1
 56 41 l 1
 57 41 l 1
 57 42 l 1
 58 42 l 1
 58 43 l 1
60 43 m 1
 59 43 l 1
 59 42 l 1
 58 42 l 1
 58 41 l 1
 60 41 l 1
 60 43 l 1
63 43 m 1
 61 43 l 1
 61 41 l 1
 63 41 l 1
 63 43 l 1
43 35 m 1
 42 35 l 1
 42 33 l 1
 44 33 l 1
 44 34 l 1
 43 34 l 1
 43 35 l 1
46 35 m 1
 44 35 l 1
 44 34 l 1
 45 34 l 1
 45 33 l 1
 46 33 l 1
 46 35 l 1
49 35 m 1
 47 35 l 1
 47 33 l 1
 49 33 l 1
 49 35 l 1
49 31 m 1
 47 31 l 1
 47 29 l 1
 49 29 l 1
 49 31 l 1
55 35 m 1
 53 35 l 1
 53 33 l 1
 55 33 l 1
 55 35 l 1
44 27 m 1
 42 27 l 1
 42 25 l 1
 43 25 l 1
 43 26 l 1
 44 26 l 1
 44 27 l 1
46 27 m 1
 45 27 l 1
 45 26 l 1
 44 26 l 1
 44 25 l 1
 46 25 l 1
 46 27 l 1
49 27 m 1
 47 27 l 1
 47 25 l 1
 49 25 l 1
 49 27 l 1
55 27 m 1
 53 27 l 1
 53 25 l 1
 55 25 l 1
 55 27 l 1
57 35 m 1
 56 35 l 1
 56 33 l 1
 58 33 l 1
 58 34 l 1
 57 34 l 1
 57 35 l 1
60 35 m 1
 58 35 l 1
 58 34 l 1
 59 34 l 1
 59 33 l 1
 60 33 l 1
 60 35 l 1
63 35 m 1
 61 35 l 1
 61 33 l 1
 63 33 l 1
 63 35 l 1
63 31 m 1
 61 31 l 1
 61 29 l 1
 63 29 l 1
 63 31 l 1
58 27 m 1
 56 27 l 1
 56 25 l 1
 57 25 l 1
 57 26 l 1
 58 26 l 1
 58 27 l 1
60 27 m 1
 59 27 l 1
 59 26 l 1
 58 26 l 1
 58 25 l 1
 60 25 l 1
 60 27 l 1
63 27 m 1
 61 27 l 1
 61 25 l 1
 63 25 l 1
 63 27 l 1
EndSplineSet
EndChar

StartChar: custom_3_5_0_5_7
Encoding: 30525 30525 10557
Width: 70
Flags: H
LayerCount: 2
Fore
SplineSet
10 -1 m 1
 7 -1 l 1
 7 -2 l 1
 10 -2 l 1
 10 -1 l 1
23 43 m 1
 21 43 l 1
 21 41 l 1
 23 41 l 1
 23 43 l 1
26 43 m 1
 24 43 l 1
 24 41 l 1
 25 41 l 1
 25 42 l 1
 26 42 l 1
 26 43 l 1
28 43 m 1
 27 43 l 1
 27 42 l 1
 26 42 l 1
 26 41 l 1
 28 41 l 1
 28 43 l 1
31 43 m 1
 29 43 l 1
 29 41 l 1
 31 41 l 1
 31 43 l 1
31 39 m 1
 29 39 l 1
 29 37 l 1
 31 37 l 1
 31 39 l 1
41 43 m 1
 39 43 l 1
 39 41 l 1
 41 41 l 1
 41 43 l 1
36 37 m 1
 34 37 l 1
 34 35 l 1
 36 35 l 1
 36 37 l 1
31 35 m 1
 29 35 l 1
 29 33 l 1
 31 33 l 1
 31 35 l 1
31 31 m 1
 29 31 l 1
 29 29 l 1
 31 29 l 1
 31 31 l 1
36 33 m 1
 34 33 l 1
 34 31 l 1
 36 31 l 1
 36 33 l 1
41 35 m 1
 39 35 l 1
 39 33 l 1
 41 33 l 1
 41 35 l 1
31 27 m 1
 29 27 l 1
 29 25 l 1
 31 25 l 1
 31 27 l 1
41 27 m 1
 39 27 l 1
 39 25 l 1
 41 25 l 1
 41 27 l 1
44 43 m 1
 42 43 l 1
 42 41 l 1
 43 41 l 1
 43 42 l 1
 44 42 l 1
 44 43 l 1
46 43 m 1
 45 43 l 1
 45 42 l 1
 44 42 l 1
 44 41 l 1
 46 41 l 1
 46 43 l 1
49 43 m 1
 47 43 l 1
 47 41 l 1
 49 41 l 1
 49 43 l 1
49 39 m 1
 47 39 l 1
 47 37 l 1
 49 37 l 1
 49 39 l 1
55 43 m 1
 53 43 l 1
 53 41 l 1
 55 41 l 1
 55 43 l 1
55 39 m 1
 53 39 l 1
 53 37 l 1
 55 37 l 1
 55 39 l 1
58 43 m 1
 56 43 l 1
 56 41 l 1
 57 41 l 1
 57 42 l 1
 58 42 l 1
 58 43 l 1
60 43 m 1
 59 43 l 1
 59 42 l 1
 58 42 l 1
 58 41 l 1
 60 41 l 1
 60 43 l 1
63 43 m 1
 61 43 l 1
 61 41 l 1
 63 41 l 1
 63 43 l 1
43 35 m 1
 42 35 l 1
 42 33 l 1
 44 33 l 1
 44 34 l 1
 43 34 l 1
 43 35 l 1
46 35 m 1
 44 35 l 1
 44 34 l 1
 45 34 l 1
 45 33 l 1
 46 33 l 1
 46 35 l 1
49 35 m 1
 47 35 l 1
 47 33 l 1
 49 33 l 1
 49 35 l 1
49 31 m 1
 47 31 l 1
 47 29 l 1
 49 29 l 1
 49 31 l 1
55 35 m 1
 53 35 l 1
 53 33 l 1
 55 33 l 1
 55 35 l 1
44 27 m 1
 42 27 l 1
 42 25 l 1
 43 25 l 1
 43 26 l 1
 44 26 l 1
 44 27 l 1
46 27 m 1
 45 27 l 1
 45 26 l 1
 44 26 l 1
 44 25 l 1
 46 25 l 1
 46 27 l 1
49 27 m 1
 47 27 l 1
 47 25 l 1
 49 25 l 1
 49 27 l 1
55 27 m 1
 53 27 l 1
 53 25 l 1
 55 25 l 1
 55 27 l 1
57 35 m 1
 56 35 l 1
 56 33 l 1
 58 33 l 1
 58 34 l 1
 57 34 l 1
 57 35 l 1
60 35 m 1
 58 35 l 1
 58 34 l 1
 59 34 l 1
 59 33 l 1
 60 33 l 1
 60 35 l 1
63 35 m 1
 61 35 l 1
 61 33 l 1
 63 33 l 1
 63 35 l 1
63 31 m 1
 61 31 l 1
 61 29 l 1
 63 29 l 1
 63 31 l 1
58 27 m 1
 56 27 l 1
 56 25 l 1
 57 25 l 1
 57 26 l 1
 58 26 l 1
 58 27 l 1
60 27 m 1
 59 27 l 1
 59 26 l 1
 58 26 l 1
 58 25 l 1
 60 25 l 1
 60 27 l 1
63 27 m 1
 61 27 l 1
 61 25 l 1
 63 25 l 1
 63 27 l 1
EndSplineSet
EndChar

StartChar: custom_3_5_0_5_8
Encoding: 30526 30526 10558
Width: 70
Flags: H
LayerCount: 2
Fore
SplineSet
23 43 m 1
 21 43 l 1
 21 41 l 1
 23 41 l 1
 23 43 l 1
26 43 m 1
 24 43 l 1
 24 41 l 1
 25 41 l 1
 25 42 l 1
 26 42 l 1
 26 43 l 1
28 43 m 1
 27 43 l 1
 27 42 l 1
 26 42 l 1
 26 41 l 1
 28 41 l 1
 28 43 l 1
31 43 m 1
 29 43 l 1
 29 41 l 1
 31 41 l 1
 31 43 l 1
31 39 m 1
 29 39 l 1
 29 37 l 1
 31 37 l 1
 31 39 l 1
41 43 m 1
 39 43 l 1
 39 41 l 1
 41 41 l 1
 41 43 l 1
36 37 m 1
 34 37 l 1
 34 35 l 1
 36 35 l 1
 36 37 l 1
31 35 m 1
 29 35 l 1
 29 33 l 1
 31 33 l 1
 31 35 l 1
31 31 m 1
 29 31 l 1
 29 29 l 1
 31 29 l 1
 31 31 l 1
36 33 m 1
 34 33 l 1
 34 31 l 1
 36 31 l 1
 36 33 l 1
41 35 m 1
 39 35 l 1
 39 33 l 1
 41 33 l 1
 41 35 l 1
31 27 m 1
 29 27 l 1
 29 25 l 1
 31 25 l 1
 31 27 l 1
41 27 m 1
 39 27 l 1
 39 25 l 1
 41 25 l 1
 41 27 l 1
44 43 m 1
 42 43 l 1
 42 41 l 1
 43 41 l 1
 43 42 l 1
 44 42 l 1
 44 43 l 1
46 43 m 1
 45 43 l 1
 45 42 l 1
 44 42 l 1
 44 41 l 1
 46 41 l 1
 46 43 l 1
49 43 m 1
 47 43 l 1
 47 41 l 1
 49 41 l 1
 49 43 l 1
49 39 m 1
 47 39 l 1
 47 37 l 1
 49 37 l 1
 49 39 l 1
55 43 m 1
 53 43 l 1
 53 41 l 1
 55 41 l 1
 55 43 l 1
55 39 m 1
 53 39 l 1
 53 37 l 1
 55 37 l 1
 55 39 l 1
58 43 m 1
 56 43 l 1
 56 41 l 1
 57 41 l 1
 57 42 l 1
 58 42 l 1
 58 43 l 1
60 43 m 1
 59 43 l 1
 59 42 l 1
 58 42 l 1
 58 41 l 1
 60 41 l 1
 60 43 l 1
63 43 m 1
 61 43 l 1
 61 41 l 1
 63 41 l 1
 63 43 l 1
43 35 m 1
 42 35 l 1
 42 33 l 1
 44 33 l 1
 44 34 l 1
 43 34 l 1
 43 35 l 1
46 35 m 1
 44 35 l 1
 44 34 l 1
 45 34 l 1
 45 33 l 1
 46 33 l 1
 46 35 l 1
49 35 m 1
 47 35 l 1
 47 33 l 1
 49 33 l 1
 49 35 l 1
49 31 m 1
 47 31 l 1
 47 29 l 1
 49 29 l 1
 49 31 l 1
55 35 m 1
 53 35 l 1
 53 33 l 1
 55 33 l 1
 55 35 l 1
44 27 m 1
 42 27 l 1
 42 25 l 1
 43 25 l 1
 43 26 l 1
 44 26 l 1
 44 27 l 1
46 27 m 1
 45 27 l 1
 45 26 l 1
 44 26 l 1
 44 25 l 1
 46 25 l 1
 46 27 l 1
49 27 m 1
 47 27 l 1
 47 25 l 1
 49 25 l 1
 49 27 l 1
55 27 m 1
 53 27 l 1
 53 25 l 1
 55 25 l 1
 55 27 l 1
57 35 m 1
 56 35 l 1
 56 33 l 1
 58 33 l 1
 58 34 l 1
 57 34 l 1
 57 35 l 1
60 35 m 1
 58 35 l 1
 58 34 l 1
 59 34 l 1
 59 33 l 1
 60 33 l 1
 60 35 l 1
63 35 m 1
 61 35 l 1
 61 33 l 1
 63 33 l 1
 63 35 l 1
63 31 m 1
 61 31 l 1
 61 29 l 1
 63 29 l 1
 63 31 l 1
58 27 m 1
 56 27 l 1
 56 25 l 1
 57 25 l 1
 57 26 l 1
 58 26 l 1
 58 27 l 1
60 27 m 1
 59 27 l 1
 59 26 l 1
 58 26 l 1
 58 25 l 1
 60 25 l 1
 60 27 l 1
63 27 m 1
 61 27 l 1
 61 25 l 1
 63 25 l 1
 63 27 l 1
9 0 m 1
 8 0 l 1
 8 -2 l 1
 10 -2 l 1
 10 -1 l 1
 9 -1 l 1
 9 0 l 1
EndSplineSet
EndChar

StartChar: custom_3_5_0_5_9
Encoding: 30527 30527 10559
Width: 70
Flags: H
LayerCount: 2
Fore
SplineSet
8 -1 m 1
 7 -1 l 1
 7 -2 l 1
 8 -2 l 1
 8 -1 l 1
23 43 m 1
 21 43 l 1
 21 41 l 1
 23 41 l 1
 23 43 l 1
26 43 m 1
 24 43 l 1
 24 41 l 1
 25 41 l 1
 25 42 l 1
 26 42 l 1
 26 43 l 1
28 43 m 1
 27 43 l 1
 27 42 l 1
 26 42 l 1
 26 41 l 1
 28 41 l 1
 28 43 l 1
31 43 m 1
 29 43 l 1
 29 41 l 1
 31 41 l 1
 31 43 l 1
31 39 m 1
 29 39 l 1
 29 37 l 1
 31 37 l 1
 31 39 l 1
41 43 m 1
 39 43 l 1
 39 41 l 1
 41 41 l 1
 41 43 l 1
36 37 m 1
 34 37 l 1
 34 35 l 1
 36 35 l 1
 36 37 l 1
31 35 m 1
 29 35 l 1
 29 33 l 1
 31 33 l 1
 31 35 l 1
31 31 m 1
 29 31 l 1
 29 29 l 1
 31 29 l 1
 31 31 l 1
36 33 m 1
 34 33 l 1
 34 31 l 1
 36 31 l 1
 36 33 l 1
41 35 m 1
 39 35 l 1
 39 33 l 1
 41 33 l 1
 41 35 l 1
31 27 m 1
 29 27 l 1
 29 25 l 1
 31 25 l 1
 31 27 l 1
41 27 m 1
 39 27 l 1
 39 25 l 1
 41 25 l 1
 41 27 l 1
44 43 m 1
 42 43 l 1
 42 41 l 1
 43 41 l 1
 43 42 l 1
 44 42 l 1
 44 43 l 1
46 43 m 1
 45 43 l 1
 45 42 l 1
 44 42 l 1
 44 41 l 1
 46 41 l 1
 46 43 l 1
49 43 m 1
 47 43 l 1
 47 41 l 1
 49 41 l 1
 49 43 l 1
49 39 m 1
 47 39 l 1
 47 37 l 1
 49 37 l 1
 49 39 l 1
55 43 m 1
 53 43 l 1
 53 41 l 1
 55 41 l 1
 55 43 l 1
55 39 m 1
 53 39 l 1
 53 37 l 1
 55 37 l 1
 55 39 l 1
58 43 m 1
 56 43 l 1
 56 41 l 1
 57 41 l 1
 57 42 l 1
 58 42 l 1
 58 43 l 1
60 43 m 1
 59 43 l 1
 59 42 l 1
 58 42 l 1
 58 41 l 1
 60 41 l 1
 60 43 l 1
63 43 m 1
 61 43 l 1
 61 41 l 1
 63 41 l 1
 63 43 l 1
43 35 m 1
 42 35 l 1
 42 33 l 1
 44 33 l 1
 44 34 l 1
 43 34 l 1
 43 35 l 1
46 35 m 1
 44 35 l 1
 44 34 l 1
 45 34 l 1
 45 33 l 1
 46 33 l 1
 46 35 l 1
49 35 m 1
 47 35 l 1
 47 33 l 1
 49 33 l 1
 49 35 l 1
49 31 m 1
 47 31 l 1
 47 29 l 1
 49 29 l 1
 49 31 l 1
55 35 m 1
 53 35 l 1
 53 33 l 1
 55 33 l 1
 55 35 l 1
44 27 m 1
 42 27 l 1
 42 25 l 1
 43 25 l 1
 43 26 l 1
 44 26 l 1
 44 27 l 1
46 27 m 1
 45 27 l 1
 45 26 l 1
 44 26 l 1
 44 25 l 1
 46 25 l 1
 46 27 l 1
49 27 m 1
 47 27 l 1
 47 25 l 1
 49 25 l 1
 49 27 l 1
55 27 m 1
 53 27 l 1
 53 25 l 1
 55 25 l 1
 55 27 l 1
57 35 m 1
 56 35 l 1
 56 33 l 1
 58 33 l 1
 58 34 l 1
 57 34 l 1
 57 35 l 1
60 35 m 1
 58 35 l 1
 58 34 l 1
 59 34 l 1
 59 33 l 1
 60 33 l 1
 60 35 l 1
63 35 m 1
 61 35 l 1
 61 33 l 1
 63 33 l 1
 63 35 l 1
63 31 m 1
 61 31 l 1
 61 29 l 1
 63 29 l 1
 63 31 l 1
58 27 m 1
 56 27 l 1
 56 25 l 1
 57 25 l 1
 57 26 l 1
 58 26 l 1
 58 27 l 1
60 27 m 1
 59 27 l 1
 59 26 l 1
 58 26 l 1
 58 25 l 1
 60 25 l 1
 60 27 l 1
63 27 m 1
 61 27 l 1
 61 25 l 1
 63 25 l 1
 63 27 l 1
10 0 m 1
 8 0 l 1
 8 -1 l 1
 9 -1 l 1
 9 -2 l 1
 10 -2 l 1
 10 0 l 1
EndSplineSet
EndChar

StartChar: custom_3_5_0_6_0
Encoding: 30528 30528 10560
Width: 70
Flags: H
LayerCount: 2
Fore
SplineSet
23 43 m 1
 21 43 l 1
 21 41 l 1
 23 41 l 1
 23 43 l 1
26 43 m 1
 24 43 l 1
 24 41 l 1
 25 41 l 1
 25 42 l 1
 26 42 l 1
 26 43 l 1
28 43 m 1
 27 43 l 1
 27 42 l 1
 26 42 l 1
 26 41 l 1
 28 41 l 1
 28 43 l 1
31 43 m 1
 29 43 l 1
 29 41 l 1
 31 41 l 1
 31 43 l 1
31 39 m 1
 29 39 l 1
 29 37 l 1
 31 37 l 1
 31 39 l 1
41 43 m 1
 39 43 l 1
 39 41 l 1
 41 41 l 1
 41 43 l 1
36 37 m 1
 34 37 l 1
 34 35 l 1
 36 35 l 1
 36 37 l 1
31 35 m 1
 29 35 l 1
 29 33 l 1
 31 33 l 1
 31 35 l 1
31 31 m 1
 29 31 l 1
 29 29 l 1
 31 29 l 1
 31 31 l 1
36 33 m 1
 34 33 l 1
 34 31 l 1
 36 31 l 1
 36 33 l 1
41 35 m 1
 39 35 l 1
 39 33 l 1
 41 33 l 1
 41 35 l 1
31 27 m 1
 29 27 l 1
 29 25 l 1
 31 25 l 1
 31 27 l 1
41 27 m 1
 39 27 l 1
 39 25 l 1
 41 25 l 1
 41 27 l 1
44 43 m 1
 42 43 l 1
 42 41 l 1
 43 41 l 1
 43 42 l 1
 44 42 l 1
 44 43 l 1
46 43 m 1
 45 43 l 1
 45 42 l 1
 44 42 l 1
 44 41 l 1
 46 41 l 1
 46 43 l 1
49 43 m 1
 47 43 l 1
 47 41 l 1
 49 41 l 1
 49 43 l 1
49 39 m 1
 47 39 l 1
 47 37 l 1
 49 37 l 1
 49 39 l 1
55 43 m 1
 53 43 l 1
 53 41 l 1
 55 41 l 1
 55 43 l 1
55 39 m 1
 53 39 l 1
 53 37 l 1
 55 37 l 1
 55 39 l 1
58 43 m 1
 56 43 l 1
 56 41 l 1
 57 41 l 1
 57 42 l 1
 58 42 l 1
 58 43 l 1
60 43 m 1
 59 43 l 1
 59 42 l 1
 58 42 l 1
 58 41 l 1
 60 41 l 1
 60 43 l 1
63 43 m 1
 61 43 l 1
 61 41 l 1
 63 41 l 1
 63 43 l 1
43 35 m 1
 42 35 l 1
 42 33 l 1
 44 33 l 1
 44 34 l 1
 43 34 l 1
 43 35 l 1
46 35 m 1
 44 35 l 1
 44 34 l 1
 45 34 l 1
 45 33 l 1
 46 33 l 1
 46 35 l 1
49 35 m 1
 47 35 l 1
 47 33 l 1
 49 33 l 1
 49 35 l 1
49 31 m 1
 47 31 l 1
 47 29 l 1
 49 29 l 1
 49 31 l 1
55 35 m 1
 53 35 l 1
 53 33 l 1
 55 33 l 1
 55 35 l 1
44 27 m 1
 42 27 l 1
 42 25 l 1
 43 25 l 1
 43 26 l 1
 44 26 l 1
 44 27 l 1
46 27 m 1
 45 27 l 1
 45 26 l 1
 44 26 l 1
 44 25 l 1
 46 25 l 1
 46 27 l 1
49 27 m 1
 47 27 l 1
 47 25 l 1
 49 25 l 1
 49 27 l 1
55 27 m 1
 53 27 l 1
 53 25 l 1
 55 25 l 1
 55 27 l 1
57 35 m 1
 56 35 l 1
 56 33 l 1
 58 33 l 1
 58 34 l 1
 57 34 l 1
 57 35 l 1
60 35 m 1
 58 35 l 1
 58 34 l 1
 59 34 l 1
 59 33 l 1
 60 33 l 1
 60 35 l 1
63 35 m 1
 61 35 l 1
 61 33 l 1
 63 33 l 1
 63 35 l 1
63 31 m 1
 61 31 l 1
 61 29 l 1
 63 29 l 1
 63 31 l 1
58 27 m 1
 56 27 l 1
 56 25 l 1
 57 25 l 1
 57 26 l 1
 58 26 l 1
 58 27 l 1
60 27 m 1
 59 27 l 1
 59 26 l 1
 58 26 l 1
 58 25 l 1
 60 25 l 1
 60 27 l 1
63 27 m 1
 61 27 l 1
 61 25 l 1
 63 25 l 1
 63 27 l 1
10 0 m 1
 8 0 l 1
 8 -1 l 1
 9 -1 l 1
 9 -2 l 1
 11 -2 l 1
 11 -1 l 1
 10 -1 l 1
 10 0 l 1
EndSplineSet
EndChar

StartChar: custom_3_5_0_6_1
Encoding: 30529 30529 10561
Width: 70
Flags: H
LayerCount: 2
Fore
SplineSet
23 43 m 1
 21 43 l 1
 21 41 l 1
 23 41 l 1
 23 43 l 1
26 43 m 1
 24 43 l 1
 24 41 l 1
 25 41 l 1
 25 42 l 1
 26 42 l 1
 26 43 l 1
28 43 m 1
 27 43 l 1
 27 42 l 1
 26 42 l 1
 26 41 l 1
 28 41 l 1
 28 43 l 1
31 43 m 1
 29 43 l 1
 29 41 l 1
 31 41 l 1
 31 43 l 1
31 39 m 1
 29 39 l 1
 29 37 l 1
 31 37 l 1
 31 39 l 1
41 43 m 1
 39 43 l 1
 39 41 l 1
 41 41 l 1
 41 43 l 1
36 37 m 1
 34 37 l 1
 34 35 l 1
 36 35 l 1
 36 37 l 1
31 35 m 1
 29 35 l 1
 29 33 l 1
 31 33 l 1
 31 35 l 1
31 31 m 1
 29 31 l 1
 29 29 l 1
 31 29 l 1
 31 31 l 1
36 33 m 1
 34 33 l 1
 34 31 l 1
 36 31 l 1
 36 33 l 1
41 35 m 1
 39 35 l 1
 39 33 l 1
 41 33 l 1
 41 35 l 1
31 27 m 1
 29 27 l 1
 29 25 l 1
 31 25 l 1
 31 27 l 1
41 27 m 1
 39 27 l 1
 39 25 l 1
 41 25 l 1
 41 27 l 1
44 43 m 1
 42 43 l 1
 42 41 l 1
 43 41 l 1
 43 42 l 1
 44 42 l 1
 44 43 l 1
46 43 m 1
 45 43 l 1
 45 42 l 1
 44 42 l 1
 44 41 l 1
 46 41 l 1
 46 43 l 1
49 43 m 1
 47 43 l 1
 47 41 l 1
 49 41 l 1
 49 43 l 1
49 39 m 1
 47 39 l 1
 47 37 l 1
 49 37 l 1
 49 39 l 1
55 43 m 1
 53 43 l 1
 53 41 l 1
 55 41 l 1
 55 43 l 1
55 39 m 1
 53 39 l 1
 53 37 l 1
 55 37 l 1
 55 39 l 1
58 43 m 1
 56 43 l 1
 56 41 l 1
 57 41 l 1
 57 42 l 1
 58 42 l 1
 58 43 l 1
60 43 m 1
 59 43 l 1
 59 42 l 1
 58 42 l 1
 58 41 l 1
 60 41 l 1
 60 43 l 1
63 43 m 1
 61 43 l 1
 61 41 l 1
 63 41 l 1
 63 43 l 1
43 35 m 1
 42 35 l 1
 42 33 l 1
 44 33 l 1
 44 34 l 1
 43 34 l 1
 43 35 l 1
46 35 m 1
 44 35 l 1
 44 34 l 1
 45 34 l 1
 45 33 l 1
 46 33 l 1
 46 35 l 1
49 35 m 1
 47 35 l 1
 47 33 l 1
 49 33 l 1
 49 35 l 1
49 31 m 1
 47 31 l 1
 47 29 l 1
 49 29 l 1
 49 31 l 1
55 35 m 1
 53 35 l 1
 53 33 l 1
 55 33 l 1
 55 35 l 1
44 27 m 1
 42 27 l 1
 42 25 l 1
 43 25 l 1
 43 26 l 1
 44 26 l 1
 44 27 l 1
46 27 m 1
 45 27 l 1
 45 26 l 1
 44 26 l 1
 44 25 l 1
 46 25 l 1
 46 27 l 1
49 27 m 1
 47 27 l 1
 47 25 l 1
 49 25 l 1
 49 27 l 1
55 27 m 1
 53 27 l 1
 53 25 l 1
 55 25 l 1
 55 27 l 1
57 35 m 1
 56 35 l 1
 56 33 l 1
 58 33 l 1
 58 34 l 1
 57 34 l 1
 57 35 l 1
60 35 m 1
 58 35 l 1
 58 34 l 1
 59 34 l 1
 59 33 l 1
 60 33 l 1
 60 35 l 1
63 35 m 1
 61 35 l 1
 61 33 l 1
 63 33 l 1
 63 35 l 1
63 31 m 1
 61 31 l 1
 61 29 l 1
 63 29 l 1
 63 31 l 1
58 27 m 1
 56 27 l 1
 56 25 l 1
 57 25 l 1
 57 26 l 1
 58 26 l 1
 58 27 l 1
60 27 m 1
 59 27 l 1
 59 26 l 1
 58 26 l 1
 58 25 l 1
 60 25 l 1
 60 27 l 1
63 27 m 1
 61 27 l 1
 61 25 l 1
 63 25 l 1
 63 27 l 1
11 0 m 1
 8 0 l 1
 8 -1 l 1
 10 -1 l 1
 10 -2 l 1
 11 -2 l 1
 11 0 l 1
EndSplineSet
EndChar

StartChar: custom_3_5_0_6_2
Encoding: 30530 30530 10562
Width: 70
Flags: H
LayerCount: 2
Fore
SplineSet
23 43 m 1
 21 43 l 1
 21 41 l 1
 23 41 l 1
 23 43 l 1
26 43 m 1
 24 43 l 1
 24 41 l 1
 25 41 l 1
 25 42 l 1
 26 42 l 1
 26 43 l 1
28 43 m 1
 27 43 l 1
 27 42 l 1
 26 42 l 1
 26 41 l 1
 28 41 l 1
 28 43 l 1
31 43 m 1
 29 43 l 1
 29 41 l 1
 31 41 l 1
 31 43 l 1
31 39 m 1
 29 39 l 1
 29 37 l 1
 31 37 l 1
 31 39 l 1
41 43 m 1
 39 43 l 1
 39 41 l 1
 41 41 l 1
 41 43 l 1
36 37 m 1
 34 37 l 1
 34 35 l 1
 36 35 l 1
 36 37 l 1
31 35 m 1
 29 35 l 1
 29 33 l 1
 31 33 l 1
 31 35 l 1
31 31 m 1
 29 31 l 1
 29 29 l 1
 31 29 l 1
 31 31 l 1
36 33 m 1
 34 33 l 1
 34 31 l 1
 36 31 l 1
 36 33 l 1
41 35 m 1
 39 35 l 1
 39 33 l 1
 41 33 l 1
 41 35 l 1
31 27 m 1
 29 27 l 1
 29 25 l 1
 31 25 l 1
 31 27 l 1
41 27 m 1
 39 27 l 1
 39 25 l 1
 41 25 l 1
 41 27 l 1
44 43 m 1
 42 43 l 1
 42 41 l 1
 43 41 l 1
 43 42 l 1
 44 42 l 1
 44 43 l 1
46 43 m 1
 45 43 l 1
 45 42 l 1
 44 42 l 1
 44 41 l 1
 46 41 l 1
 46 43 l 1
49 43 m 1
 47 43 l 1
 47 41 l 1
 49 41 l 1
 49 43 l 1
49 39 m 1
 47 39 l 1
 47 37 l 1
 49 37 l 1
 49 39 l 1
55 43 m 1
 53 43 l 1
 53 41 l 1
 55 41 l 1
 55 43 l 1
55 39 m 1
 53 39 l 1
 53 37 l 1
 55 37 l 1
 55 39 l 1
58 43 m 1
 56 43 l 1
 56 41 l 1
 57 41 l 1
 57 42 l 1
 58 42 l 1
 58 43 l 1
60 43 m 1
 59 43 l 1
 59 42 l 1
 58 42 l 1
 58 41 l 1
 60 41 l 1
 60 43 l 1
63 43 m 1
 61 43 l 1
 61 41 l 1
 63 41 l 1
 63 43 l 1
43 35 m 1
 42 35 l 1
 42 33 l 1
 44 33 l 1
 44 34 l 1
 43 34 l 1
 43 35 l 1
46 35 m 1
 44 35 l 1
 44 34 l 1
 45 34 l 1
 45 33 l 1
 46 33 l 1
 46 35 l 1
49 35 m 1
 47 35 l 1
 47 33 l 1
 49 33 l 1
 49 35 l 1
49 31 m 1
 47 31 l 1
 47 29 l 1
 49 29 l 1
 49 31 l 1
55 35 m 1
 53 35 l 1
 53 33 l 1
 55 33 l 1
 55 35 l 1
44 27 m 1
 42 27 l 1
 42 25 l 1
 43 25 l 1
 43 26 l 1
 44 26 l 1
 44 27 l 1
46 27 m 1
 45 27 l 1
 45 26 l 1
 44 26 l 1
 44 25 l 1
 46 25 l 1
 46 27 l 1
49 27 m 1
 47 27 l 1
 47 25 l 1
 49 25 l 1
 49 27 l 1
55 27 m 1
 53 27 l 1
 53 25 l 1
 55 25 l 1
 55 27 l 1
57 35 m 1
 56 35 l 1
 56 33 l 1
 58 33 l 1
 58 34 l 1
 57 34 l 1
 57 35 l 1
60 35 m 1
 58 35 l 1
 58 34 l 1
 59 34 l 1
 59 33 l 1
 60 33 l 1
 60 35 l 1
63 35 m 1
 61 35 l 1
 61 33 l 1
 63 33 l 1
 63 35 l 1
63 31 m 1
 61 31 l 1
 61 29 l 1
 63 29 l 1
 63 31 l 1
58 27 m 1
 56 27 l 1
 56 25 l 1
 57 25 l 1
 57 26 l 1
 58 26 l 1
 58 27 l 1
60 27 m 1
 59 27 l 1
 59 26 l 1
 58 26 l 1
 58 25 l 1
 60 25 l 1
 60 27 l 1
63 27 m 1
 61 27 l 1
 61 25 l 1
 63 25 l 1
 63 27 l 1
10 1 m 1
 9 1 l 1
 9 -1 l 1
 10 -1 l 1
 10 -2 l 1
 11 -2 l 1
 11 0 l 1
 10 0 l 1
 10 1 l 1
9 -1 m 1
 8 -1 l 1
 8 -2 l 1
 9 -2 l 1
 9 -1 l 1
EndSplineSet
EndChar

StartChar: custom_3_5_0_6_3
Encoding: 30531 30531 10563
Width: 70
Flags: H
LayerCount: 2
Fore
SplineSet
23 43 m 1
 21 43 l 1
 21 41 l 1
 23 41 l 1
 23 43 l 1
26 43 m 1
 24 43 l 1
 24 41 l 1
 25 41 l 1
 25 42 l 1
 26 42 l 1
 26 43 l 1
28 43 m 1
 27 43 l 1
 27 42 l 1
 26 42 l 1
 26 41 l 1
 28 41 l 1
 28 43 l 1
31 43 m 1
 29 43 l 1
 29 41 l 1
 31 41 l 1
 31 43 l 1
31 39 m 1
 29 39 l 1
 29 37 l 1
 31 37 l 1
 31 39 l 1
41 43 m 1
 39 43 l 1
 39 41 l 1
 41 41 l 1
 41 43 l 1
36 37 m 1
 34 37 l 1
 34 35 l 1
 36 35 l 1
 36 37 l 1
31 35 m 1
 29 35 l 1
 29 33 l 1
 31 33 l 1
 31 35 l 1
31 31 m 1
 29 31 l 1
 29 29 l 1
 31 29 l 1
 31 31 l 1
36 33 m 1
 34 33 l 1
 34 31 l 1
 36 31 l 1
 36 33 l 1
41 35 m 1
 39 35 l 1
 39 33 l 1
 41 33 l 1
 41 35 l 1
31 27 m 1
 29 27 l 1
 29 25 l 1
 31 25 l 1
 31 27 l 1
41 27 m 1
 39 27 l 1
 39 25 l 1
 41 25 l 1
 41 27 l 1
44 43 m 1
 42 43 l 1
 42 41 l 1
 43 41 l 1
 43 42 l 1
 44 42 l 1
 44 43 l 1
46 43 m 1
 45 43 l 1
 45 42 l 1
 44 42 l 1
 44 41 l 1
 46 41 l 1
 46 43 l 1
49 43 m 1
 47 43 l 1
 47 41 l 1
 49 41 l 1
 49 43 l 1
49 39 m 1
 47 39 l 1
 47 37 l 1
 49 37 l 1
 49 39 l 1
55 43 m 1
 53 43 l 1
 53 41 l 1
 55 41 l 1
 55 43 l 1
55 39 m 1
 53 39 l 1
 53 37 l 1
 55 37 l 1
 55 39 l 1
58 43 m 1
 56 43 l 1
 56 41 l 1
 57 41 l 1
 57 42 l 1
 58 42 l 1
 58 43 l 1
60 43 m 1
 59 43 l 1
 59 42 l 1
 58 42 l 1
 58 41 l 1
 60 41 l 1
 60 43 l 1
63 43 m 1
 61 43 l 1
 61 41 l 1
 63 41 l 1
 63 43 l 1
43 35 m 1
 42 35 l 1
 42 33 l 1
 44 33 l 1
 44 34 l 1
 43 34 l 1
 43 35 l 1
46 35 m 1
 44 35 l 1
 44 34 l 1
 45 34 l 1
 45 33 l 1
 46 33 l 1
 46 35 l 1
49 35 m 1
 47 35 l 1
 47 33 l 1
 49 33 l 1
 49 35 l 1
49 31 m 1
 47 31 l 1
 47 29 l 1
 49 29 l 1
 49 31 l 1
55 35 m 1
 53 35 l 1
 53 33 l 1
 55 33 l 1
 55 35 l 1
44 27 m 1
 42 27 l 1
 42 25 l 1
 43 25 l 1
 43 26 l 1
 44 26 l 1
 44 27 l 1
46 27 m 1
 45 27 l 1
 45 26 l 1
 44 26 l 1
 44 25 l 1
 46 25 l 1
 46 27 l 1
49 27 m 1
 47 27 l 1
 47 25 l 1
 49 25 l 1
 49 27 l 1
55 27 m 1
 53 27 l 1
 53 25 l 1
 55 25 l 1
 55 27 l 1
57 35 m 1
 56 35 l 1
 56 33 l 1
 58 33 l 1
 58 34 l 1
 57 34 l 1
 57 35 l 1
60 35 m 1
 58 35 l 1
 58 34 l 1
 59 34 l 1
 59 33 l 1
 60 33 l 1
 60 35 l 1
63 35 m 1
 61 35 l 1
 61 33 l 1
 63 33 l 1
 63 35 l 1
63 31 m 1
 61 31 l 1
 61 29 l 1
 63 29 l 1
 63 31 l 1
58 27 m 1
 56 27 l 1
 56 25 l 1
 57 25 l 1
 57 26 l 1
 58 26 l 1
 58 27 l 1
60 27 m 1
 59 27 l 1
 59 26 l 1
 58 26 l 1
 58 25 l 1
 60 25 l 1
 60 27 l 1
63 27 m 1
 61 27 l 1
 61 25 l 1
 63 25 l 1
 63 27 l 1
11 1 m 1
 9 1 l 1
 9 0 l 1
 10 0 l 1
 10 -2 l 1
 11 -2 l 1
 11 1 l 1
9 0 m 1
 8 0 l 1
 8 -1 l 1
 9 -1 l 1
 9 0 l 1
EndSplineSet
EndChar

StartChar: custom_3_5_0_6_4
Encoding: 30532 30532 10564
Width: 70
Flags: H
LayerCount: 2
Fore
SplineSet
23 43 m 1
 21 43 l 1
 21 41 l 1
 23 41 l 1
 23 43 l 1
26 43 m 1
 24 43 l 1
 24 41 l 1
 25 41 l 1
 25 42 l 1
 26 42 l 1
 26 43 l 1
28 43 m 1
 27 43 l 1
 27 42 l 1
 26 42 l 1
 26 41 l 1
 28 41 l 1
 28 43 l 1
31 43 m 1
 29 43 l 1
 29 41 l 1
 31 41 l 1
 31 43 l 1
31 39 m 1
 29 39 l 1
 29 37 l 1
 31 37 l 1
 31 39 l 1
41 43 m 1
 39 43 l 1
 39 41 l 1
 41 41 l 1
 41 43 l 1
36 37 m 1
 34 37 l 1
 34 35 l 1
 36 35 l 1
 36 37 l 1
31 35 m 1
 29 35 l 1
 29 33 l 1
 31 33 l 1
 31 35 l 1
31 31 m 1
 29 31 l 1
 29 29 l 1
 31 29 l 1
 31 31 l 1
36 33 m 1
 34 33 l 1
 34 31 l 1
 36 31 l 1
 36 33 l 1
41 35 m 1
 39 35 l 1
 39 33 l 1
 41 33 l 1
 41 35 l 1
31 27 m 1
 29 27 l 1
 29 25 l 1
 31 25 l 1
 31 27 l 1
41 27 m 1
 39 27 l 1
 39 25 l 1
 41 25 l 1
 41 27 l 1
44 43 m 1
 42 43 l 1
 42 41 l 1
 43 41 l 1
 43 42 l 1
 44 42 l 1
 44 43 l 1
46 43 m 1
 45 43 l 1
 45 42 l 1
 44 42 l 1
 44 41 l 1
 46 41 l 1
 46 43 l 1
49 43 m 1
 47 43 l 1
 47 41 l 1
 49 41 l 1
 49 43 l 1
49 39 m 1
 47 39 l 1
 47 37 l 1
 49 37 l 1
 49 39 l 1
55 43 m 1
 53 43 l 1
 53 41 l 1
 55 41 l 1
 55 43 l 1
55 39 m 1
 53 39 l 1
 53 37 l 1
 55 37 l 1
 55 39 l 1
58 43 m 1
 56 43 l 1
 56 41 l 1
 57 41 l 1
 57 42 l 1
 58 42 l 1
 58 43 l 1
60 43 m 1
 59 43 l 1
 59 42 l 1
 58 42 l 1
 58 41 l 1
 60 41 l 1
 60 43 l 1
63 43 m 1
 61 43 l 1
 61 41 l 1
 63 41 l 1
 63 43 l 1
43 35 m 1
 42 35 l 1
 42 33 l 1
 44 33 l 1
 44 34 l 1
 43 34 l 1
 43 35 l 1
46 35 m 1
 44 35 l 1
 44 34 l 1
 45 34 l 1
 45 33 l 1
 46 33 l 1
 46 35 l 1
49 35 m 1
 47 35 l 1
 47 33 l 1
 49 33 l 1
 49 35 l 1
49 31 m 1
 47 31 l 1
 47 29 l 1
 49 29 l 1
 49 31 l 1
55 35 m 1
 53 35 l 1
 53 33 l 1
 55 33 l 1
 55 35 l 1
44 27 m 1
 42 27 l 1
 42 25 l 1
 43 25 l 1
 43 26 l 1
 44 26 l 1
 44 27 l 1
46 27 m 1
 45 27 l 1
 45 26 l 1
 44 26 l 1
 44 25 l 1
 46 25 l 1
 46 27 l 1
49 27 m 1
 47 27 l 1
 47 25 l 1
 49 25 l 1
 49 27 l 1
55 27 m 1
 53 27 l 1
 53 25 l 1
 55 25 l 1
 55 27 l 1
57 35 m 1
 56 35 l 1
 56 33 l 1
 58 33 l 1
 58 34 l 1
 57 34 l 1
 57 35 l 1
60 35 m 1
 58 35 l 1
 58 34 l 1
 59 34 l 1
 59 33 l 1
 60 33 l 1
 60 35 l 1
63 35 m 1
 61 35 l 1
 61 33 l 1
 63 33 l 1
 63 35 l 1
63 31 m 1
 61 31 l 1
 61 29 l 1
 63 29 l 1
 63 31 l 1
58 27 m 1
 56 27 l 1
 56 25 l 1
 57 25 l 1
 57 26 l 1
 58 26 l 1
 58 27 l 1
60 27 m 1
 59 27 l 1
 59 26 l 1
 58 26 l 1
 58 25 l 1
 60 25 l 1
 60 27 l 1
63 27 m 1
 61 27 l 1
 61 25 l 1
 63 25 l 1
 63 27 l 1
11 1 m 1
 9 1 l 1
 9 0 l 1
 10 0 l 1
 10 -1 l 1
 12 -1 l 1
 12 0 l 1
 11 0 l 1
 11 1 l 1
10 -1 m 1
 9 -1 l 1
 9 -2 l 1
 10 -2 l 1
 10 -1 l 1
EndSplineSet
EndChar

StartChar: custom_3_5_0_6_5
Encoding: 30533 30533 10565
Width: 70
Flags: H
LayerCount: 2
Fore
SplineSet
23 43 m 1
 21 43 l 1
 21 41 l 1
 23 41 l 1
 23 43 l 1
26 43 m 1
 24 43 l 1
 24 41 l 1
 25 41 l 1
 25 42 l 1
 26 42 l 1
 26 43 l 1
28 43 m 1
 27 43 l 1
 27 42 l 1
 26 42 l 1
 26 41 l 1
 28 41 l 1
 28 43 l 1
31 43 m 1
 29 43 l 1
 29 41 l 1
 31 41 l 1
 31 43 l 1
31 39 m 1
 29 39 l 1
 29 37 l 1
 31 37 l 1
 31 39 l 1
41 43 m 1
 39 43 l 1
 39 41 l 1
 41 41 l 1
 41 43 l 1
36 37 m 1
 34 37 l 1
 34 35 l 1
 36 35 l 1
 36 37 l 1
31 35 m 1
 29 35 l 1
 29 33 l 1
 31 33 l 1
 31 35 l 1
31 31 m 1
 29 31 l 1
 29 29 l 1
 31 29 l 1
 31 31 l 1
36 33 m 1
 34 33 l 1
 34 31 l 1
 36 31 l 1
 36 33 l 1
41 35 m 1
 39 35 l 1
 39 33 l 1
 41 33 l 1
 41 35 l 1
31 27 m 1
 29 27 l 1
 29 25 l 1
 31 25 l 1
 31 27 l 1
41 27 m 1
 39 27 l 1
 39 25 l 1
 41 25 l 1
 41 27 l 1
44 43 m 1
 42 43 l 1
 42 41 l 1
 43 41 l 1
 43 42 l 1
 44 42 l 1
 44 43 l 1
46 43 m 1
 45 43 l 1
 45 42 l 1
 44 42 l 1
 44 41 l 1
 46 41 l 1
 46 43 l 1
49 43 m 1
 47 43 l 1
 47 41 l 1
 49 41 l 1
 49 43 l 1
49 39 m 1
 47 39 l 1
 47 37 l 1
 49 37 l 1
 49 39 l 1
55 43 m 1
 53 43 l 1
 53 41 l 1
 55 41 l 1
 55 43 l 1
55 39 m 1
 53 39 l 1
 53 37 l 1
 55 37 l 1
 55 39 l 1
58 43 m 1
 56 43 l 1
 56 41 l 1
 57 41 l 1
 57 42 l 1
 58 42 l 1
 58 43 l 1
60 43 m 1
 59 43 l 1
 59 42 l 1
 58 42 l 1
 58 41 l 1
 60 41 l 1
 60 43 l 1
63 43 m 1
 61 43 l 1
 61 41 l 1
 63 41 l 1
 63 43 l 1
43 35 m 1
 42 35 l 1
 42 33 l 1
 44 33 l 1
 44 34 l 1
 43 34 l 1
 43 35 l 1
46 35 m 1
 44 35 l 1
 44 34 l 1
 45 34 l 1
 45 33 l 1
 46 33 l 1
 46 35 l 1
49 35 m 1
 47 35 l 1
 47 33 l 1
 49 33 l 1
 49 35 l 1
49 31 m 1
 47 31 l 1
 47 29 l 1
 49 29 l 1
 49 31 l 1
55 35 m 1
 53 35 l 1
 53 33 l 1
 55 33 l 1
 55 35 l 1
44 27 m 1
 42 27 l 1
 42 25 l 1
 43 25 l 1
 43 26 l 1
 44 26 l 1
 44 27 l 1
46 27 m 1
 45 27 l 1
 45 26 l 1
 44 26 l 1
 44 25 l 1
 46 25 l 1
 46 27 l 1
49 27 m 1
 47 27 l 1
 47 25 l 1
 49 25 l 1
 49 27 l 1
55 27 m 1
 53 27 l 1
 53 25 l 1
 55 25 l 1
 55 27 l 1
57 35 m 1
 56 35 l 1
 56 33 l 1
 58 33 l 1
 58 34 l 1
 57 34 l 1
 57 35 l 1
60 35 m 1
 58 35 l 1
 58 34 l 1
 59 34 l 1
 59 33 l 1
 60 33 l 1
 60 35 l 1
63 35 m 1
 61 35 l 1
 61 33 l 1
 63 33 l 1
 63 35 l 1
63 31 m 1
 61 31 l 1
 61 29 l 1
 63 29 l 1
 63 31 l 1
58 27 m 1
 56 27 l 1
 56 25 l 1
 57 25 l 1
 57 26 l 1
 58 26 l 1
 58 27 l 1
60 27 m 1
 59 27 l 1
 59 26 l 1
 58 26 l 1
 58 25 l 1
 60 25 l 1
 60 27 l 1
63 27 m 1
 61 27 l 1
 61 25 l 1
 63 25 l 1
 63 27 l 1
12 1 m 1
 9 1 l 1
 9 0 l 1
 11 0 l 1
 11 -1 l 1
 12 -1 l 1
 12 1 l 1
11 -1 m 1
 10 -1 l 1
 10 -2 l 1
 11 -2 l 1
 11 -1 l 1
EndSplineSet
EndChar

StartChar: custom_3_5_0_6_6
Encoding: 30534 30534 10566
Width: 70
Flags: H
LayerCount: 2
Fore
SplineSet
23 43 m 1
 21 43 l 1
 21 41 l 1
 23 41 l 1
 23 43 l 1
26 43 m 1
 24 43 l 1
 24 41 l 1
 25 41 l 1
 25 42 l 1
 26 42 l 1
 26 43 l 1
28 43 m 1
 27 43 l 1
 27 42 l 1
 26 42 l 1
 26 41 l 1
 28 41 l 1
 28 43 l 1
31 43 m 1
 29 43 l 1
 29 41 l 1
 31 41 l 1
 31 43 l 1
31 39 m 1
 29 39 l 1
 29 37 l 1
 31 37 l 1
 31 39 l 1
41 43 m 1
 39 43 l 1
 39 41 l 1
 41 41 l 1
 41 43 l 1
36 37 m 1
 34 37 l 1
 34 35 l 1
 36 35 l 1
 36 37 l 1
31 35 m 1
 29 35 l 1
 29 33 l 1
 31 33 l 1
 31 35 l 1
31 31 m 1
 29 31 l 1
 29 29 l 1
 31 29 l 1
 31 31 l 1
36 33 m 1
 34 33 l 1
 34 31 l 1
 36 31 l 1
 36 33 l 1
41 35 m 1
 39 35 l 1
 39 33 l 1
 41 33 l 1
 41 35 l 1
31 27 m 1
 29 27 l 1
 29 25 l 1
 31 25 l 1
 31 27 l 1
41 27 m 1
 39 27 l 1
 39 25 l 1
 41 25 l 1
 41 27 l 1
44 43 m 1
 42 43 l 1
 42 41 l 1
 43 41 l 1
 43 42 l 1
 44 42 l 1
 44 43 l 1
46 43 m 1
 45 43 l 1
 45 42 l 1
 44 42 l 1
 44 41 l 1
 46 41 l 1
 46 43 l 1
49 43 m 1
 47 43 l 1
 47 41 l 1
 49 41 l 1
 49 43 l 1
49 39 m 1
 47 39 l 1
 47 37 l 1
 49 37 l 1
 49 39 l 1
55 43 m 1
 53 43 l 1
 53 41 l 1
 55 41 l 1
 55 43 l 1
55 39 m 1
 53 39 l 1
 53 37 l 1
 55 37 l 1
 55 39 l 1
58 43 m 1
 56 43 l 1
 56 41 l 1
 57 41 l 1
 57 42 l 1
 58 42 l 1
 58 43 l 1
60 43 m 1
 59 43 l 1
 59 42 l 1
 58 42 l 1
 58 41 l 1
 60 41 l 1
 60 43 l 1
63 43 m 1
 61 43 l 1
 61 41 l 1
 63 41 l 1
 63 43 l 1
43 35 m 1
 42 35 l 1
 42 33 l 1
 44 33 l 1
 44 34 l 1
 43 34 l 1
 43 35 l 1
46 35 m 1
 44 35 l 1
 44 34 l 1
 45 34 l 1
 45 33 l 1
 46 33 l 1
 46 35 l 1
49 35 m 1
 47 35 l 1
 47 33 l 1
 49 33 l 1
 49 35 l 1
49 31 m 1
 47 31 l 1
 47 29 l 1
 49 29 l 1
 49 31 l 1
55 35 m 1
 53 35 l 1
 53 33 l 1
 55 33 l 1
 55 35 l 1
44 27 m 1
 42 27 l 1
 42 25 l 1
 43 25 l 1
 43 26 l 1
 44 26 l 1
 44 27 l 1
46 27 m 1
 45 27 l 1
 45 26 l 1
 44 26 l 1
 44 25 l 1
 46 25 l 1
 46 27 l 1
49 27 m 1
 47 27 l 1
 47 25 l 1
 49 25 l 1
 49 27 l 1
55 27 m 1
 53 27 l 1
 53 25 l 1
 55 25 l 1
 55 27 l 1
57 35 m 1
 56 35 l 1
 56 33 l 1
 58 33 l 1
 58 34 l 1
 57 34 l 1
 57 35 l 1
60 35 m 1
 58 35 l 1
 58 34 l 1
 59 34 l 1
 59 33 l 1
 60 33 l 1
 60 35 l 1
63 35 m 1
 61 35 l 1
 61 33 l 1
 63 33 l 1
 63 35 l 1
63 31 m 1
 61 31 l 1
 61 29 l 1
 63 29 l 1
 63 31 l 1
58 27 m 1
 56 27 l 1
 56 25 l 1
 57 25 l 1
 57 26 l 1
 58 26 l 1
 58 27 l 1
60 27 m 1
 59 27 l 1
 59 26 l 1
 58 26 l 1
 58 25 l 1
 60 25 l 1
 60 27 l 1
63 27 m 1
 61 27 l 1
 61 25 l 1
 63 25 l 1
 63 27 l 1
11 2 m 1
 10 2 l 1
 10 0 l 1
 11 0 l 1
 11 -1 l 1
 12 -1 l 1
 12 1 l 1
 11 1 l 1
 11 2 l 1
10 0 m 1
 9 0 l 1
 9 -1 l 1
 10 -1 l 1
 10 0 l 1
EndSplineSet
EndChar

StartChar: custom_3_5_0_6_7
Encoding: 30535 30535 10567
Width: 70
Flags: H
LayerCount: 2
Fore
SplineSet
23 43 m 1
 21 43 l 1
 21 41 l 1
 23 41 l 1
 23 43 l 1
26 43 m 1
 24 43 l 1
 24 41 l 1
 25 41 l 1
 25 42 l 1
 26 42 l 1
 26 43 l 1
28 43 m 1
 27 43 l 1
 27 42 l 1
 26 42 l 1
 26 41 l 1
 28 41 l 1
 28 43 l 1
31 43 m 1
 29 43 l 1
 29 41 l 1
 31 41 l 1
 31 43 l 1
31 39 m 1
 29 39 l 1
 29 37 l 1
 31 37 l 1
 31 39 l 1
41 43 m 1
 39 43 l 1
 39 41 l 1
 41 41 l 1
 41 43 l 1
36 37 m 1
 34 37 l 1
 34 35 l 1
 36 35 l 1
 36 37 l 1
31 35 m 1
 29 35 l 1
 29 33 l 1
 31 33 l 1
 31 35 l 1
31 31 m 1
 29 31 l 1
 29 29 l 1
 31 29 l 1
 31 31 l 1
36 33 m 1
 34 33 l 1
 34 31 l 1
 36 31 l 1
 36 33 l 1
41 35 m 1
 39 35 l 1
 39 33 l 1
 41 33 l 1
 41 35 l 1
31 27 m 1
 29 27 l 1
 29 25 l 1
 31 25 l 1
 31 27 l 1
41 27 m 1
 39 27 l 1
 39 25 l 1
 41 25 l 1
 41 27 l 1
44 43 m 1
 42 43 l 1
 42 41 l 1
 43 41 l 1
 43 42 l 1
 44 42 l 1
 44 43 l 1
46 43 m 1
 45 43 l 1
 45 42 l 1
 44 42 l 1
 44 41 l 1
 46 41 l 1
 46 43 l 1
49 43 m 1
 47 43 l 1
 47 41 l 1
 49 41 l 1
 49 43 l 1
49 39 m 1
 47 39 l 1
 47 37 l 1
 49 37 l 1
 49 39 l 1
55 43 m 1
 53 43 l 1
 53 41 l 1
 55 41 l 1
 55 43 l 1
55 39 m 1
 53 39 l 1
 53 37 l 1
 55 37 l 1
 55 39 l 1
58 43 m 1
 56 43 l 1
 56 41 l 1
 57 41 l 1
 57 42 l 1
 58 42 l 1
 58 43 l 1
60 43 m 1
 59 43 l 1
 59 42 l 1
 58 42 l 1
 58 41 l 1
 60 41 l 1
 60 43 l 1
63 43 m 1
 61 43 l 1
 61 41 l 1
 63 41 l 1
 63 43 l 1
43 35 m 1
 42 35 l 1
 42 33 l 1
 44 33 l 1
 44 34 l 1
 43 34 l 1
 43 35 l 1
46 35 m 1
 44 35 l 1
 44 34 l 1
 45 34 l 1
 45 33 l 1
 46 33 l 1
 46 35 l 1
49 35 m 1
 47 35 l 1
 47 33 l 1
 49 33 l 1
 49 35 l 1
49 31 m 1
 47 31 l 1
 47 29 l 1
 49 29 l 1
 49 31 l 1
55 35 m 1
 53 35 l 1
 53 33 l 1
 55 33 l 1
 55 35 l 1
44 27 m 1
 42 27 l 1
 42 25 l 1
 43 25 l 1
 43 26 l 1
 44 26 l 1
 44 27 l 1
46 27 m 1
 45 27 l 1
 45 26 l 1
 44 26 l 1
 44 25 l 1
 46 25 l 1
 46 27 l 1
49 27 m 1
 47 27 l 1
 47 25 l 1
 49 25 l 1
 49 27 l 1
55 27 m 1
 53 27 l 1
 53 25 l 1
 55 25 l 1
 55 27 l 1
57 35 m 1
 56 35 l 1
 56 33 l 1
 58 33 l 1
 58 34 l 1
 57 34 l 1
 57 35 l 1
60 35 m 1
 58 35 l 1
 58 34 l 1
 59 34 l 1
 59 33 l 1
 60 33 l 1
 60 35 l 1
63 35 m 1
 61 35 l 1
 61 33 l 1
 63 33 l 1
 63 35 l 1
63 31 m 1
 61 31 l 1
 61 29 l 1
 63 29 l 1
 63 31 l 1
58 27 m 1
 56 27 l 1
 56 25 l 1
 57 25 l 1
 57 26 l 1
 58 26 l 1
 58 27 l 1
60 27 m 1
 59 27 l 1
 59 26 l 1
 58 26 l 1
 58 25 l 1
 60 25 l 1
 60 27 l 1
63 27 m 1
 61 27 l 1
 61 25 l 1
 63 25 l 1
 63 27 l 1
12 2 m 1
 10 2 l 1
 10 1 l 1
 11 1 l 1
 11 -1 l 1
 12 -1 l 1
 12 2 l 1
10 1 m 1
 9 1 l 1
 9 0 l 1
 10 0 l 1
 10 1 l 1
EndSplineSet
EndChar

StartChar: custom_3_5_0_6_8
Encoding: 30536 30536 10568
Width: 70
Flags: H
LayerCount: 2
Fore
SplineSet
23 43 m 1
 21 43 l 1
 21 41 l 1
 23 41 l 1
 23 43 l 1
26 43 m 1
 24 43 l 1
 24 41 l 1
 25 41 l 1
 25 42 l 1
 26 42 l 1
 26 43 l 1
28 43 m 1
 27 43 l 1
 27 42 l 1
 26 42 l 1
 26 41 l 1
 28 41 l 1
 28 43 l 1
31 43 m 1
 29 43 l 1
 29 41 l 1
 31 41 l 1
 31 43 l 1
31 39 m 1
 29 39 l 1
 29 37 l 1
 31 37 l 1
 31 39 l 1
41 43 m 1
 39 43 l 1
 39 41 l 1
 41 41 l 1
 41 43 l 1
36 37 m 1
 34 37 l 1
 34 35 l 1
 36 35 l 1
 36 37 l 1
31 35 m 1
 29 35 l 1
 29 33 l 1
 31 33 l 1
 31 35 l 1
31 31 m 1
 29 31 l 1
 29 29 l 1
 31 29 l 1
 31 31 l 1
36 33 m 1
 34 33 l 1
 34 31 l 1
 36 31 l 1
 36 33 l 1
41 35 m 1
 39 35 l 1
 39 33 l 1
 41 33 l 1
 41 35 l 1
31 27 m 1
 29 27 l 1
 29 25 l 1
 31 25 l 1
 31 27 l 1
41 27 m 1
 39 27 l 1
 39 25 l 1
 41 25 l 1
 41 27 l 1
44 43 m 1
 42 43 l 1
 42 41 l 1
 43 41 l 1
 43 42 l 1
 44 42 l 1
 44 43 l 1
46 43 m 1
 45 43 l 1
 45 42 l 1
 44 42 l 1
 44 41 l 1
 46 41 l 1
 46 43 l 1
49 43 m 1
 47 43 l 1
 47 41 l 1
 49 41 l 1
 49 43 l 1
49 39 m 1
 47 39 l 1
 47 37 l 1
 49 37 l 1
 49 39 l 1
55 43 m 1
 53 43 l 1
 53 41 l 1
 55 41 l 1
 55 43 l 1
55 39 m 1
 53 39 l 1
 53 37 l 1
 55 37 l 1
 55 39 l 1
58 43 m 1
 56 43 l 1
 56 41 l 1
 57 41 l 1
 57 42 l 1
 58 42 l 1
 58 43 l 1
60 43 m 1
 59 43 l 1
 59 42 l 1
 58 42 l 1
 58 41 l 1
 60 41 l 1
 60 43 l 1
63 43 m 1
 61 43 l 1
 61 41 l 1
 63 41 l 1
 63 43 l 1
43 35 m 1
 42 35 l 1
 42 33 l 1
 44 33 l 1
 44 34 l 1
 43 34 l 1
 43 35 l 1
46 35 m 1
 44 35 l 1
 44 34 l 1
 45 34 l 1
 45 33 l 1
 46 33 l 1
 46 35 l 1
49 35 m 1
 47 35 l 1
 47 33 l 1
 49 33 l 1
 49 35 l 1
49 31 m 1
 47 31 l 1
 47 29 l 1
 49 29 l 1
 49 31 l 1
55 35 m 1
 53 35 l 1
 53 33 l 1
 55 33 l 1
 55 35 l 1
44 27 m 1
 42 27 l 1
 42 25 l 1
 43 25 l 1
 43 26 l 1
 44 26 l 1
 44 27 l 1
46 27 m 1
 45 27 l 1
 45 26 l 1
 44 26 l 1
 44 25 l 1
 46 25 l 1
 46 27 l 1
49 27 m 1
 47 27 l 1
 47 25 l 1
 49 25 l 1
 49 27 l 1
55 27 m 1
 53 27 l 1
 53 25 l 1
 55 25 l 1
 55 27 l 1
57 35 m 1
 56 35 l 1
 56 33 l 1
 58 33 l 1
 58 34 l 1
 57 34 l 1
 57 35 l 1
60 35 m 1
 58 35 l 1
 58 34 l 1
 59 34 l 1
 59 33 l 1
 60 33 l 1
 60 35 l 1
63 35 m 1
 61 35 l 1
 61 33 l 1
 63 33 l 1
 63 35 l 1
63 31 m 1
 61 31 l 1
 61 29 l 1
 63 29 l 1
 63 31 l 1
58 27 m 1
 56 27 l 1
 56 25 l 1
 57 25 l 1
 57 26 l 1
 58 26 l 1
 58 27 l 1
60 27 m 1
 59 27 l 1
 59 26 l 1
 58 26 l 1
 58 25 l 1
 60 25 l 1
 60 27 l 1
63 27 m 1
 61 27 l 1
 61 25 l 1
 63 25 l 1
 63 27 l 1
12 2 m 1
 10 2 l 1
 10 1 l 1
 11 1 l 1
 11 0 l 1
 13 0 l 1
 13 1 l 1
 12 1 l 1
 12 2 l 1
11 0 m 1
 10 0 l 1
 10 -1 l 1
 11 -1 l 1
 11 0 l 1
EndSplineSet
EndChar

StartChar: custom_3_5_0_6_9
Encoding: 30537 30537 10569
Width: 70
Flags: H
LayerCount: 2
Fore
SplineSet
23 43 m 1
 21 43 l 1
 21 41 l 1
 23 41 l 1
 23 43 l 1
26 43 m 1
 24 43 l 1
 24 41 l 1
 25 41 l 1
 25 42 l 1
 26 42 l 1
 26 43 l 1
28 43 m 1
 27 43 l 1
 27 42 l 1
 26 42 l 1
 26 41 l 1
 28 41 l 1
 28 43 l 1
31 43 m 1
 29 43 l 1
 29 41 l 1
 31 41 l 1
 31 43 l 1
31 39 m 1
 29 39 l 1
 29 37 l 1
 31 37 l 1
 31 39 l 1
41 43 m 1
 39 43 l 1
 39 41 l 1
 41 41 l 1
 41 43 l 1
36 37 m 1
 34 37 l 1
 34 35 l 1
 36 35 l 1
 36 37 l 1
31 35 m 1
 29 35 l 1
 29 33 l 1
 31 33 l 1
 31 35 l 1
31 31 m 1
 29 31 l 1
 29 29 l 1
 31 29 l 1
 31 31 l 1
36 33 m 1
 34 33 l 1
 34 31 l 1
 36 31 l 1
 36 33 l 1
41 35 m 1
 39 35 l 1
 39 33 l 1
 41 33 l 1
 41 35 l 1
31 27 m 1
 29 27 l 1
 29 25 l 1
 31 25 l 1
 31 27 l 1
41 27 m 1
 39 27 l 1
 39 25 l 1
 41 25 l 1
 41 27 l 1
44 43 m 1
 42 43 l 1
 42 41 l 1
 43 41 l 1
 43 42 l 1
 44 42 l 1
 44 43 l 1
46 43 m 1
 45 43 l 1
 45 42 l 1
 44 42 l 1
 44 41 l 1
 46 41 l 1
 46 43 l 1
49 43 m 1
 47 43 l 1
 47 41 l 1
 49 41 l 1
 49 43 l 1
49 39 m 1
 47 39 l 1
 47 37 l 1
 49 37 l 1
 49 39 l 1
55 43 m 1
 53 43 l 1
 53 41 l 1
 55 41 l 1
 55 43 l 1
55 39 m 1
 53 39 l 1
 53 37 l 1
 55 37 l 1
 55 39 l 1
58 43 m 1
 56 43 l 1
 56 41 l 1
 57 41 l 1
 57 42 l 1
 58 42 l 1
 58 43 l 1
60 43 m 1
 59 43 l 1
 59 42 l 1
 58 42 l 1
 58 41 l 1
 60 41 l 1
 60 43 l 1
63 43 m 1
 61 43 l 1
 61 41 l 1
 63 41 l 1
 63 43 l 1
43 35 m 1
 42 35 l 1
 42 33 l 1
 44 33 l 1
 44 34 l 1
 43 34 l 1
 43 35 l 1
46 35 m 1
 44 35 l 1
 44 34 l 1
 45 34 l 1
 45 33 l 1
 46 33 l 1
 46 35 l 1
49 35 m 1
 47 35 l 1
 47 33 l 1
 49 33 l 1
 49 35 l 1
49 31 m 1
 47 31 l 1
 47 29 l 1
 49 29 l 1
 49 31 l 1
55 35 m 1
 53 35 l 1
 53 33 l 1
 55 33 l 1
 55 35 l 1
44 27 m 1
 42 27 l 1
 42 25 l 1
 43 25 l 1
 43 26 l 1
 44 26 l 1
 44 27 l 1
46 27 m 1
 45 27 l 1
 45 26 l 1
 44 26 l 1
 44 25 l 1
 46 25 l 1
 46 27 l 1
49 27 m 1
 47 27 l 1
 47 25 l 1
 49 25 l 1
 49 27 l 1
55 27 m 1
 53 27 l 1
 53 25 l 1
 55 25 l 1
 55 27 l 1
57 35 m 1
 56 35 l 1
 56 33 l 1
 58 33 l 1
 58 34 l 1
 57 34 l 1
 57 35 l 1
60 35 m 1
 58 35 l 1
 58 34 l 1
 59 34 l 1
 59 33 l 1
 60 33 l 1
 60 35 l 1
63 35 m 1
 61 35 l 1
 61 33 l 1
 63 33 l 1
 63 35 l 1
63 31 m 1
 61 31 l 1
 61 29 l 1
 63 29 l 1
 63 31 l 1
58 27 m 1
 56 27 l 1
 56 25 l 1
 57 25 l 1
 57 26 l 1
 58 26 l 1
 58 27 l 1
60 27 m 1
 59 27 l 1
 59 26 l 1
 58 26 l 1
 58 25 l 1
 60 25 l 1
 60 27 l 1
63 27 m 1
 61 27 l 1
 61 25 l 1
 63 25 l 1
 63 27 l 1
13 2 m 1
 10 2 l 1
 10 1 l 1
 12 1 l 1
 12 0 l 1
 13 0 l 1
 13 2 l 1
12 0 m 1
 11 0 l 1
 11 -1 l 1
 12 -1 l 1
 12 0 l 1
EndSplineSet
EndChar

StartChar: custom_3_5_0_7_0
Encoding: 30538 30538 10570
Width: 70
Flags: H
LayerCount: 2
Fore
SplineSet
23 43 m 1
 21 43 l 1
 21 41 l 1
 23 41 l 1
 23 43 l 1
26 43 m 1
 24 43 l 1
 24 41 l 1
 25 41 l 1
 25 42 l 1
 26 42 l 1
 26 43 l 1
28 43 m 1
 27 43 l 1
 27 42 l 1
 26 42 l 1
 26 41 l 1
 28 41 l 1
 28 43 l 1
31 43 m 1
 29 43 l 1
 29 41 l 1
 31 41 l 1
 31 43 l 1
31 39 m 1
 29 39 l 1
 29 37 l 1
 31 37 l 1
 31 39 l 1
41 43 m 1
 39 43 l 1
 39 41 l 1
 41 41 l 1
 41 43 l 1
36 37 m 1
 34 37 l 1
 34 35 l 1
 36 35 l 1
 36 37 l 1
31 35 m 1
 29 35 l 1
 29 33 l 1
 31 33 l 1
 31 35 l 1
31 31 m 1
 29 31 l 1
 29 29 l 1
 31 29 l 1
 31 31 l 1
36 33 m 1
 34 33 l 1
 34 31 l 1
 36 31 l 1
 36 33 l 1
41 35 m 1
 39 35 l 1
 39 33 l 1
 41 33 l 1
 41 35 l 1
31 27 m 1
 29 27 l 1
 29 25 l 1
 31 25 l 1
 31 27 l 1
41 27 m 1
 39 27 l 1
 39 25 l 1
 41 25 l 1
 41 27 l 1
44 43 m 1
 42 43 l 1
 42 41 l 1
 43 41 l 1
 43 42 l 1
 44 42 l 1
 44 43 l 1
46 43 m 1
 45 43 l 1
 45 42 l 1
 44 42 l 1
 44 41 l 1
 46 41 l 1
 46 43 l 1
49 43 m 1
 47 43 l 1
 47 41 l 1
 49 41 l 1
 49 43 l 1
49 39 m 1
 47 39 l 1
 47 37 l 1
 49 37 l 1
 49 39 l 1
55 43 m 1
 53 43 l 1
 53 41 l 1
 55 41 l 1
 55 43 l 1
55 39 m 1
 53 39 l 1
 53 37 l 1
 55 37 l 1
 55 39 l 1
58 43 m 1
 56 43 l 1
 56 41 l 1
 57 41 l 1
 57 42 l 1
 58 42 l 1
 58 43 l 1
60 43 m 1
 59 43 l 1
 59 42 l 1
 58 42 l 1
 58 41 l 1
 60 41 l 1
 60 43 l 1
63 43 m 1
 61 43 l 1
 61 41 l 1
 63 41 l 1
 63 43 l 1
43 35 m 1
 42 35 l 1
 42 33 l 1
 44 33 l 1
 44 34 l 1
 43 34 l 1
 43 35 l 1
46 35 m 1
 44 35 l 1
 44 34 l 1
 45 34 l 1
 45 33 l 1
 46 33 l 1
 46 35 l 1
49 35 m 1
 47 35 l 1
 47 33 l 1
 49 33 l 1
 49 35 l 1
49 31 m 1
 47 31 l 1
 47 29 l 1
 49 29 l 1
 49 31 l 1
55 35 m 1
 53 35 l 1
 53 33 l 1
 55 33 l 1
 55 35 l 1
44 27 m 1
 42 27 l 1
 42 25 l 1
 43 25 l 1
 43 26 l 1
 44 26 l 1
 44 27 l 1
46 27 m 1
 45 27 l 1
 45 26 l 1
 44 26 l 1
 44 25 l 1
 46 25 l 1
 46 27 l 1
49 27 m 1
 47 27 l 1
 47 25 l 1
 49 25 l 1
 49 27 l 1
55 27 m 1
 53 27 l 1
 53 25 l 1
 55 25 l 1
 55 27 l 1
57 35 m 1
 56 35 l 1
 56 33 l 1
 58 33 l 1
 58 34 l 1
 57 34 l 1
 57 35 l 1
60 35 m 1
 58 35 l 1
 58 34 l 1
 59 34 l 1
 59 33 l 1
 60 33 l 1
 60 35 l 1
63 35 m 1
 61 35 l 1
 61 33 l 1
 63 33 l 1
 63 35 l 1
63 31 m 1
 61 31 l 1
 61 29 l 1
 63 29 l 1
 63 31 l 1
58 27 m 1
 56 27 l 1
 56 25 l 1
 57 25 l 1
 57 26 l 1
 58 26 l 1
 58 27 l 1
60 27 m 1
 59 27 l 1
 59 26 l 1
 58 26 l 1
 58 25 l 1
 60 25 l 1
 60 27 l 1
63 27 m 1
 61 27 l 1
 61 25 l 1
 63 25 l 1
 63 27 l 1
12 3 m 1
 11 3 l 1
 11 1 l 1
 12 1 l 1
 12 0 l 1
 13 0 l 1
 13 2 l 1
 12 2 l 1
 12 3 l 1
11 1 m 1
 10 1 l 1
 10 0 l 1
 11 0 l 1
 11 1 l 1
EndSplineSet
EndChar

StartChar: custom_3_5_0_7_1
Encoding: 30539 30539 10571
Width: 70
Flags: H
LayerCount: 2
Fore
SplineSet
23 43 m 1
 21 43 l 1
 21 41 l 1
 23 41 l 1
 23 43 l 1
26 43 m 1
 24 43 l 1
 24 41 l 1
 25 41 l 1
 25 42 l 1
 26 42 l 1
 26 43 l 1
28 43 m 1
 27 43 l 1
 27 42 l 1
 26 42 l 1
 26 41 l 1
 28 41 l 1
 28 43 l 1
31 43 m 1
 29 43 l 1
 29 41 l 1
 31 41 l 1
 31 43 l 1
31 39 m 1
 29 39 l 1
 29 37 l 1
 31 37 l 1
 31 39 l 1
41 43 m 1
 39 43 l 1
 39 41 l 1
 41 41 l 1
 41 43 l 1
36 37 m 1
 34 37 l 1
 34 35 l 1
 36 35 l 1
 36 37 l 1
31 35 m 1
 29 35 l 1
 29 33 l 1
 31 33 l 1
 31 35 l 1
31 31 m 1
 29 31 l 1
 29 29 l 1
 31 29 l 1
 31 31 l 1
36 33 m 1
 34 33 l 1
 34 31 l 1
 36 31 l 1
 36 33 l 1
41 35 m 1
 39 35 l 1
 39 33 l 1
 41 33 l 1
 41 35 l 1
31 27 m 1
 29 27 l 1
 29 25 l 1
 31 25 l 1
 31 27 l 1
41 27 m 1
 39 27 l 1
 39 25 l 1
 41 25 l 1
 41 27 l 1
44 43 m 1
 42 43 l 1
 42 41 l 1
 43 41 l 1
 43 42 l 1
 44 42 l 1
 44 43 l 1
46 43 m 1
 45 43 l 1
 45 42 l 1
 44 42 l 1
 44 41 l 1
 46 41 l 1
 46 43 l 1
49 43 m 1
 47 43 l 1
 47 41 l 1
 49 41 l 1
 49 43 l 1
49 39 m 1
 47 39 l 1
 47 37 l 1
 49 37 l 1
 49 39 l 1
55 43 m 1
 53 43 l 1
 53 41 l 1
 55 41 l 1
 55 43 l 1
55 39 m 1
 53 39 l 1
 53 37 l 1
 55 37 l 1
 55 39 l 1
58 43 m 1
 56 43 l 1
 56 41 l 1
 57 41 l 1
 57 42 l 1
 58 42 l 1
 58 43 l 1
60 43 m 1
 59 43 l 1
 59 42 l 1
 58 42 l 1
 58 41 l 1
 60 41 l 1
 60 43 l 1
63 43 m 1
 61 43 l 1
 61 41 l 1
 63 41 l 1
 63 43 l 1
43 35 m 1
 42 35 l 1
 42 33 l 1
 44 33 l 1
 44 34 l 1
 43 34 l 1
 43 35 l 1
46 35 m 1
 44 35 l 1
 44 34 l 1
 45 34 l 1
 45 33 l 1
 46 33 l 1
 46 35 l 1
49 35 m 1
 47 35 l 1
 47 33 l 1
 49 33 l 1
 49 35 l 1
49 31 m 1
 47 31 l 1
 47 29 l 1
 49 29 l 1
 49 31 l 1
55 35 m 1
 53 35 l 1
 53 33 l 1
 55 33 l 1
 55 35 l 1
44 27 m 1
 42 27 l 1
 42 25 l 1
 43 25 l 1
 43 26 l 1
 44 26 l 1
 44 27 l 1
46 27 m 1
 45 27 l 1
 45 26 l 1
 44 26 l 1
 44 25 l 1
 46 25 l 1
 46 27 l 1
49 27 m 1
 47 27 l 1
 47 25 l 1
 49 25 l 1
 49 27 l 1
55 27 m 1
 53 27 l 1
 53 25 l 1
 55 25 l 1
 55 27 l 1
57 35 m 1
 56 35 l 1
 56 33 l 1
 58 33 l 1
 58 34 l 1
 57 34 l 1
 57 35 l 1
60 35 m 1
 58 35 l 1
 58 34 l 1
 59 34 l 1
 59 33 l 1
 60 33 l 1
 60 35 l 1
63 35 m 1
 61 35 l 1
 61 33 l 1
 63 33 l 1
 63 35 l 1
63 31 m 1
 61 31 l 1
 61 29 l 1
 63 29 l 1
 63 31 l 1
58 27 m 1
 56 27 l 1
 56 25 l 1
 57 25 l 1
 57 26 l 1
 58 26 l 1
 58 27 l 1
60 27 m 1
 59 27 l 1
 59 26 l 1
 58 26 l 1
 58 25 l 1
 60 25 l 1
 60 27 l 1
63 27 m 1
 61 27 l 1
 61 25 l 1
 63 25 l 1
 63 27 l 1
13 3 m 1
 11 3 l 1
 11 2 l 1
 12 2 l 1
 12 0 l 1
 13 0 l 1
 13 3 l 1
11 2 m 1
 10 2 l 1
 10 1 l 1
 11 1 l 1
 11 2 l 1
EndSplineSet
EndChar

StartChar: custom_3_5_0_7_2
Encoding: 30540 30540 10572
Width: 70
Flags: H
LayerCount: 2
Fore
SplineSet
23 43 m 1
 21 43 l 1
 21 41 l 1
 23 41 l 1
 23 43 l 1
26 43 m 1
 24 43 l 1
 24 41 l 1
 25 41 l 1
 25 42 l 1
 26 42 l 1
 26 43 l 1
28 43 m 1
 27 43 l 1
 27 42 l 1
 26 42 l 1
 26 41 l 1
 28 41 l 1
 28 43 l 1
31 43 m 1
 29 43 l 1
 29 41 l 1
 31 41 l 1
 31 43 l 1
31 39 m 1
 29 39 l 1
 29 37 l 1
 31 37 l 1
 31 39 l 1
41 43 m 1
 39 43 l 1
 39 41 l 1
 41 41 l 1
 41 43 l 1
36 37 m 1
 34 37 l 1
 34 35 l 1
 36 35 l 1
 36 37 l 1
31 35 m 1
 29 35 l 1
 29 33 l 1
 31 33 l 1
 31 35 l 1
31 31 m 1
 29 31 l 1
 29 29 l 1
 31 29 l 1
 31 31 l 1
36 33 m 1
 34 33 l 1
 34 31 l 1
 36 31 l 1
 36 33 l 1
41 35 m 1
 39 35 l 1
 39 33 l 1
 41 33 l 1
 41 35 l 1
31 27 m 1
 29 27 l 1
 29 25 l 1
 31 25 l 1
 31 27 l 1
41 27 m 1
 39 27 l 1
 39 25 l 1
 41 25 l 1
 41 27 l 1
44 43 m 1
 42 43 l 1
 42 41 l 1
 43 41 l 1
 43 42 l 1
 44 42 l 1
 44 43 l 1
46 43 m 1
 45 43 l 1
 45 42 l 1
 44 42 l 1
 44 41 l 1
 46 41 l 1
 46 43 l 1
49 43 m 1
 47 43 l 1
 47 41 l 1
 49 41 l 1
 49 43 l 1
49 39 m 1
 47 39 l 1
 47 37 l 1
 49 37 l 1
 49 39 l 1
55 43 m 1
 53 43 l 1
 53 41 l 1
 55 41 l 1
 55 43 l 1
55 39 m 1
 53 39 l 1
 53 37 l 1
 55 37 l 1
 55 39 l 1
58 43 m 1
 56 43 l 1
 56 41 l 1
 57 41 l 1
 57 42 l 1
 58 42 l 1
 58 43 l 1
60 43 m 1
 59 43 l 1
 59 42 l 1
 58 42 l 1
 58 41 l 1
 60 41 l 1
 60 43 l 1
63 43 m 1
 61 43 l 1
 61 41 l 1
 63 41 l 1
 63 43 l 1
43 35 m 1
 42 35 l 1
 42 33 l 1
 44 33 l 1
 44 34 l 1
 43 34 l 1
 43 35 l 1
46 35 m 1
 44 35 l 1
 44 34 l 1
 45 34 l 1
 45 33 l 1
 46 33 l 1
 46 35 l 1
49 35 m 1
 47 35 l 1
 47 33 l 1
 49 33 l 1
 49 35 l 1
49 31 m 1
 47 31 l 1
 47 29 l 1
 49 29 l 1
 49 31 l 1
55 35 m 1
 53 35 l 1
 53 33 l 1
 55 33 l 1
 55 35 l 1
44 27 m 1
 42 27 l 1
 42 25 l 1
 43 25 l 1
 43 26 l 1
 44 26 l 1
 44 27 l 1
46 27 m 1
 45 27 l 1
 45 26 l 1
 44 26 l 1
 44 25 l 1
 46 25 l 1
 46 27 l 1
49 27 m 1
 47 27 l 1
 47 25 l 1
 49 25 l 1
 49 27 l 1
55 27 m 1
 53 27 l 1
 53 25 l 1
 55 25 l 1
 55 27 l 1
57 35 m 1
 56 35 l 1
 56 33 l 1
 58 33 l 1
 58 34 l 1
 57 34 l 1
 57 35 l 1
60 35 m 1
 58 35 l 1
 58 34 l 1
 59 34 l 1
 59 33 l 1
 60 33 l 1
 60 35 l 1
63 35 m 1
 61 35 l 1
 61 33 l 1
 63 33 l 1
 63 35 l 1
63 31 m 1
 61 31 l 1
 61 29 l 1
 63 29 l 1
 63 31 l 1
58 27 m 1
 56 27 l 1
 56 25 l 1
 57 25 l 1
 57 26 l 1
 58 26 l 1
 58 27 l 1
60 27 m 1
 59 27 l 1
 59 26 l 1
 58 26 l 1
 58 25 l 1
 60 25 l 1
 60 27 l 1
63 27 m 1
 61 27 l 1
 61 25 l 1
 63 25 l 1
 63 27 l 1
13 3 m 1
 11 3 l 1
 11 2 l 1
 12 2 l 1
 12 1 l 1
 14 1 l 1
 14 2 l 1
 13 2 l 1
 13 3 l 1
12 1 m 1
 11 1 l 1
 11 0 l 1
 12 0 l 1
 12 1 l 1
EndSplineSet
EndChar

StartChar: custom_3_5_0_7_3
Encoding: 30541 30541 10573
Width: 70
Flags: H
LayerCount: 2
Fore
SplineSet
23 43 m 1
 21 43 l 1
 21 41 l 1
 23 41 l 1
 23 43 l 1
26 43 m 1
 24 43 l 1
 24 41 l 1
 25 41 l 1
 25 42 l 1
 26 42 l 1
 26 43 l 1
28 43 m 1
 27 43 l 1
 27 42 l 1
 26 42 l 1
 26 41 l 1
 28 41 l 1
 28 43 l 1
31 43 m 1
 29 43 l 1
 29 41 l 1
 31 41 l 1
 31 43 l 1
31 39 m 1
 29 39 l 1
 29 37 l 1
 31 37 l 1
 31 39 l 1
41 43 m 1
 39 43 l 1
 39 41 l 1
 41 41 l 1
 41 43 l 1
36 37 m 1
 34 37 l 1
 34 35 l 1
 36 35 l 1
 36 37 l 1
31 35 m 1
 29 35 l 1
 29 33 l 1
 31 33 l 1
 31 35 l 1
31 31 m 1
 29 31 l 1
 29 29 l 1
 31 29 l 1
 31 31 l 1
36 33 m 1
 34 33 l 1
 34 31 l 1
 36 31 l 1
 36 33 l 1
41 35 m 1
 39 35 l 1
 39 33 l 1
 41 33 l 1
 41 35 l 1
31 27 m 1
 29 27 l 1
 29 25 l 1
 31 25 l 1
 31 27 l 1
41 27 m 1
 39 27 l 1
 39 25 l 1
 41 25 l 1
 41 27 l 1
44 43 m 1
 42 43 l 1
 42 41 l 1
 43 41 l 1
 43 42 l 1
 44 42 l 1
 44 43 l 1
46 43 m 1
 45 43 l 1
 45 42 l 1
 44 42 l 1
 44 41 l 1
 46 41 l 1
 46 43 l 1
49 43 m 1
 47 43 l 1
 47 41 l 1
 49 41 l 1
 49 43 l 1
49 39 m 1
 47 39 l 1
 47 37 l 1
 49 37 l 1
 49 39 l 1
55 43 m 1
 53 43 l 1
 53 41 l 1
 55 41 l 1
 55 43 l 1
55 39 m 1
 53 39 l 1
 53 37 l 1
 55 37 l 1
 55 39 l 1
58 43 m 1
 56 43 l 1
 56 41 l 1
 57 41 l 1
 57 42 l 1
 58 42 l 1
 58 43 l 1
60 43 m 1
 59 43 l 1
 59 42 l 1
 58 42 l 1
 58 41 l 1
 60 41 l 1
 60 43 l 1
63 43 m 1
 61 43 l 1
 61 41 l 1
 63 41 l 1
 63 43 l 1
43 35 m 1
 42 35 l 1
 42 33 l 1
 44 33 l 1
 44 34 l 1
 43 34 l 1
 43 35 l 1
46 35 m 1
 44 35 l 1
 44 34 l 1
 45 34 l 1
 45 33 l 1
 46 33 l 1
 46 35 l 1
49 35 m 1
 47 35 l 1
 47 33 l 1
 49 33 l 1
 49 35 l 1
49 31 m 1
 47 31 l 1
 47 29 l 1
 49 29 l 1
 49 31 l 1
55 35 m 1
 53 35 l 1
 53 33 l 1
 55 33 l 1
 55 35 l 1
44 27 m 1
 42 27 l 1
 42 25 l 1
 43 25 l 1
 43 26 l 1
 44 26 l 1
 44 27 l 1
46 27 m 1
 45 27 l 1
 45 26 l 1
 44 26 l 1
 44 25 l 1
 46 25 l 1
 46 27 l 1
49 27 m 1
 47 27 l 1
 47 25 l 1
 49 25 l 1
 49 27 l 1
55 27 m 1
 53 27 l 1
 53 25 l 1
 55 25 l 1
 55 27 l 1
57 35 m 1
 56 35 l 1
 56 33 l 1
 58 33 l 1
 58 34 l 1
 57 34 l 1
 57 35 l 1
60 35 m 1
 58 35 l 1
 58 34 l 1
 59 34 l 1
 59 33 l 1
 60 33 l 1
 60 35 l 1
63 35 m 1
 61 35 l 1
 61 33 l 1
 63 33 l 1
 63 35 l 1
63 31 m 1
 61 31 l 1
 61 29 l 1
 63 29 l 1
 63 31 l 1
58 27 m 1
 56 27 l 1
 56 25 l 1
 57 25 l 1
 57 26 l 1
 58 26 l 1
 58 27 l 1
60 27 m 1
 59 27 l 1
 59 26 l 1
 58 26 l 1
 58 25 l 1
 60 25 l 1
 60 27 l 1
63 27 m 1
 61 27 l 1
 61 25 l 1
 63 25 l 1
 63 27 l 1
14 3 m 1
 11 3 l 1
 11 2 l 1
 13 2 l 1
 13 1 l 1
 14 1 l 1
 14 3 l 1
13 1 m 1
 12 1 l 1
 12 0 l 1
 13 0 l 1
 13 1 l 1
EndSplineSet
EndChar

StartChar: custom_3_5_0_7_4
Encoding: 30542 30542 10574
Width: 70
Flags: H
LayerCount: 2
Fore
SplineSet
23 43 m 1
 21 43 l 1
 21 41 l 1
 23 41 l 1
 23 43 l 1
26 43 m 1
 24 43 l 1
 24 41 l 1
 25 41 l 1
 25 42 l 1
 26 42 l 1
 26 43 l 1
28 43 m 1
 27 43 l 1
 27 42 l 1
 26 42 l 1
 26 41 l 1
 28 41 l 1
 28 43 l 1
31 43 m 1
 29 43 l 1
 29 41 l 1
 31 41 l 1
 31 43 l 1
31 39 m 1
 29 39 l 1
 29 37 l 1
 31 37 l 1
 31 39 l 1
41 43 m 1
 39 43 l 1
 39 41 l 1
 41 41 l 1
 41 43 l 1
36 37 m 1
 34 37 l 1
 34 35 l 1
 36 35 l 1
 36 37 l 1
31 35 m 1
 29 35 l 1
 29 33 l 1
 31 33 l 1
 31 35 l 1
31 31 m 1
 29 31 l 1
 29 29 l 1
 31 29 l 1
 31 31 l 1
36 33 m 1
 34 33 l 1
 34 31 l 1
 36 31 l 1
 36 33 l 1
41 35 m 1
 39 35 l 1
 39 33 l 1
 41 33 l 1
 41 35 l 1
31 27 m 1
 29 27 l 1
 29 25 l 1
 31 25 l 1
 31 27 l 1
41 27 m 1
 39 27 l 1
 39 25 l 1
 41 25 l 1
 41 27 l 1
44 43 m 1
 42 43 l 1
 42 41 l 1
 43 41 l 1
 43 42 l 1
 44 42 l 1
 44 43 l 1
46 43 m 1
 45 43 l 1
 45 42 l 1
 44 42 l 1
 44 41 l 1
 46 41 l 1
 46 43 l 1
49 43 m 1
 47 43 l 1
 47 41 l 1
 49 41 l 1
 49 43 l 1
49 39 m 1
 47 39 l 1
 47 37 l 1
 49 37 l 1
 49 39 l 1
55 43 m 1
 53 43 l 1
 53 41 l 1
 55 41 l 1
 55 43 l 1
55 39 m 1
 53 39 l 1
 53 37 l 1
 55 37 l 1
 55 39 l 1
58 43 m 1
 56 43 l 1
 56 41 l 1
 57 41 l 1
 57 42 l 1
 58 42 l 1
 58 43 l 1
60 43 m 1
 59 43 l 1
 59 42 l 1
 58 42 l 1
 58 41 l 1
 60 41 l 1
 60 43 l 1
63 43 m 1
 61 43 l 1
 61 41 l 1
 63 41 l 1
 63 43 l 1
43 35 m 1
 42 35 l 1
 42 33 l 1
 44 33 l 1
 44 34 l 1
 43 34 l 1
 43 35 l 1
46 35 m 1
 44 35 l 1
 44 34 l 1
 45 34 l 1
 45 33 l 1
 46 33 l 1
 46 35 l 1
49 35 m 1
 47 35 l 1
 47 33 l 1
 49 33 l 1
 49 35 l 1
49 31 m 1
 47 31 l 1
 47 29 l 1
 49 29 l 1
 49 31 l 1
55 35 m 1
 53 35 l 1
 53 33 l 1
 55 33 l 1
 55 35 l 1
44 27 m 1
 42 27 l 1
 42 25 l 1
 43 25 l 1
 43 26 l 1
 44 26 l 1
 44 27 l 1
46 27 m 1
 45 27 l 1
 45 26 l 1
 44 26 l 1
 44 25 l 1
 46 25 l 1
 46 27 l 1
49 27 m 1
 47 27 l 1
 47 25 l 1
 49 25 l 1
 49 27 l 1
55 27 m 1
 53 27 l 1
 53 25 l 1
 55 25 l 1
 55 27 l 1
57 35 m 1
 56 35 l 1
 56 33 l 1
 58 33 l 1
 58 34 l 1
 57 34 l 1
 57 35 l 1
60 35 m 1
 58 35 l 1
 58 34 l 1
 59 34 l 1
 59 33 l 1
 60 33 l 1
 60 35 l 1
63 35 m 1
 61 35 l 1
 61 33 l 1
 63 33 l 1
 63 35 l 1
63 31 m 1
 61 31 l 1
 61 29 l 1
 63 29 l 1
 63 31 l 1
58 27 m 1
 56 27 l 1
 56 25 l 1
 57 25 l 1
 57 26 l 1
 58 26 l 1
 58 27 l 1
60 27 m 1
 59 27 l 1
 59 26 l 1
 58 26 l 1
 58 25 l 1
 60 25 l 1
 60 27 l 1
63 27 m 1
 61 27 l 1
 61 25 l 1
 63 25 l 1
 63 27 l 1
13 4 m 1
 12 4 l 1
 12 2 l 1
 13 2 l 1
 13 1 l 1
 14 1 l 1
 14 3 l 1
 13 3 l 1
 13 4 l 1
12 2 m 1
 11 2 l 1
 11 1 l 1
 12 1 l 1
 12 2 l 1
EndSplineSet
EndChar

StartChar: custom_3_5_0_7_5
Encoding: 30543 30543 10575
Width: 70
Flags: H
LayerCount: 2
Fore
SplineSet
23 43 m 1
 21 43 l 1
 21 41 l 1
 23 41 l 1
 23 43 l 1
26 43 m 1
 24 43 l 1
 24 41 l 1
 25 41 l 1
 25 42 l 1
 26 42 l 1
 26 43 l 1
28 43 m 1
 27 43 l 1
 27 42 l 1
 26 42 l 1
 26 41 l 1
 28 41 l 1
 28 43 l 1
31 43 m 1
 29 43 l 1
 29 41 l 1
 31 41 l 1
 31 43 l 1
31 39 m 1
 29 39 l 1
 29 37 l 1
 31 37 l 1
 31 39 l 1
41 43 m 1
 39 43 l 1
 39 41 l 1
 41 41 l 1
 41 43 l 1
36 37 m 1
 34 37 l 1
 34 35 l 1
 36 35 l 1
 36 37 l 1
31 35 m 1
 29 35 l 1
 29 33 l 1
 31 33 l 1
 31 35 l 1
31 31 m 1
 29 31 l 1
 29 29 l 1
 31 29 l 1
 31 31 l 1
36 33 m 1
 34 33 l 1
 34 31 l 1
 36 31 l 1
 36 33 l 1
41 35 m 1
 39 35 l 1
 39 33 l 1
 41 33 l 1
 41 35 l 1
31 27 m 1
 29 27 l 1
 29 25 l 1
 31 25 l 1
 31 27 l 1
41 27 m 1
 39 27 l 1
 39 25 l 1
 41 25 l 1
 41 27 l 1
44 43 m 1
 42 43 l 1
 42 41 l 1
 43 41 l 1
 43 42 l 1
 44 42 l 1
 44 43 l 1
46 43 m 1
 45 43 l 1
 45 42 l 1
 44 42 l 1
 44 41 l 1
 46 41 l 1
 46 43 l 1
49 43 m 1
 47 43 l 1
 47 41 l 1
 49 41 l 1
 49 43 l 1
49 39 m 1
 47 39 l 1
 47 37 l 1
 49 37 l 1
 49 39 l 1
55 43 m 1
 53 43 l 1
 53 41 l 1
 55 41 l 1
 55 43 l 1
55 39 m 1
 53 39 l 1
 53 37 l 1
 55 37 l 1
 55 39 l 1
58 43 m 1
 56 43 l 1
 56 41 l 1
 57 41 l 1
 57 42 l 1
 58 42 l 1
 58 43 l 1
60 43 m 1
 59 43 l 1
 59 42 l 1
 58 42 l 1
 58 41 l 1
 60 41 l 1
 60 43 l 1
63 43 m 1
 61 43 l 1
 61 41 l 1
 63 41 l 1
 63 43 l 1
43 35 m 1
 42 35 l 1
 42 33 l 1
 44 33 l 1
 44 34 l 1
 43 34 l 1
 43 35 l 1
46 35 m 1
 44 35 l 1
 44 34 l 1
 45 34 l 1
 45 33 l 1
 46 33 l 1
 46 35 l 1
49 35 m 1
 47 35 l 1
 47 33 l 1
 49 33 l 1
 49 35 l 1
49 31 m 1
 47 31 l 1
 47 29 l 1
 49 29 l 1
 49 31 l 1
55 35 m 1
 53 35 l 1
 53 33 l 1
 55 33 l 1
 55 35 l 1
44 27 m 1
 42 27 l 1
 42 25 l 1
 43 25 l 1
 43 26 l 1
 44 26 l 1
 44 27 l 1
46 27 m 1
 45 27 l 1
 45 26 l 1
 44 26 l 1
 44 25 l 1
 46 25 l 1
 46 27 l 1
49 27 m 1
 47 27 l 1
 47 25 l 1
 49 25 l 1
 49 27 l 1
55 27 m 1
 53 27 l 1
 53 25 l 1
 55 25 l 1
 55 27 l 1
57 35 m 1
 56 35 l 1
 56 33 l 1
 58 33 l 1
 58 34 l 1
 57 34 l 1
 57 35 l 1
60 35 m 1
 58 35 l 1
 58 34 l 1
 59 34 l 1
 59 33 l 1
 60 33 l 1
 60 35 l 1
63 35 m 1
 61 35 l 1
 61 33 l 1
 63 33 l 1
 63 35 l 1
63 31 m 1
 61 31 l 1
 61 29 l 1
 63 29 l 1
 63 31 l 1
58 27 m 1
 56 27 l 1
 56 25 l 1
 57 25 l 1
 57 26 l 1
 58 26 l 1
 58 27 l 1
60 27 m 1
 59 27 l 1
 59 26 l 1
 58 26 l 1
 58 25 l 1
 60 25 l 1
 60 27 l 1
63 27 m 1
 61 27 l 1
 61 25 l 1
 63 25 l 1
 63 27 l 1
14 4 m 1
 12 4 l 1
 12 3 l 1
 13 3 l 1
 13 1 l 1
 14 1 l 1
 14 4 l 1
12 3 m 1
 11 3 l 1
 11 2 l 1
 12 2 l 1
 12 3 l 1
EndSplineSet
EndChar

StartChar: custom_3_5_0_7_6
Encoding: 30544 30544 10576
Width: 70
Flags: H
LayerCount: 2
Fore
SplineSet
23 43 m 1
 21 43 l 1
 21 41 l 1
 23 41 l 1
 23 43 l 1
26 43 m 1
 24 43 l 1
 24 41 l 1
 25 41 l 1
 25 42 l 1
 26 42 l 1
 26 43 l 1
28 43 m 1
 27 43 l 1
 27 42 l 1
 26 42 l 1
 26 41 l 1
 28 41 l 1
 28 43 l 1
31 43 m 1
 29 43 l 1
 29 41 l 1
 31 41 l 1
 31 43 l 1
31 39 m 1
 29 39 l 1
 29 37 l 1
 31 37 l 1
 31 39 l 1
41 43 m 1
 39 43 l 1
 39 41 l 1
 41 41 l 1
 41 43 l 1
36 37 m 1
 34 37 l 1
 34 35 l 1
 36 35 l 1
 36 37 l 1
31 35 m 1
 29 35 l 1
 29 33 l 1
 31 33 l 1
 31 35 l 1
31 31 m 1
 29 31 l 1
 29 29 l 1
 31 29 l 1
 31 31 l 1
36 33 m 1
 34 33 l 1
 34 31 l 1
 36 31 l 1
 36 33 l 1
41 35 m 1
 39 35 l 1
 39 33 l 1
 41 33 l 1
 41 35 l 1
31 27 m 1
 29 27 l 1
 29 25 l 1
 31 25 l 1
 31 27 l 1
41 27 m 1
 39 27 l 1
 39 25 l 1
 41 25 l 1
 41 27 l 1
44 43 m 1
 42 43 l 1
 42 41 l 1
 43 41 l 1
 43 42 l 1
 44 42 l 1
 44 43 l 1
46 43 m 1
 45 43 l 1
 45 42 l 1
 44 42 l 1
 44 41 l 1
 46 41 l 1
 46 43 l 1
49 43 m 1
 47 43 l 1
 47 41 l 1
 49 41 l 1
 49 43 l 1
49 39 m 1
 47 39 l 1
 47 37 l 1
 49 37 l 1
 49 39 l 1
55 43 m 1
 53 43 l 1
 53 41 l 1
 55 41 l 1
 55 43 l 1
55 39 m 1
 53 39 l 1
 53 37 l 1
 55 37 l 1
 55 39 l 1
58 43 m 1
 56 43 l 1
 56 41 l 1
 57 41 l 1
 57 42 l 1
 58 42 l 1
 58 43 l 1
60 43 m 1
 59 43 l 1
 59 42 l 1
 58 42 l 1
 58 41 l 1
 60 41 l 1
 60 43 l 1
63 43 m 1
 61 43 l 1
 61 41 l 1
 63 41 l 1
 63 43 l 1
43 35 m 1
 42 35 l 1
 42 33 l 1
 44 33 l 1
 44 34 l 1
 43 34 l 1
 43 35 l 1
46 35 m 1
 44 35 l 1
 44 34 l 1
 45 34 l 1
 45 33 l 1
 46 33 l 1
 46 35 l 1
49 35 m 1
 47 35 l 1
 47 33 l 1
 49 33 l 1
 49 35 l 1
49 31 m 1
 47 31 l 1
 47 29 l 1
 49 29 l 1
 49 31 l 1
55 35 m 1
 53 35 l 1
 53 33 l 1
 55 33 l 1
 55 35 l 1
44 27 m 1
 42 27 l 1
 42 25 l 1
 43 25 l 1
 43 26 l 1
 44 26 l 1
 44 27 l 1
46 27 m 1
 45 27 l 1
 45 26 l 1
 44 26 l 1
 44 25 l 1
 46 25 l 1
 46 27 l 1
49 27 m 1
 47 27 l 1
 47 25 l 1
 49 25 l 1
 49 27 l 1
55 27 m 1
 53 27 l 1
 53 25 l 1
 55 25 l 1
 55 27 l 1
57 35 m 1
 56 35 l 1
 56 33 l 1
 58 33 l 1
 58 34 l 1
 57 34 l 1
 57 35 l 1
60 35 m 1
 58 35 l 1
 58 34 l 1
 59 34 l 1
 59 33 l 1
 60 33 l 1
 60 35 l 1
63 35 m 1
 61 35 l 1
 61 33 l 1
 63 33 l 1
 63 35 l 1
63 31 m 1
 61 31 l 1
 61 29 l 1
 63 29 l 1
 63 31 l 1
58 27 m 1
 56 27 l 1
 56 25 l 1
 57 25 l 1
 57 26 l 1
 58 26 l 1
 58 27 l 1
60 27 m 1
 59 27 l 1
 59 26 l 1
 58 26 l 1
 58 25 l 1
 60 25 l 1
 60 27 l 1
63 27 m 1
 61 27 l 1
 61 25 l 1
 63 25 l 1
 63 27 l 1
14 4 m 1
 12 4 l 1
 12 3 l 1
 13 3 l 1
 13 2 l 1
 15 2 l 1
 15 3 l 1
 14 3 l 1
 14 4 l 1
13 2 m 1
 12 2 l 1
 12 1 l 1
 13 1 l 1
 13 2 l 1
EndSplineSet
EndChar

StartChar: custom_3_5_0_7_7
Encoding: 30545 30545 10577
Width: 70
Flags: H
LayerCount: 2
Fore
SplineSet
23 43 m 1
 21 43 l 1
 21 41 l 1
 23 41 l 1
 23 43 l 1
26 43 m 1
 24 43 l 1
 24 41 l 1
 25 41 l 1
 25 42 l 1
 26 42 l 1
 26 43 l 1
28 43 m 1
 27 43 l 1
 27 42 l 1
 26 42 l 1
 26 41 l 1
 28 41 l 1
 28 43 l 1
31 43 m 1
 29 43 l 1
 29 41 l 1
 31 41 l 1
 31 43 l 1
31 39 m 1
 29 39 l 1
 29 37 l 1
 31 37 l 1
 31 39 l 1
41 43 m 1
 39 43 l 1
 39 41 l 1
 41 41 l 1
 41 43 l 1
36 37 m 1
 34 37 l 1
 34 35 l 1
 36 35 l 1
 36 37 l 1
31 35 m 1
 29 35 l 1
 29 33 l 1
 31 33 l 1
 31 35 l 1
31 31 m 1
 29 31 l 1
 29 29 l 1
 31 29 l 1
 31 31 l 1
36 33 m 1
 34 33 l 1
 34 31 l 1
 36 31 l 1
 36 33 l 1
41 35 m 1
 39 35 l 1
 39 33 l 1
 41 33 l 1
 41 35 l 1
31 27 m 1
 29 27 l 1
 29 25 l 1
 31 25 l 1
 31 27 l 1
41 27 m 1
 39 27 l 1
 39 25 l 1
 41 25 l 1
 41 27 l 1
44 43 m 1
 42 43 l 1
 42 41 l 1
 43 41 l 1
 43 42 l 1
 44 42 l 1
 44 43 l 1
46 43 m 1
 45 43 l 1
 45 42 l 1
 44 42 l 1
 44 41 l 1
 46 41 l 1
 46 43 l 1
49 43 m 1
 47 43 l 1
 47 41 l 1
 49 41 l 1
 49 43 l 1
49 39 m 1
 47 39 l 1
 47 37 l 1
 49 37 l 1
 49 39 l 1
55 43 m 1
 53 43 l 1
 53 41 l 1
 55 41 l 1
 55 43 l 1
55 39 m 1
 53 39 l 1
 53 37 l 1
 55 37 l 1
 55 39 l 1
58 43 m 1
 56 43 l 1
 56 41 l 1
 57 41 l 1
 57 42 l 1
 58 42 l 1
 58 43 l 1
60 43 m 1
 59 43 l 1
 59 42 l 1
 58 42 l 1
 58 41 l 1
 60 41 l 1
 60 43 l 1
63 43 m 1
 61 43 l 1
 61 41 l 1
 63 41 l 1
 63 43 l 1
43 35 m 1
 42 35 l 1
 42 33 l 1
 44 33 l 1
 44 34 l 1
 43 34 l 1
 43 35 l 1
46 35 m 1
 44 35 l 1
 44 34 l 1
 45 34 l 1
 45 33 l 1
 46 33 l 1
 46 35 l 1
49 35 m 1
 47 35 l 1
 47 33 l 1
 49 33 l 1
 49 35 l 1
49 31 m 1
 47 31 l 1
 47 29 l 1
 49 29 l 1
 49 31 l 1
55 35 m 1
 53 35 l 1
 53 33 l 1
 55 33 l 1
 55 35 l 1
44 27 m 1
 42 27 l 1
 42 25 l 1
 43 25 l 1
 43 26 l 1
 44 26 l 1
 44 27 l 1
46 27 m 1
 45 27 l 1
 45 26 l 1
 44 26 l 1
 44 25 l 1
 46 25 l 1
 46 27 l 1
49 27 m 1
 47 27 l 1
 47 25 l 1
 49 25 l 1
 49 27 l 1
55 27 m 1
 53 27 l 1
 53 25 l 1
 55 25 l 1
 55 27 l 1
57 35 m 1
 56 35 l 1
 56 33 l 1
 58 33 l 1
 58 34 l 1
 57 34 l 1
 57 35 l 1
60 35 m 1
 58 35 l 1
 58 34 l 1
 59 34 l 1
 59 33 l 1
 60 33 l 1
 60 35 l 1
63 35 m 1
 61 35 l 1
 61 33 l 1
 63 33 l 1
 63 35 l 1
63 31 m 1
 61 31 l 1
 61 29 l 1
 63 29 l 1
 63 31 l 1
58 27 m 1
 56 27 l 1
 56 25 l 1
 57 25 l 1
 57 26 l 1
 58 26 l 1
 58 27 l 1
60 27 m 1
 59 27 l 1
 59 26 l 1
 58 26 l 1
 58 25 l 1
 60 25 l 1
 60 27 l 1
63 27 m 1
 61 27 l 1
 61 25 l 1
 63 25 l 1
 63 27 l 1
15 4 m 1
 12 4 l 1
 12 3 l 1
 14 3 l 1
 14 2 l 1
 15 2 l 1
 15 4 l 1
14 2 m 1
 13 2 l 1
 13 1 l 1
 14 1 l 1
 14 2 l 1
EndSplineSet
EndChar

StartChar: custom_3_5_0_7_8
Encoding: 30546 30546 10578
Width: 70
Flags: H
LayerCount: 2
Fore
SplineSet
23 43 m 1
 21 43 l 1
 21 41 l 1
 23 41 l 1
 23 43 l 1
26 43 m 1
 24 43 l 1
 24 41 l 1
 25 41 l 1
 25 42 l 1
 26 42 l 1
 26 43 l 1
28 43 m 1
 27 43 l 1
 27 42 l 1
 26 42 l 1
 26 41 l 1
 28 41 l 1
 28 43 l 1
31 43 m 1
 29 43 l 1
 29 41 l 1
 31 41 l 1
 31 43 l 1
31 39 m 1
 29 39 l 1
 29 37 l 1
 31 37 l 1
 31 39 l 1
41 43 m 1
 39 43 l 1
 39 41 l 1
 41 41 l 1
 41 43 l 1
36 37 m 1
 34 37 l 1
 34 35 l 1
 36 35 l 1
 36 37 l 1
31 35 m 1
 29 35 l 1
 29 33 l 1
 31 33 l 1
 31 35 l 1
31 31 m 1
 29 31 l 1
 29 29 l 1
 31 29 l 1
 31 31 l 1
36 33 m 1
 34 33 l 1
 34 31 l 1
 36 31 l 1
 36 33 l 1
41 35 m 1
 39 35 l 1
 39 33 l 1
 41 33 l 1
 41 35 l 1
31 27 m 1
 29 27 l 1
 29 25 l 1
 31 25 l 1
 31 27 l 1
41 27 m 1
 39 27 l 1
 39 25 l 1
 41 25 l 1
 41 27 l 1
44 43 m 1
 42 43 l 1
 42 41 l 1
 43 41 l 1
 43 42 l 1
 44 42 l 1
 44 43 l 1
46 43 m 1
 45 43 l 1
 45 42 l 1
 44 42 l 1
 44 41 l 1
 46 41 l 1
 46 43 l 1
49 43 m 1
 47 43 l 1
 47 41 l 1
 49 41 l 1
 49 43 l 1
49 39 m 1
 47 39 l 1
 47 37 l 1
 49 37 l 1
 49 39 l 1
55 43 m 1
 53 43 l 1
 53 41 l 1
 55 41 l 1
 55 43 l 1
55 39 m 1
 53 39 l 1
 53 37 l 1
 55 37 l 1
 55 39 l 1
58 43 m 1
 56 43 l 1
 56 41 l 1
 57 41 l 1
 57 42 l 1
 58 42 l 1
 58 43 l 1
60 43 m 1
 59 43 l 1
 59 42 l 1
 58 42 l 1
 58 41 l 1
 60 41 l 1
 60 43 l 1
63 43 m 1
 61 43 l 1
 61 41 l 1
 63 41 l 1
 63 43 l 1
43 35 m 1
 42 35 l 1
 42 33 l 1
 44 33 l 1
 44 34 l 1
 43 34 l 1
 43 35 l 1
46 35 m 1
 44 35 l 1
 44 34 l 1
 45 34 l 1
 45 33 l 1
 46 33 l 1
 46 35 l 1
49 35 m 1
 47 35 l 1
 47 33 l 1
 49 33 l 1
 49 35 l 1
49 31 m 1
 47 31 l 1
 47 29 l 1
 49 29 l 1
 49 31 l 1
55 35 m 1
 53 35 l 1
 53 33 l 1
 55 33 l 1
 55 35 l 1
44 27 m 1
 42 27 l 1
 42 25 l 1
 43 25 l 1
 43 26 l 1
 44 26 l 1
 44 27 l 1
46 27 m 1
 45 27 l 1
 45 26 l 1
 44 26 l 1
 44 25 l 1
 46 25 l 1
 46 27 l 1
49 27 m 1
 47 27 l 1
 47 25 l 1
 49 25 l 1
 49 27 l 1
55 27 m 1
 53 27 l 1
 53 25 l 1
 55 25 l 1
 55 27 l 1
57 35 m 1
 56 35 l 1
 56 33 l 1
 58 33 l 1
 58 34 l 1
 57 34 l 1
 57 35 l 1
60 35 m 1
 58 35 l 1
 58 34 l 1
 59 34 l 1
 59 33 l 1
 60 33 l 1
 60 35 l 1
63 35 m 1
 61 35 l 1
 61 33 l 1
 63 33 l 1
 63 35 l 1
63 31 m 1
 61 31 l 1
 61 29 l 1
 63 29 l 1
 63 31 l 1
58 27 m 1
 56 27 l 1
 56 25 l 1
 57 25 l 1
 57 26 l 1
 58 26 l 1
 58 27 l 1
60 27 m 1
 59 27 l 1
 59 26 l 1
 58 26 l 1
 58 25 l 1
 60 25 l 1
 60 27 l 1
63 27 m 1
 61 27 l 1
 61 25 l 1
 63 25 l 1
 63 27 l 1
14 5 m 1
 13 5 l 1
 13 3 l 1
 14 3 l 1
 14 2 l 1
 15 2 l 1
 15 4 l 1
 14 4 l 1
 14 5 l 1
13 3 m 1
 12 3 l 1
 12 2 l 1
 13 2 l 1
 13 3 l 1
EndSplineSet
EndChar

